<?xml version="1.0" encoding="utf-8"?>
<!-- Generator: Adobe Illustrator 16.0.0, SVG Export Plug-In . SVG Version: 6.00 Build 0)  -->
<!DOCTYPE svg PUBLIC "-//W3C//DTD SVG 1.1//EN" "http://www.w3.org/Graphics/SVG/1.1/DTD/svg11.dtd">
<svg version="1.1" id="Layer_1" xmlns="http://www.w3.org/2000/svg" xmlns:xlink="http://www.w3.org/1999/xlink" x="0px" y="0px"
	 width="9px" height="7px" viewBox="0 0 50.629 44.053" enable-background="new 0 0 50.629 44.053" xml:space="preserve">
<g>
	<defs>
		<rect id="SVGID_1_" y="0" width="50.629" height="44.053"/>
	</defs>
	<clipPath id="SVGID_2_">
		<use xlink:href="#SVGID_1_"  overflow="visible"/>
	</clipPath>
	<path clip-path="url(#SVGID_2_)" fill="#434A5C" d="M49.977,20.335L29.949,0.523c-0.695-0.563-1.457-0.672-2.281-0.325
		C26.84,0.546,26.43,1.175,26.43,2.089v11.598H2.085c-0.609,0-1.109,0.195-1.5,0.59C0.196,14.667,0,15.167,0,15.773v12.515
		c0,0.61,0.196,1.11,0.586,1.5c0.391,0.391,0.891,0.586,1.5,0.586H26.43v11.598c0,0.871,0.414,1.5,1.238,1.892
		c0.829,0.347,1.586,0.218,2.281-0.392l20.027-20.073c0.438-0.435,0.652-0.953,0.652-1.563
		C50.629,21.269,50.41,20.773,49.977,20.335"/>
</g>
</svg>
