<?xml version="1.0" encoding="utf-8"?>
<!-- Generator: Adobe Illustrator 16.0.0, SVG Export Plug-In . SVG Version: 6.00 Build 0)  -->
<!DOCTYPE svg PUBLIC "-//W3C//DTD SVG 1.1//EN" "http://www.w3.org/Graphics/SVG/1.1/DTD/svg11.dtd">
<svg version="1.1" id="Layer_1" xmlns="http://www.w3.org/2000/svg" xmlns:xlink="http://www.w3.org/1999/xlink" x="0px" y="0px"
	 width="19px" height="22px" viewBox="0 0 19 22" enable-background="new 0 0 19 22" xml:space="preserve">
<g>
	<defs>
		<rect id="SVGID_1_" x="0.125" y="0.607" width="18.75" height="20.787"/>
	</defs>
	<clipPath id="SVGID_2_">
		<use xlink:href="#SVGID_1_"  overflow="visible"/>
	</clipPath>
	<path clip-path="url(#SVGID_2_)" fill="#434A5C" d="M17.559,13.418l-1.538-1.537L9.103,4.963C7.828,3.698,5.771,3.702,4.5,4.972
		C3.23,6.242,3.226,8.3,4.492,9.575l6.917,6.919c0.282,0.284,0.742,0.284,1.024,0c0.284-0.282,0.284-0.741,0-1.023L5.517,8.55
		c-0.707-0.708-0.707-1.854,0-2.562c0.707-0.708,1.854-0.708,2.562,0l6.918,6.917l1.538,1.537c1.274,1.273,1.274,3.34-0.001,4.613
		c-1.273,1.273-3.339,1.272-4.613-0.002l-1.279-1.281L3.466,10.6l-0.512-0.513C1.163,8.24,1.186,5.297,3.005,3.477
		s4.763-1.843,6.61-0.051l7.687,7.687c0.184,0.183,0.45,0.254,0.7,0.187c0.249-0.067,0.445-0.262,0.512-0.512
		c0.067-0.251-0.005-0.517-0.188-0.701l-7.686-7.687c-2.408-2.396-6.301-2.392-8.702,0.01c-2.402,2.402-2.407,6.294-0.01,8.702
		l7.687,7.686l1.283,1.281c1.851,1.778,4.781,1.746,6.596-0.067C19.308,18.199,19.335,15.267,17.559,13.418"/>
</g>
</svg>
