<?xml version="1.0" encoding="utf-8"?>
<!-- Generator: Adobe Illustrator 16.0.0, SVG Export Plug-In . SVG Version: 6.00 Build 0)  -->
<!DOCTYPE svg PUBLIC "-//W3C//DTD SVG 1.1//EN" "http://www.w3.org/Graphics/SVG/1.1/DTD/svg11.dtd">
<svg version="1.1" id="Layer_1" xmlns="http://www.w3.org/2000/svg" xmlns:xlink="http://www.w3.org/1999/xlink" x="0px" y="0px"
	 width="16px" height="14px" viewBox="0 0 16 14" enable-background="new 0 0 16 14" xml:space="preserve">
<g>
	<defs>
		<rect id="SVGID_1_" x="0.236" y="0.069" width="15.528" height="13.863"/>
	</defs>
	<clipPath id="SVGID_2_">
		<use xlink:href="#SVGID_1_"  overflow="visible"/>
	</clipPath>
	<path clip-path="url(#SVGID_2_)" fill="#F26924" d="M15.305,6.333c-0.936-2.328-3.463-3.492-7.583-3.492h-1.94V0.624
		c0-0.15-0.055-0.28-0.165-0.39c-0.109-0.109-0.24-0.165-0.39-0.165c-0.15,0-0.28,0.055-0.39,0.165L0.401,4.67
		C0.292,4.78,0.236,4.91,0.236,5.06c0,0.15,0.055,0.281,0.165,0.39l4.437,4.437c0.11,0.109,0.24,0.164,0.39,0.164
		c0.15,0,0.281-0.055,0.39-0.164s0.165-0.241,0.165-0.391V7.278h1.94c0.566,0,1.074,0.017,1.522,0.052
		c0.447,0.035,0.891,0.097,1.333,0.186c0.442,0.09,0.826,0.212,1.154,0.369c0.324,0.156,0.63,0.356,0.913,0.602
		c0.282,0.246,0.514,0.537,0.693,0.876c0.18,0.338,0.32,0.737,0.42,1.2c0.101,0.462,0.151,0.984,0.151,1.567
		c0,0.318-0.014,0.674-0.043,1.066c0,0.034-0.008,0.103-0.021,0.203c-0.015,0.102-0.021,0.179-0.021,0.229
		c0,0.087,0.024,0.159,0.074,0.217c0.049,0.058,0.116,0.086,0.203,0.086c0.092,0,0.173-0.048,0.242-0.146
		c0.04-0.052,0.077-0.116,0.113-0.19c0.034-0.076,0.072-0.162,0.117-0.261c0.042-0.098,0.073-0.166,0.091-0.208
		c0.732-1.646,1.101-2.948,1.101-3.906C15.765,8.07,15.61,7.107,15.305,6.333"/>
</g>
</svg>
