<?xml version="1.0" encoding="utf-8"?>
<!-- Generator: Adobe Illustrator 16.0.0, SVG Export Plug-In . SVG Version: 6.00 Build 0)  -->
<!DOCTYPE svg PUBLIC "-//W3C//DTD SVG 1.1//EN" "http://www.w3.org/Graphics/SVG/1.1/DTD/svg11.dtd">
<svg version="1.1" id="Capa_1" xmlns="http://www.w3.org/2000/svg" xmlns:xlink="http://www.w3.org/1999/xlink" x="0px" y="0px"
	 width="23px" height="19px" viewBox="0 0 23 19" enable-background="new 0 0 23 19" xml:space="preserve">
<g>
	<g>
		<path fill="#42495C" d="M8.39,7.409c-0.736,0-1.334,0.598-1.334,1.334c0,0.736,0.599,1.334,1.334,1.334s1.334-0.598,1.334-1.334
			C9.724,8.007,9.125,7.409,8.39,7.409z M8.39,9.423c-0.375,0-0.68-0.306-0.68-0.68c0-0.375,0.306-0.68,0.68-0.68
			c0.375,0,0.68,0.305,0.68,0.68C9.07,9.118,8.765,9.423,8.39,9.423z"/>
	</g>
</g>
<g>
	<g>
		<path fill="#42495C" d="M11.869,7.409c-0.736,0-1.334,0.598-1.334,1.334c0,0.736,0.599,1.334,1.334,1.334
			c0.735,0,1.334-0.598,1.334-1.334C13.203,8.007,12.604,7.409,11.869,7.409z M11.869,9.423c-0.375,0-0.68-0.306-0.68-0.68
			c0-0.375,0.305-0.68,0.68-0.68c0.375,0,0.68,0.305,0.68,0.68C12.549,9.118,12.244,9.423,11.869,9.423z"/>
	</g>
</g>
<g>
	<g>
		<path fill="#42495C" d="M15.348,7.409c-0.735,0-1.334,0.598-1.334,1.334c0,0.736,0.599,1.334,1.334,1.334
			c0.736,0,1.334-0.598,1.334-1.334C16.682,8.007,16.084,7.409,15.348,7.409z M15.348,9.423c-0.374,0-0.68-0.306-0.68-0.68
			c0-0.375,0.306-0.68,0.68-0.68c0.376,0,0.68,0.305,0.68,0.68C16.027,9.118,15.724,9.423,15.348,9.423z"/>
	</g>
</g>
<g>
	<g>
		<path fill="#42495C" d="M8.39,10.664c-0.736,0-1.334,0.598-1.334,1.334c0,0.735,0.599,1.334,1.334,1.334s1.334-0.599,1.334-1.334
			C9.724,11.262,9.125,10.664,8.39,10.664z M8.39,12.678c-0.375,0-0.68-0.305-0.68-0.68c0-0.374,0.306-0.68,0.68-0.68
			c0.375,0,0.68,0.306,0.68,0.68C9.07,12.373,8.765,12.678,8.39,12.678z"/>
	</g>
</g>
<g>
	<g>
		<path fill="#42495C" d="M15.348,10.664c-0.735,0-1.334,0.598-1.334,1.334c0,0.735,0.599,1.334,1.334,1.334
			c0.736,0,1.334-0.599,1.334-1.334C16.682,11.262,16.084,10.664,15.348,10.664z M15.348,12.678c-0.374,0-0.68-0.305-0.68-0.68
			c0-0.374,0.306-0.68,0.68-0.68c0.376,0,0.68,0.306,0.68,0.68C16.027,12.373,15.724,12.678,15.348,12.678z"/>
	</g>
</g>
<g>
	<g>
		<path fill="#42495C" d="M11.869,10.664c-0.736,0-1.334,0.598-1.334,1.334c0,0.735,0.599,1.334,1.334,1.334
			c0.735,0,1.334-0.599,1.334-1.334C13.203,11.262,12.604,10.664,11.869,10.664z M11.869,12.678c-0.375,0-0.68-0.305-0.68-0.68
			c0-0.374,0.305-0.68,0.68-0.68c0.375,0,0.68,0.306,0.68,0.68C12.549,12.373,12.244,12.678,11.869,12.678z"/>
	</g>
</g>
<g>
	<g>
		<path fill="#42495C" d="M11.869,13.918c-0.736,0-1.334,0.6-1.334,1.336c0,0.735,0.599,1.333,1.334,1.333
			c0.735,0,1.334-0.598,1.334-1.333C13.203,14.518,12.604,13.918,11.869,13.918z M11.869,15.933c-0.375,0-0.68-0.305-0.68-0.679
			c0-0.376,0.305-0.682,0.68-0.682c0.375,0,0.68,0.306,0.68,0.682C12.549,15.628,12.244,15.933,11.869,15.933z"/>
	</g>
</g>
<g>
	<g>
		<path fill="#42495C" d="M8.39,13.918c-0.736,0-1.334,0.6-1.334,1.336c0,0.735,0.599,1.333,1.334,1.333s1.334-0.598,1.334-1.333
			C9.724,14.518,9.125,13.918,8.39,13.918z M8.39,15.933c-0.375,0-0.68-0.305-0.68-0.679c0-0.376,0.306-0.682,0.68-0.682
			c0.375,0,0.68,0.306,0.68,0.682C9.07,15.628,8.765,15.933,8.39,15.933z"/>
	</g>
</g>
<g>
	<g>
		<path fill="#42495C" d="M5.374,8.743l0.481-0.481c0.127-0.128,0.127-0.335,0-0.463c-0.128-0.128-0.335-0.128-0.463,0l-0.48,0.48
			L4.43,7.799c-0.128-0.128-0.335-0.128-0.463,0c-0.127,0.127-0.127,0.334,0,0.463l0.481,0.481L3.967,9.224
			c-0.127,0.127-0.127,0.334,0,0.462C4.031,9.75,4.114,9.782,4.198,9.782c0.083,0,0.167-0.032,0.231-0.096L4.91,9.206l0.481,0.481
			C5.456,9.75,5.539,9.782,5.623,9.782c0.084,0,0.167-0.032,0.231-0.096c0.128-0.128,0.128-0.335,0-0.462L5.374,8.743z"/>
	</g>
</g>
<g>
	<g>
		<path fill="#42495C" d="M5.374,11.998l0.481-0.481c0.127-0.127,0.127-0.334,0-0.462c-0.128-0.128-0.335-0.129-0.463,0l-0.48,0.48
			l-0.481-0.48c-0.128-0.129-0.335-0.128-0.463,0c-0.127,0.128-0.127,0.335,0,0.462l0.481,0.481l-0.481,0.48
			c-0.127,0.128-0.127,0.336,0,0.463c0.064,0.064,0.147,0.097,0.231,0.097c0.083,0,0.167-0.032,0.231-0.097l0.481-0.48l0.481,0.48
			c0.064,0.064,0.148,0.097,0.231,0.097c0.084,0,0.167-0.032,0.231-0.097c0.128-0.127,0.128-0.335,0-0.463L5.374,11.998z"/>
	</g>
</g>
<g>
	<g>
		<path fill="#42495C" d="M5.854,15.733l-0.481-0.479l0.481-0.481c0.127-0.127,0.127-0.335,0-0.463
			c-0.127-0.128-0.334-0.128-0.463,0L4.91,14.79l-0.481-0.48c-0.127-0.128-0.334-0.128-0.462,0c-0.127,0.128-0.127,0.336,0,0.463
			l0.481,0.481l-0.481,0.479c-0.127,0.129-0.127,0.335,0,0.464c0.064,0.064,0.147,0.095,0.231,0.095c0.083,0,0.167-0.03,0.231-0.095
			l0.481-0.481l0.481,0.481c0.064,0.064,0.148,0.095,0.231,0.095c0.084,0,0.167-0.03,0.231-0.095
			C5.982,16.068,5.982,15.862,5.854,15.733z"/>
	</g>
</g>
<g>
	<g>
		<path fill="#42495C" d="M22.648,16.707l-0.893-4.695c-0.033-0.177-0.205-0.294-0.383-0.26c-0.178,0.032-0.294,0.205-0.261,0.382
			l0.894,4.695c0.049,0.264-0.172,0.512-0.476,0.512h-4.841l3.14-3.142c0.058-0.057,0.097-0.14,0.097-0.23V5.885l0.897,4.721
			c0.033,0.178,0.204,0.294,0.381,0.261c0.18-0.033,0.296-0.205,0.262-0.382l-1.542-8.116C19.9,1.886,19.503,1.5,19.015,1.5h-2.868
			V0.448c0-0.181-0.146-0.327-0.326-0.327s-0.328,0.146-0.328,0.327V1.5h-2.19V0.448c0-0.181-0.146-0.327-0.328-0.327
			c-0.179,0-0.326,0.146-0.326,0.327V1.5h-2.191V0.448c0-0.181-0.146-0.327-0.327-0.327S9.802,0.267,9.802,0.448V1.5H7.611V0.448
			c0-0.181-0.146-0.327-0.327-0.327c-0.18,0-0.327,0.146-0.327,0.327V1.5H4.766V0.448c0-0.181-0.146-0.327-0.327-0.327
			S4.111,0.267,4.111,0.448V1.5H1.244c-0.502,0-0.911,0.409-0.911,0.912v15.557c0,0.502,0.409,0.911,0.911,0.911h8.123
			c0.181,0,0.327-0.146,0.327-0.326c0-0.182-0.146-0.328-0.327-0.328H1.244c-0.141,0-0.256-0.115-0.256-0.257V5.748h18.284v7.894
			H15.6c-0.503,0-0.912,0.409-0.912,0.911v3.672h-3.795c-0.181,0-0.327,0.146-0.327,0.328c0,0.18,0.146,0.326,0.327,0.326h4.122
			c0.085,0,0.17-0.032,0.232-0.096l0.788-0.788h5.495C22.242,17.995,22.774,17.376,22.648,16.707z M0.987,5.093V2.411
			c0-0.142,0.115-0.257,0.256-0.257h2.868v1.47c0,0.181,0.146,0.327,0.327,0.327s0.327-0.146,0.327-0.327v-1.47h2.191v1.47
			c0,0.181,0.147,0.327,0.327,0.327c0.181,0,0.327-0.146,0.327-0.327v-1.47h2.191v1.47c0,0.181,0.146,0.327,0.327,0.327
			s0.327-0.146,0.327-0.327v-1.47h2.191v1.47c0,0.181,0.147,0.327,0.326,0.327c0.182,0,0.328-0.146,0.328-0.327v-1.47h2.19v1.47
			c0,0.181,0.147,0.327,0.328,0.327s0.326-0.146,0.326-0.327v-1.47h2.868c0.142,0,0.257,0.115,0.257,0.257v2.683L0.987,5.093
			L0.987,5.093z M15.342,17.763v-3.21c0-0.142,0.116-0.257,0.258-0.257h3.209C18.481,14.623,15.67,17.435,15.342,17.763z"/>
	</g>
</g>
</svg>
