<?xml version="1.0" encoding="utf-8"?>
<!-- Generator: Adobe Illustrator 16.0.0, SVG Export Plug-In . SVG Version: 6.00 Build 0)  -->
<!DOCTYPE svg PUBLIC "-//W3C//DTD SVG 1.1//EN" "http://www.w3.org/Graphics/SVG/1.1/DTD/svg11.dtd">
<svg version="1.1" id="Layer_1" xmlns="http://www.w3.org/2000/svg" xmlns:xlink="http://www.w3.org/1999/xlink" x="0px" y="0px"
	 width="18px" height="18px" viewBox="0 0 18 18" enable-background="new 0 0 18 18" xml:space="preserve">
<g>
	<g>
		<path fill="#989898" d="M15.782,1.525h-0.829V0.141h-1.386v1.384H4.432V0.141H3.047v1.384h-0.83c-1.145,0-2.077,0.932-2.077,2.076
			v12.181c0,1.146,0.932,2.077,2.077,2.077h13.565c1.146,0,2.077-0.932,2.077-2.077V3.601C17.859,2.457,16.928,1.525,15.782,1.525z
			 M16.476,15.782c0,0.382-0.312,0.693-0.693,0.693H2.217c-0.382,0-0.692-0.312-0.692-0.693V6.647h14.951V15.782z M16.476,5.263
			H1.525V3.601c0-0.381,0.311-0.692,0.692-0.692h0.83v1.384h1.385V2.909h9.135v1.384h1.386V2.909h0.829
			c0.382,0,0.693,0.311,0.693,0.692V5.263z"/>
	</g>
</g>
<g>
	<g>
		<rect x="2.771" y="8.101" fill="#989898" width="1.384" height="1.384"/>
	</g>
</g>
<g>
	<g>
		<rect x="5.54" y="8.101" fill="#989898" width="1.384" height="1.384"/>
	</g>
</g>
<g>
	<g>
		<rect x="8.308" y="8.101" fill="#989898" width="1.384" height="1.384"/>
	</g>
</g>
<g>
	<g>
		<rect x="11.077" y="8.101" fill="#989898" width="1.383" height="1.384"/>
	</g>
</g>
<g>
	<g>
		<rect x="13.846" y="8.101" fill="#989898" width="1.383" height="1.384"/>
	</g>
</g>
<g>
	<g>
		<rect x="2.771" y="10.869" fill="#989898" width="1.384" height="1.384"/>
	</g>
</g>
<g>
	<g>
		<rect x="5.54" y="10.869" fill="#989898" width="1.384" height="1.384"/>
	</g>
</g>
<g>
	<g>
		<rect x="8.308" y="10.869" fill="#989898" width="1.384" height="1.384"/>
	</g>
</g>
<g>
	<g>
		<rect x="11.077" y="10.869" fill="#989898" width="1.383" height="1.384"/>
	</g>
</g>
<g>
	<g>
		<rect x="2.771" y="13.638" fill="#989898" width="1.384" height="1.384"/>
	</g>
</g>
<g>
	<g>
		<rect x="5.54" y="13.638" fill="#989898" width="1.384" height="1.384"/>
	</g>
</g>
<g>
	<g>
		<rect x="8.308" y="13.638" fill="#989898" width="1.384" height="1.384"/>
	</g>
</g>
<g>
	<g>
		<rect x="11.077" y="13.638" fill="#989898" width="1.383" height="1.384"/>
	</g>
</g>
<g>
	<g>
		<rect x="13.846" y="10.869" fill="#989898" width="1.383" height="1.384"/>
	</g>
</g>
</svg>
