<?xml version="1.0" encoding="utf-8"?>
<!-- Generator: Adobe Illustrator 16.0.0, SVG Export Plug-In . SVG Version: 6.00 Build 0)  -->
<!DOCTYPE svg PUBLIC "-//W3C//DTD SVG 1.1//EN" "http://www.w3.org/Graphics/SVG/1.1/DTD/svg11.dtd">
<svg version="1.1" id="Layer_1" xmlns="http://www.w3.org/2000/svg" xmlns:xlink="http://www.w3.org/1999/xlink" x="0px" y="0px"
	 width="39px" height="38px" viewBox="0 0 378.494 379.043" enable-background="new 0 0 378.494 379.043"
	 xml:space="preserve">
<path fill="#ACD25B" d="M299.29,234.806c-7.762-8.078-17.121-12.399-27.039-12.399c-9.841,0-19.281,4.239-27.359,12.321
	l-25.282,25.199c-2.082-1.121-4.16-2.16-6.16-3.199c-2.879-1.442-5.601-2.801-7.922-4.243c-23.679-15.039-45.199-34.64-65.839-60
	c-10-12.641-16.719-23.281-21.598-34.078c6.558-6,12.64-12.241,18.558-18.241c2.243-2.239,4.481-4.56,6.723-6.802
	c16.797-16.797,16.797-38.559,0-55.359l-21.844-21.839c-2.476-2.48-5.039-5.039-7.437-7.599c-4.801-4.961-9.84-10.082-15.039-14.882
	C91.29,26.004,82.009,21.926,72.25,21.926c-9.762,0-19.199,4.078-27.199,11.759l-0.16,0.159L17.688,61.285
	C7.45,71.523,1.61,84.004,0.329,98.484c-1.918,23.359,4.961,45.121,10.242,59.359c12.957,34.962,32.321,67.358,61.2,102.083
	c35.039,41.84,77.199,74.879,125.359,98.159c18.398,8.72,42.961,19.039,70.398,20.798c1.684,0.082,3.442,0.159,5.043,0.159
	c18.481,0,34-6.637,46.16-19.841c0.079-0.159,0.239-0.236,0.321-0.396c4.16-5.039,8.957-9.604,14-14.481
	c3.437-3.281,6.957-6.719,10.397-10.32c7.922-8.237,12.078-17.841,12.078-27.68c0-9.918-4.237-19.44-12.315-27.44L299.29,234.806z
	 M327.931,319.043C327.849,319.043,327.849,319.125,327.931,319.043c-3.121,3.363-6.321,6.402-9.762,9.763
	c-5.199,4.961-10.48,10.16-15.438,16c-8.082,8.64-17.601,12.718-30.082,12.718c-1.199,0-2.48,0-3.679-0.078
	c-23.758-1.519-45.84-10.8-62.399-18.718c-45.281-21.922-85.043-53.043-118.082-92.482c-27.277-32.882-45.519-63.28-57.597-95.921
	c-7.442-19.918-10.161-35.441-8.961-50.078c0.8-9.363,4.398-17.12,11.039-23.762L60.25,49.202c3.918-3.679,8.078-5.679,12.16-5.679
	c5.039,0,9.117,3.043,11.68,5.603l0.238,0.237c4.883,4.563,9.52,9.282,14.402,14.321c2.481,2.562,5.04,5.12,7.598,7.761l21.84,21.84
	c8.48,8.481,8.48,16.32,0,24.801c-2.32,2.32-4.559,4.642-6.879,6.879c-6.719,6.879-13.121,13.281-20.078,19.52
	c-0.16,0.161-0.32,0.243-0.402,0.398c-6.879,6.884-5.598,13.602-4.161,18.161l0.243,0.723c5.679,13.757,13.679,26.718,25.839,42.16
	l0.079,0.077c22.082,27.198,45.359,48.402,71.039,64.642c3.281,2.082,6.64,3.761,9.84,5.358c2.882,1.441,5.601,2.802,7.921,4.241
	c0.321,0.161,0.641,0.4,0.961,0.561c2.719,1.357,5.278,2,7.918,2c6.641,0,10.801-4.16,12.16-5.521l27.36-27.358
	c2.722-2.725,7.043-6,12.082-6c4.961,0,9.039,3.116,11.519,5.84l44.239,44.237C336.091,302.164,336.091,310.566,327.931,319.043"/>
<path fill="#ACD25B" d="M204.57,90.164c20.957,3.521,40,13.442,55.2,28.641c15.199,15.199,25.039,34.238,28.64,55.199
	c0.88,5.282,5.438,8.961,10.641,8.961c0.637,0,1.2-0.082,1.84-0.16c5.918-0.961,9.839-6.559,8.879-12.479
	c-4.321-25.36-16.321-48.481-34.64-66.801c-18.321-18.321-41.442-30.321-66.802-34.642c-5.918-0.957-11.437,2.961-12.48,8.802
	C194.809,83.524,198.648,89.203,204.57,90.164"/>
<path fill="#ACD25B" d="M378.328,167.203c-7.116-41.757-26.801-79.757-57.038-110c-30.238-30.238-68.238-49.917-110-57.039
	c-5.841-1.039-11.359,2.961-12.399,8.801c-0.96,5.918,2.958,11.442,8.879,12.481c37.282,6.32,71.282,24,98.321,50.961
	c27.039,27.039,44.64,61.039,50.961,98.32c0.879,5.276,5.437,8.957,10.637,8.957c0.64,0,1.202-0.078,1.839-0.16
	C375.371,178.646,379.371,173.043,378.328,167.203"/>
</svg>
