<?xml version="1.0" encoding="utf-8"?>
<!-- Generator: Adobe Illustrator 16.0.0, SVG Export Plug-In . SVG Version: 6.00 Build 0)  -->
<!DOCTYPE svg PUBLIC "-//W3C//DTD SVG 1.1//EN" "http://www.w3.org/Graphics/SVG/1.1/DTD/svg11.dtd">
<svg version="1.1" id="Capa_1" xmlns="http://www.w3.org/2000/svg" xmlns:xlink="http://www.w3.org/1999/xlink" x="0px" y="0px"
	 width="21px" height="17px" viewBox="0 0 21 17" enable-background="new 0 0 21 17" xml:space="preserve">
<g>
	<g>
		<path fill="#FFFFFF" d="M10.5,6.428c-1.717,0-3.107,1.392-3.107,3.107c0,1.717,1.391,3.107,3.107,3.107s3.107-1.392,3.107-3.107
			C13.607,7.82,12.216,6.428,10.5,6.428z M18.787,3.32h-2.486c-0.342,0-0.709-0.266-0.818-0.589l-0.642-1.929
			c-0.108-0.324-0.478-0.589-0.817-0.589H6.978c-0.342,0-0.71,0.265-0.819,0.589l-0.643,1.93C5.409,3.055,5.041,3.32,4.699,3.32
			H2.213c-1.14,0-2.072,0.933-2.072,2.072v9.322c0,1.14,0.932,2.072,2.072,2.072h16.574c1.139,0,2.072-0.933,2.072-2.072V5.393
			C20.859,4.253,19.926,3.32,18.787,3.32z M10.5,14.715c-2.861,0-5.18-2.318-5.18-5.18c0-2.86,2.319-5.179,5.18-5.179
			c2.859,0,5.18,2.319,5.18,5.179C15.68,12.396,13.359,14.715,10.5,14.715z M18.063,6.841c-0.398,0-0.727-0.325-0.727-0.725
			c0-0.401,0.327-0.726,0.727-0.726c0.4,0,0.726,0.325,0.726,0.726C18.787,6.517,18.462,6.841,18.063,6.841z"/>
	</g>
</g>
</svg>
