<?xml version="1.0" encoding="utf-8"?>
<!-- Generator: Adobe Illustrator 16.0.0, SVG Export Plug-In . SVG Version: 6.00 Build 0)  -->
<!DOCTYPE svg PUBLIC "-//W3C//DTD SVG 1.1//EN" "http://www.w3.org/Graphics/SVG/1.1/DTD/svg11.dtd">
<svg version="1.1" id="Layer_1" xmlns="http://www.w3.org/2000/svg" xmlns:xlink="http://www.w3.org/1999/xlink" x="0px" y="0px"
	 width="114px" height="77px" viewBox="0 0 733.621 499" enable-background="new 0 0 733.621 499" xml:space="preserve">
<g>
	<defs>
		<rect id="SVGID_1_" width="733.621" height="499"/>
	</defs>
	<clipPath id="SVGID_2_">
		<use xlink:href="#SVGID_1_"  overflow="visible"/>
	</clipPath>
	<g clip-path="url(#SVGID_2_)">
		<defs>
			<rect id="SVGID_3_" x="200.761" width="417" height="499"/>
		</defs>
		<clipPath id="SVGID_4_">
			<use xlink:href="#SVGID_3_"  overflow="visible"/>
		</clipPath>
		<path clip-path="url(#SVGID_4_)" d="M207.766,467.98H451.78v-14H214.766v-44.602c-0.035-3.344,0.316-6.68,1.047-9.941
			c0.137-0.594,0.285-1.18,0.445-1.766c4.094-14.898,15.66-26.754,30.945-31.711l72.786-23.598c29.234,14.59,63.627,14.59,92.867,0
			l33.773,10.948l4.315-13.319l-31.815-10.313v-32.313c25.16-15.02,42.703-40.07,48.219-68.847l4.156-14.301
			c16.358-5.321,25.848-22.352,21.762-39.063c-2.09-8.758-8.531-15.828-17.059-18.722v-46.672C476.207,49.141,427.063,0,366.441,0
			C305.824,0,256.68,49.141,256.68,109.762v46.66c-8.547,2.883-15.008,9.965-17.102,18.738
			c-4.086,16.711,5.403,33.746,21.762,39.067l4.156,14.296c5.516,28.778,23.063,53.829,48.219,68.848v32.32l-70.828,22.957
			c-19.781,6.413-34.785,21.863-40.129,41.32c-0.207,0.762-0.402,1.523-0.578,2.289c-0.98,4.304-1.453,8.711-1.414,13.125v51.602
			C200.766,464.848,203.899,467.98,207.766,467.98 M375.305,111.789c8.93,9.5,36.972,34.727,86.902,39.856v3.605
			c-19.328-0.453-76.466-4.652-121.941-36.898l0.633-0.082C352.485,116.785,363.973,114.621,375.305,111.789 M270.68,109.762
			C270.68,56.875,313.555,14,366.441,14c52.891,0,95.766,42.875,95.766,95.762v27.785c-36.668-4.16-60.156-20.399-71.32-30.246
			c18.727-6.145,34.672-14.223,47.672-24.192c3.066-2.351,3.645-6.746,1.293-9.812c-2.352-3.067-6.746-3.649-9.813-1.297
			c-26.566,20.375-63.984,28.84-90.695,32.355c-17.516,2.336-35.187,3.25-52.852,2.739c-1.859-0.098-3.683,0.554-5.062,1.804
			c-1.379,1.254-2.203,3.004-2.289,4.868l-1.699,37.312c-0.086,2.379-1.438,4.531-3.543,5.645c-0.989,0.535-2.094,0.824-3.219,0.839
			V109.762z M279.188,225.594c-0.043-0.223-0.094-0.446-0.156-0.66l-5.145-17.704c-0.508-2.91-2.785-5.191-5.691-5.699
			c-5.133-0.91-9.657-3.902-12.5-8.269c-2.844-4.364-3.758-9.711-2.52-14.774c0.992-4.336,4.281-7.781,8.566-8.976
			c6.286,2.996,13.653,2.648,19.622-0.934c5.972-3.578,9.75-9.914,10.066-16.867l1.387-30.465c6.039,0.055,15.59-0.055,27.289-0.891
			c31.215,26.774,69.543,38.649,96.492,43.903c29.769,5.804,51.949,5.031,52.879,5c0.152-0.008,0.304-0.028,0.457-0.043
			c4.804,0.879,8.629,4.519,9.734,9.277c1.233,5.059,0.323,10.406-2.523,14.77c-2.844,4.367-7.368,7.359-12.496,8.269
			c-2.911,0.508-5.188,2.789-5.691,5.699l-5.145,17.704c-0.063,0.214-0.118,0.437-0.157,0.66
			c-7.89,41.96-44.539,72.359-87.233,72.359C323.723,297.953,287.078,267.555,279.188,225.594 M366.422,311.953
			c13.273,0.004,26.418-2.57,38.707-7.582v26.199c-24.488,11.66-52.926,11.66-77.414,0v-26.199
			C340.004,309.383,353.148,311.957,366.422,311.953"/>
	</g>
	<g clip-path="url(#SVGID_2_)">
		<defs>
			<rect id="SVGID_5_" width="733.621" height="499"/>
		</defs>
		<clipPath id="SVGID_6_">
			<use xlink:href="#SVGID_5_"  overflow="visible"/>
		</clipPath>
		<g opacity="0.6" clip-path="url(#SVGID_6_)">
			<g>
				<defs>
					<rect id="SVGID_7_" y="95.478" width="331.762" height="397"/>
				</defs>
				<clipPath id="SVGID_8_">
					<use xlink:href="#SVGID_7_"  overflow="visible"/>
				</clipPath>
				<g clip-path="url(#SVGID_8_)">
					<defs>
						<rect id="SVGID_9_" y="95.479" width="331.762" height="397"/>
					</defs>
					<clipPath id="SVGID_10_">
						<use xlink:href="#SVGID_9_"  overflow="visible"/>
					</clipPath>
					<path clip-path="url(#SVGID_10_)" d="M5.572,467.799h244.138v-11.138H11.142v-35.484c-0.028-2.66,0.251-5.314,0.833-7.909
						c0.109-0.473,0.226-0.938,0.354-1.405c3.257-11.854,12.459-21.285,24.619-25.229l57.908-18.774
						c23.258,11.607,50.622,11.607,73.884,0l39.87,20.711l3.435-10.598l-38.314-20.204v-25.708
						c20.017-11.948,33.974-31.879,38.363-54.773l3.306-11.378c13.016-4.233,20.565-17.783,17.314-31.078
						c-1.663-6.968-6.787-12.593-13.572-14.895v-37.132c0-48.23-39.098-87.326-87.328-87.326c-48.227,0-87.326,39.096-87.326,87.326
						v37.122c-6.8,2.294-11.94,7.928-13.606,14.908c-3.251,13.295,4.299,26.848,17.313,31.081l3.307,11.374
						c4.389,22.896,18.349,42.826,38.363,54.775v25.713l-56.35,18.265c-15.738,5.102-27.675,17.394-31.926,32.875
						c-0.166,0.605-0.32,1.211-0.46,1.82c-0.78,3.425-1.157,6.931-1.125,10.442v41.054C0.004,465.308,2.496,467.799,5.572,467.799
						 M138.865,184.416c7.105,7.559,29.415,27.629,69.139,31.709v2.869c-15.377-0.361-60.835-3.702-97.016-29.356l0.504-0.065
						C120.709,188.392,129.85,186.67,138.865,184.416 M55.626,182.804c0-42.076,34.11-76.187,76.187-76.187
						c42.079,0,76.19,34.111,76.19,76.187v22.106c-29.173-3.31-47.86-16.23-56.742-24.064c14.899-4.889,27.585-11.316,37.928-19.247
						c2.439-1.871,2.899-5.367,1.028-7.807c-1.871-2.439-5.367-2.902-7.807-1.031c-21.135,16.21-50.905,22.945-72.156,25.741
						c-13.936,1.859-27.995,2.586-42.049,2.179c-1.479-0.078-2.93,0.441-4.027,1.436c-1.097,0.997-1.753,2.389-1.821,3.872
						l-1.352,29.686c-0.068,1.892-1.144,3.604-2.818,4.49c-0.787,0.426-1.666,0.656-2.561,0.668V182.804z M62.395,274.959
						c-0.034-0.178-0.075-0.355-0.124-0.525l-4.093-14.085c-0.404-2.315-2.216-4.13-4.528-4.534
						c-4.083-0.724-7.683-3.104-9.945-6.579c-2.262-3.472-2.99-7.726-2.005-11.754c0.79-3.45,3.407-6.191,6.815-7.142
						c5.002,2.384,10.863,2.107,15.612-0.743c4.751-2.846,7.756-7.887,8.008-13.419l1.103-24.238
						c4.805,0.044,12.404-0.043,21.711-0.709c24.835,21.302,55.328,30.749,76.768,34.93c23.685,4.617,41.331,4.002,42.071,3.978
						c0.12-0.007,0.242-0.023,0.363-0.035c3.823,0.7,6.865,3.596,7.745,7.381c0.982,4.025,0.257,8.279-2.008,11.751
						c-2.262,3.474-5.861,5.855-9.942,6.579c-2.315,0.404-4.127,2.219-4.528,4.534l-4.093,14.085
						c-0.049,0.17-0.092,0.348-0.124,0.525c-6.278,33.384-35.435,57.568-69.403,57.568
						C97.827,332.527,68.673,308.343,62.395,274.959 M131.798,343.665c10.561,0.004,21.018-2.044,30.795-6.032v20.844
						c-19.482,9.276-42.108,9.276-61.59,0v-20.844C110.78,341.621,121.238,343.669,131.798,343.665"/>
				</g>
			</g>
		</g>
		<g opacity="0.6" clip-path="url(#SVGID_6_)">
			<g>
				<defs>
					<rect id="SVGID_11_" x="401.859" y="96.5" width="331.762" height="397"/>
				</defs>
				<clipPath id="SVGID_12_">
					<use xlink:href="#SVGID_11_"  overflow="visible"/>
				</clipPath>
				<g clip-path="url(#SVGID_12_)">
					<defs>
						<rect id="SVGID_13_" x="401.86" y="96.5" width="331.761" height="397"/>
					</defs>
					<clipPath id="SVGID_14_">
						<use xlink:href="#SVGID_13_"  overflow="visible"/>
					</clipPath>
					<path clip-path="url(#SVGID_14_)" d="M732.493,411.76c-0.141-0.609-0.295-1.216-0.46-1.821
						c-4.252-15.48-16.189-27.772-31.927-32.875l-56.35-18.265v-25.713c20.014-11.949,33.974-31.88,38.362-54.775l3.307-11.373
						c13.016-4.233,20.564-17.787,17.313-31.082c-1.666-6.98-6.806-12.614-13.606-14.908v-37.122
						c0-48.23-39.098-87.326-87.326-87.326s-87.327,39.096-87.327,87.326v37.132c-6.785,2.302-11.909,7.927-13.572,14.895
						c-3.25,13.295,4.298,26.844,17.313,31.078l3.307,11.378c2.858,14.918,9.803,28.56,19.816,39.572
						c5.256,1.861,10.361,4.125,15.236,6.627c8.939,4.589,17.563,10.483,24.857,17.578c6.646,1.715,13.49,2.604,20.386,2.602
						c10.561,0.003,21.019-2.045,30.795-6.032v20.843c-10.814,5.149-22.594,7.429-34.27,6.862c0.404,0.985,0.789,1.984,1.146,3.009
						c0.869,2.502,1.618,5.319,2.088,8.214c12.736,0.037,25.479-2.861,37.182-8.702l57.908,18.774
						c12.161,3.943,21.362,13.376,24.62,25.229c0.127,0.466,0.245,0.932,0.354,1.404c0.582,2.595,0.861,5.249,0.833,7.909v35.484
						h-134.24c-0.49,2.41-1.704,4.812-3.868,7.013c-1.58,1.607-3.308,2.967-5.147,4.124h148.825c3.076,0,5.569-2.49,5.569-5.564
						v-41.054C733.649,418.689,733.272,415.184,732.493,411.76 M525.618,183.826c0-42.077,34.11-76.188,76.188-76.188
						c42.077,0,76.188,34.111,76.188,76.188v38.029c-0.896-0.012-1.775-0.242-2.562-0.667c-1.674-0.887-2.75-2.599-2.818-4.492
						l-1.353-29.685c-0.067-1.483-0.724-2.875-1.82-3.873c-1.098-0.994-2.548-1.513-4.027-1.435
						c-14.054,0.407-28.113-0.321-42.049-2.179c-21.251-2.796-51.021-9.531-72.156-25.741c-2.439-1.872-5.936-1.408-7.807,1.032
						c-1.87,2.439-1.411,5.936,1.027,7.806c10.344,7.931,23.029,14.358,37.929,19.247c-8.882,7.834-27.568,20.754-56.741,24.063
						V183.826z M525.618,217.148c39.723-4.081,62.033-24.151,69.138-31.709c9.016,2.253,18.156,3.974,27.373,5.156l0.504,0.065
						c-36.18,25.655-81.638,28.995-97.015,29.356V217.148z M601.823,333.549c-33.968,0-63.125-24.185-69.403-57.568
						c-0.032-0.178-0.075-0.354-0.124-0.525l-4.093-14.085c-0.401-2.315-2.213-4.13-4.528-4.534
						c-4.081-0.725-7.679-3.104-9.941-6.578c-2.265-3.472-2.99-7.727-2.009-11.751c0.881-3.786,3.923-6.682,7.745-7.381
						c0.121,0.012,0.243,0.028,0.364,0.034c0.74,0.025,18.385,0.64,42.07-3.978c21.439-4.18,51.934-13.627,76.768-34.928
						c9.308,0.665,16.906,0.752,21.711,0.709l1.104,24.237c0.252,5.532,3.258,10.573,8.009,13.419
						c4.749,2.85,10.609,3.127,15.611,0.743c3.408,0.951,6.025,3.692,6.814,7.142c0.985,4.027,0.257,8.282-2.005,11.754
						c-2.262,3.474-5.862,5.854-9.945,6.578c-2.312,0.404-4.124,2.219-4.527,4.534l-4.094,14.085
						c-0.049,0.171-0.089,0.348-0.123,0.525C664.949,309.364,635.795,333.549,601.823,333.549"/>
				</g>
			</g>
		</g>
		<path clip-path="url(#SVGID_6_)" fill="#0575C1" d="M519.766,499c53.569,0,97-43.43,97-97s-43.431-97-97-97
			c-53.574,0-97,43.43-97,97C422.824,455.547,466.219,498.937,519.766,499 M519.766,319c45.836,0,83,37.16,83,83s-37.164,83-83,83
			c-45.84,0-83-37.16-83-83C436.816,356.18,473.945,319.051,519.766,319"/>
		<path clip-path="url(#SVGID_6_)" fill="#0575C1" d="M504.211,430.988c1.312,1.323,3.098,2.07,4.957,2.073h0.02
			c1.855,0,3.637-0.733,4.949-2.046l48.129-48.129c2.73-2.734,2.73-7.168,0-9.902c-2.734-2.734-7.168-2.734-9.903,0l-43.155,43.156
			l-22.02-22.242c-1.758-1.801-4.344-2.523-6.777-1.891s-4.345,2.52-5,4.949c-0.656,2.43,0.043,5.023,1.827,6.793L504.211,430.988z"
			/>
	</g>
</g>
</svg>
