<?xml version="1.0" encoding="utf-8"?>
<!-- Generator: Adobe Illustrator 16.0.0, SVG Export Plug-In . SVG Version: 6.00 Build 0)  -->
<!DOCTYPE svg PUBLIC "-//W3C//DTD SVG 1.1//EN" "http://www.w3.org/Graphics/SVG/1.1/DTD/svg11.dtd">
<svg version="1.1" id="Layer_1" xmlns="http://www.w3.org/2000/svg" xmlns:xlink="http://www.w3.org/1999/xlink" x="0px" y="0px"
	 width="23px" height="23px" viewBox="0 0 23 23" enable-background="new 0 0 23 23" xml:space="preserve">
<g>
	<path fill="#42495C" d="M21.483,1.788h-4.249V1.148c0-0.358-0.291-0.648-0.648-0.648c-0.359,0-0.65,0.291-0.65,0.648v0.639h-3.786
		V1.148c0-0.358-0.292-0.648-0.649-0.648s-0.648,0.291-0.648,0.648v0.639H7.224V1.148c0-0.358-0.29-0.648-0.649-0.648
		c-0.357,0-0.648,0.291-0.648,0.648v0.639h-4.41c-0.359,0-0.648,0.291-0.648,0.648v14.655c0,0.357,0.289,0.648,0.648,0.648h3.98
		C6.134,20.464,8.583,22.5,11.5,22.5s5.365-2.036,6.004-4.761h3.98c0.359,0,0.649-0.291,0.649-0.648V2.436
		C22.131,2.078,21.842,1.788,21.483,1.788z M5.927,3.084V3.67c0,0.358,0.291,0.648,0.648,0.648c0.359,0,0.649-0.291,0.649-0.648
		V3.084h3.627V3.67c0,0.358,0.291,0.648,0.648,0.648s0.649-0.291,0.649-0.648V3.084h3.787V3.67c0,0.358,0.291,0.648,0.649,0.648
		s0.649-0.291,0.649-0.648V3.084h3.6v2.653H2.165V3.084H5.927z M11.5,21.203c-2.685,0-4.87-2.185-4.87-4.87
		c0-2.685,2.185-4.869,4.87-4.869c2.685,0,4.869,2.185,4.869,4.869C16.369,19.019,14.185,21.203,11.5,21.203z M17.664,16.441
		c0.001-0.036,0.003-0.072,0.003-0.108c0-3.399-2.768-6.166-6.167-6.166c-3.4,0-6.167,2.767-6.167,6.166
		c0,0.036,0.002,0.072,0.002,0.108h-3.17V7.034h18.67v9.407H17.664L17.664,16.441z"/>
	<path fill="#42495C" d="M12.149,16.496v-3.137c0-0.358-0.291-0.649-0.649-0.649c-0.359,0-0.648,0.291-0.648,0.649v3.405
		c0,0.172,0.068,0.337,0.19,0.459l1.49,1.49c0.127,0.126,0.294,0.19,0.459,0.19c0.167,0,0.332-0.064,0.459-0.19
		c0.253-0.254,0.253-0.662,0-0.916L12.149,16.496z"/>
</g>
</svg>
