<?xml version="1.0" encoding="utf-8"?>
<!-- Generator: Adobe Illustrator 16.0.0, SVG Export Plug-In . SVG Version: 6.00 Build 0)  -->
<!DOCTYPE svg PUBLIC "-//W3C//DTD SVG 1.1//EN" "http://www.w3.org/Graphics/SVG/1.1/DTD/svg11.dtd">
<svg version="1.1" id="Capa_1" xmlns="http://www.w3.org/2000/svg" xmlns:xlink="http://www.w3.org/1999/xlink" x="0px" y="0px"
	 width="17px" height="17px" viewBox="0 0 17 17" enable-background="new 0 0 17 17" xml:space="preserve">
<g>
	<circle fill="#FFFFFF" cx="8.5" cy="8.5" r="8.308"/>
	<path fill="#F26822" d="M14.514,2.487c-3.316-3.315-8.711-3.316-12.027,0s-3.315,8.71,0,12.027c3.315,3.315,8.71,3.315,12.027,0
		C17.828,11.197,17.828,5.802,14.514,2.487z M11.854,11.854c-0.256,0.256-0.67,0.256-0.925,0L8.5,9.425l-2.544,2.544
		c-0.255,0.256-0.669,0.256-0.925,0c-0.256-0.256-0.256-0.67,0-0.925L7.575,8.5L5.146,6.071c-0.255-0.255-0.255-0.669,0-0.925
		s0.669-0.255,0.925,0L8.5,7.575l2.313-2.313c0.256-0.255,0.67-0.255,0.926,0c0.255,0.255,0.255,0.669,0,0.925L9.425,8.5
		l2.429,2.429C12.109,11.184,12.109,11.598,11.854,11.854z"/>
</g>
</svg>
