<?xml version="1.0" encoding="utf-8"?>
<!-- Generator: Adobe Illustrator 16.0.0, SVG Export Plug-In . SVG Version: 6.00 Build 0)  -->
<!DOCTYPE svg PUBLIC "-//W3C//DTD SVG 1.1//EN" "http://www.w3.org/Graphics/SVG/1.1/DTD/svg11.dtd">
<svg version="1.1" id="Layer_1" xmlns="http://www.w3.org/2000/svg" xmlns:xlink="http://www.w3.org/1999/xlink" x="0px" y="0px"
	 width="14px" height="16px" viewBox="0 0 14 16" enable-background="new 0 0 14 16" xml:space="preserve">
<g>
	<defs>
		<rect id="SVGID_1_" x="0.066" y="0.604" width="13.868" height="14.792"/>
	</defs>
	<clipPath id="SVGID_2_">
		<use xlink:href="#SVGID_1_"  overflow="visible"/>
	</clipPath>
	<path clip-path="url(#SVGID_2_)" fill="#FFFFFF" d="M6.652,11.539C6.74,11.641,6.867,11.697,7,11.697
		c0.133,0,0.26-0.058,0.348-0.158l3.235-3.697c0.12-0.136,0.148-0.33,0.073-0.496c-0.074-0.166-0.24-0.271-0.42-0.271h-1.85V1.066
		c0-0.255-0.207-0.462-0.462-0.462h-1.85c-0.255,0-0.462,0.207-0.462,0.462v6.009H3.764c-0.181,0-0.346,0.106-0.42,0.271
		C3.268,7.512,3.297,7.705,3.417,7.842L6.652,11.539z"/>
	<path clip-path="url(#SVGID_2_)" fill="#FFFFFF" d="M12.085,10.773v2.773H1.915v-2.773H0.066v3.698
		c0,0.512,0.415,0.924,0.925,0.924H13.01c0.512,0,0.924-0.412,0.924-0.924v-3.698H12.085z"/>
</g>
</svg>
