<?xml version="1.0" encoding="utf-8"?>
<!-- Generator: Adobe Illustrator 16.0.0, SVG Export Plug-In . SVG Version: 6.00 Build 0)  -->
<!DOCTYPE svg PUBLIC "-//W3C//DTD SVG 1.1//EN" "http://www.w3.org/Graphics/SVG/1.1/DTD/svg11.dtd">
<svg version="1.1" id="Layer_1" xmlns="http://www.w3.org/2000/svg" xmlns:xlink="http://www.w3.org/1999/xlink" x="0px" y="0px"
	 width="40px" height="38px" viewBox="0 0 384 358.172" enable-background="new 0 0 384 358.172" xml:space="preserve">
<path fill="#ACD25B" d="M192,231.645l145.645,104.027H46.355L192,231.645z M22.5,162.215l113.996,81.426L22.5,325.063V162.215z
	 M247.504,243.641l113.997-81.426v162.848L247.504,243.641z M30.605,140.356l29.644-21.175v42.346L30.605,140.356z M323.75,119.181
	l29.645,21.175l-29.645,21.171V119.181z M82.75,177.602V22.5h218.5v155.102l-73.102,52.211L192,203.992l-36.148,25.82L82.75,177.602
	z M60.25,0v91.532L0,134.566v223.606h384.001V134.566L323.75,91.532V0H60.25z"/>
<rect x="114.539" y="51.641" fill="#ACD25B" width="77.461" height="22.5"/>
<rect x="114.539" y="103.281" fill="#ACD25B" width="154.922" height="22.504"/>
<rect x="114.539" y="154.926" fill="#ACD25B" width="154.922" height="22.5"/>
</svg>
