<?xml version="1.0" encoding="utf-8"?>
<!-- Generator: Adobe Illustrator 16.0.0, SVG Export Plug-In . SVG Version: 6.00 Build 0)  -->
<!DOCTYPE svg PUBLIC "-//W3C//DTD SVG 1.1//EN" "http://www.w3.org/Graphics/SVG/1.1/DTD/svg11.dtd">
<svg version="1.1" id="Capa_1" xmlns="http://www.w3.org/2000/svg" xmlns:xlink="http://www.w3.org/1999/xlink" x="0px" y="0px"
	 width="15px" height="27px" viewBox="0 0 15 27" enable-background="new 0 0 15 27" xml:space="preserve">
<g>
	<path fill="#FFFFFF" d="M14.246,0.011l-3.498-0.006c-3.934,0-6.475,2.607-6.475,6.642V9.71H0.754c-0.304,0-0.551,0.247-0.551,0.551
		v4.438c0,0.303,0.247,0.55,0.551,0.55h3.519v11.195c0,0.306,0.246,0.552,0.55,0.552h4.591c0.304,0,0.551-0.246,0.551-0.552V15.248
		h4.113c0.306,0,0.552-0.247,0.552-0.55l0.002-4.438c0-0.146-0.059-0.286-0.162-0.389c-0.104-0.104-0.244-0.162-0.388-0.162H9.966
		V7.113c0-1.248,0.297-1.881,1.924-1.881l2.356-0.001c0.305,0,0.55-0.247,0.55-0.55V0.561C14.796,0.258,14.551,0.011,14.246,0.011z"
		/>
</g>
</svg>
