<?xml version="1.0" encoding="utf-8"?>
<!-- Generator: Adobe Illustrator 16.0.0, SVG Export Plug-In . SVG Version: 6.00 Build 0)  -->
<!DOCTYPE svg PUBLIC "-//W3C//DTD SVG 1.1//EN" "http://www.w3.org/Graphics/SVG/1.1/DTD/svg11.dtd">
<svg version="1.1" id="Layer_1" xmlns="http://www.w3.org/2000/svg" xmlns:xlink="http://www.w3.org/1999/xlink" x="0px" y="0px"
	 width="88px" height="90px" viewBox="0 0 360 360" enable-background="new 0 0 360 360" xml:space="preserve">
<path fill="#1575BC" d="M288,276h24c3.312,0,6-2.688,6-6c0-3.313-2.688-6-6-6h-24c-3.313,0-6,2.687-6,6
	C282,273.312,284.687,276,288,276"/>
<path fill="none" d="M0,360"/>
<path fill="#1575BC" d="M318,288h-35.25c-3.313,0-6,2.688-6,6c0,3.313,2.687,6,6,6H318c3.313,0,6-2.687,6-6
	C324,290.688,321.313,288,318,288"/>
<path fill="#1575BC" d="M348,313.031V246c0-3.313-2.688-6-6-6h-78v-6c-0.02-16.562-13.438-29.98-30-30h-46.777
	c14.176-8.547,25.531-21.062,32.66-36H222c16.562-0.02,29.98-13.438,30-30v-30C252,48.449,203.551,0,144,0S36,48.449,36,108v30
	c0.02,16.562,13.438,29.98,30,30h2.117c7.129,14.938,18.485,27.453,32.66,36H54c-12.715,0.016-24.039,8.031-28.285,20.016
	l-14.348-28.699h-0.004c-1.48-2.961-5.082-4.16-8.047-2.68c-2.961,1.48-4.16,5.082-2.679,8.043H0.633L24,247.414V354
	c0,3.313,2.688,6,6,6h312c9.938-0.012,17.988-8.062,18-18v-12C359.988,322.375,355.184,315.582,348,313.031 M252,234v6h-60v-24h42
	C243.937,216.012,251.988,224.062,252,234 M168,246v102h-18V226.5l20.023,15.016C168.738,242.652,168,244.285,168,246 M108,216h24
	l-24,18V216z M156,216h24v18L156,216z M224.555,155.816c2.289-7.73,3.449-15.754,3.445-23.816v-10.969
	c7.805,2.766,12.719,10.5,11.902,18.742C239.086,148.016,232.754,154.637,224.555,155.816 M144,12c52.996,0.059,95.941,43.004,96,96
	v6.016c-3.547-2.672-7.648-4.524-12-5.411V108c-0.039-33.121-26.879-59.961-60-60c-3.312,0-6,2.688-6,6c0,26.469-18.84,48-42,48H66
	c-3.312,0-6,2.688-6,6v0.605c-4.352,0.887-8.453,2.739-12,5.411V108C48.059,55.004,91.004,12.059,144,12 M84.605,126H72v-12h18.016
	C87.344,117.547,85.492,121.648,84.605,126 M114,114c7.281,0,13.844,4.387,16.629,11.113c2.785,6.723,1.246,14.465-3.902,19.614
	c-5.149,5.148-12.891,6.687-19.614,3.902C100.387,145.844,96,139.281,96,132C96.012,122.062,104.062,114.012,114,114 M48,138
	c0.012-7.625,4.816-14.418,12-16.969V132c-0.004,8.062,1.156,16.086,3.445,23.816C54.586,154.535,48.012,146.949,48,138 M72.254,138
	h12.351c1.872,9.234,7.969,17.051,16.473,21.109c8.5,4.063,18.414,3.891,26.774-0.457c8.355-4.347,14.187-12.367,15.742-21.66
	c1.554-9.293-1.344-18.773-7.828-25.605c20.351-6.918,35.629-26.856,37.929-51.039C197.812,63.258,215.969,83.707,216,108v18
	h-12.602c-3.078-15.09-17.087-25.395-32.406-23.848c-15.324,1.547-26.984,14.446-26.984,29.848s11.66,28.301,26.984,29.848
	c15.319,1.547,29.328-8.758,32.406-23.848h12.352c-3.129,37.301-34.316,65.98-71.746,65.98S75.383,175.301,72.254,138 M192,132
	c0,7.281-4.387,13.844-11.113,16.629c-6.723,2.785-14.465,1.246-19.614-3.902c-5.148-5.149-6.687-12.891-3.902-19.614
	C160.156,118.387,166.719,114,174,114C183.938,114.012,191.988,122.062,192,132 M36,234c0.012-9.938,8.062-17.988,18-18h42v30
	c0,2.273,1.285,4.352,3.316,5.367c2.032,1.016,4.465,0.797,6.286-0.566L138,226.5V348H96v-30c0-3.312-2.688-6-6-6H69.707L36,244.586
	V234z M36,271.414l21.391,42.781C51.605,317.352,48.004,323.41,48,330v12c0,2.043,0.348,4.074,1.031,6H36V271.414z M66,348
	c-3.312-0.004-5.996-2.687-6-6v-12c0.004-3.313,2.688-5.996,6-6h18v24H66z M180,252h72v96h-72V252z M312,318v30h-48v-96h72v60h-18
	C314.687,312,312,314.688,312,318 M348,342c-0.004,3.313-2.688,5.996-6,6h-18v-24h18c3.312,0.004,5.996,2.687,6,6V342z"/>
<path fill="#1575BC" d="M158.672,169.008c-10.008,6.676-19.336,6.676-29.344,0c-1.324-0.895-2.949-1.223-4.516-0.914
	c-1.566,0.312-2.945,1.23-3.832,2.558c-0.886,1.328-1.203,2.957-0.886,4.524c0.316,1.562,1.246,2.937,2.578,3.816
	c6.976,4.649,14.152,6.977,21.328,6.977c7.176,0,14.352-2.328,21.328-6.977c2.738-1.847,3.469-5.554,1.637-8.304
	C165.133,167.941,161.43,167.191,158.672,169.008"/>
<path fill="#1575BC" d="M180,132c0,3.312-2.688,6-6,6s-6-2.688-6-6s2.688-6,6-6S180,128.688,180,132"/>
<path fill="#1575BC" d="M120,132c0,3.312-2.688,6-6,6s-6-2.688-6-6s2.688-6,6-6S120,128.688,120,132"/>
</svg>
