<?xml version="1.0" encoding="utf-8"?>
<!-- Generator: Adobe Illustrator 16.0.0, SVG Export Plug-In . SVG Version: 6.00 Build 0)  -->
<!DOCTYPE svg PUBLIC "-//W3C//DTD SVG 1.1//EN" "http://www.w3.org/Graphics/SVG/1.1/DTD/svg11.dtd">
<svg version="1.1" id="Layer_1" xmlns="http://www.w3.org/2000/svg" xmlns:xlink="http://www.w3.org/1999/xlink" x="0px" y="0px"
	 width="112px" height="90px" viewBox="0 0 384 304" enable-background="new 0 0 384 304" xml:space="preserve">
<path fill="#1575BC" d="M203.734,287.773c-3.109,0-5.625,2.52-5.625,5.625v4.976c0,3.106,2.516,5.625,5.625,5.625
	c3.105,0,5.625-2.519,5.625-5.625v-4.976C209.359,290.293,206.84,287.773,203.734,287.773 M39.047,34.651h62.355
	c3.11,0,5.625-2.519,5.625-5.625c0-3.105-2.515-5.625-5.625-5.625H39.047c-3.106,0-5.625,2.52-5.625,5.625
	C33.422,32.132,35.941,34.651,39.047,34.651 M39.047,57.151h62.355c3.11,0,5.625-2.519,5.625-5.625c0-3.105-2.515-5.625-5.625-5.625
	H39.047c-3.106,0-5.625,2.52-5.625,5.625C33.422,54.632,35.941,57.151,39.047,57.151 M371.289,204.715v-6.063
	c0-17.415-10.473-32.785-26.676-39.156l-17.762-6.979c-4.852-1.914-8.086-6.517-8.078-11.86V132.2
	c10.633-8.414,17.438-21.45,17.441-35.966V58.388c0-14.716-11.973-26.688-26.688-26.688h-38.391
	c-14.715,0-26.688,11.972-26.688,26.688v37.846c-0.008,15.25,7.219,28.556,18.891,37.072v7.351c0.012,5.34-3.234,9.946-8.082,11.856
	l-17.758,6.983c-1.879,0.737-3.676,1.603-5.391,2.569V67.622c0-13.181-10.723-23.903-23.902-23.903h-58.379
	c-3.109,0-5.625,2.515-5.625,5.625c0,3.106,2.516,5.625,5.625,5.625h58.379c6.978,0,12.652,5.676,12.652,12.653v102.253h-11.25
	V74.094c0-4.344-3.531-7.875-7.875-7.875h-73.855c0.855-2.336,1.32-4.856,1.32-7.485V21.819c0-12.03-9.785-21.82-21.816-21.82H33.07
	c-12.031,0-21.82,9.79-21.82,21.82v36.914c0,7.384,3.688,13.914,9.316,17.869v93.272H8.371c-4.617,0-8.371,3.75-8.371,8.362
	c0,8.294,1.738,17.653,6.984,23.544C2.836,203.988,0,208.355,0,213.374v34.5c0,7.239,5.887,13.125,13.125,13.125H22.5v37.375
	c0,3.106,2.52,5.625,5.625,5.625s5.625-2.519,5.625-5.625v-37.375h30.176v37.375c0,3.106,2.515,5.625,5.625,5.625
	c3.105,0,5.625-2.519,5.625-5.625v-37.375h122.929v36.149c0,3.105,2.52,5.625,5.625,5.625c3.109,0,5.625-2.52,5.625-5.625v-69.109
	c0-9.121,7.422-16.54,16.539-16.54h130.316c9.121,0,16.539,7.419,16.539,16.54v70.335c0,3.106,2.52,5.625,5.625,5.625
	S384,301.48,384,298.374v-70.335C384,218.27,378.93,209.672,371.289,204.715 M198.359,77.469v92.406h-35.293v-8.453
	c0-13.382-7.648-25.007-18.796-30.757c4.628-4.609,7.496-10.98,7.496-18.013c0-14.023-11.407-25.428-25.43-25.428
	c-14.02,0-25.43,11.405-25.43,25.428c0,7.033,2.871,13.404,7.5,18.013c-11.148,5.75-18.797,17.375-18.797,30.757v8.453H54.316
	V80.556H69.09l15.09,15.089c2.246,2.247,5.59,2.887,8.484,1.687c2.918-1.207,4.805-4.031,4.805-7.19v-9.586h9.914
	c4.078,0,7.902-1.13,11.172-3.087H198.359z M128.477,138.082c12.867,0,23.339,10.469,23.339,23.34v8.453h-50.957v-8.453
	C100.805,146.431,114.117,138.082,128.477,138.082 M112.156,112.651c0-7.82,6.364-14.178,14.18-14.178
	c7.82,0,14.18,6.358,14.18,14.178c0,7.822-6.36,14.18-14.18,14.18C118.52,126.832,112.156,120.474,112.156,112.651 M22.5,21.819
	c0-5.827,4.742-10.57,10.57-10.57h74.313c5.828,0,10.566,4.743,10.566,10.57v36.914c0,5.828-4.738,10.572-10.566,10.572H95.621
	c-5.183,0-9.402,4.217-9.402,9.401v3.066l-9.711-9.713c-1.778-1.774-4.141-2.754-6.653-2.754H33.07
	c-5.828,0-10.57-4.744-10.57-10.572V21.819z M43.066,80.556v89.319h-11.25V80.517C33.746,80.743,41.281,80.522,43.066,80.556
	 M198.109,228.039v21.71H13.125c-1.035,0-1.875-0.839-1.875-1.875v-34.5c0-1.034,0.84-1.875,1.875-1.875h190.469
	C200.152,216.124,198.109,221.844,198.109,228.039 M210.816,200.07H28.02c-10.336-0.009-17.614-8.949-16.77-18.946h203.353
	C212.004,186.949,210.656,193.426,210.816,200.07 M255.699,58.388c0-8.513,6.926-15.438,15.438-15.438h38.391
	c8.512,0,15.438,6.925,15.438,15.438v33.592c-11.789,2.754-23.871,4.102-35.969,4c-11.203-0.097-22.383-1.444-33.297-3.996V58.388z
	 M256.516,103.681c10.645,2.25,21.5,3.457,32.383,3.549c11.832,0.106,23.668-1.085,35.246-3.535
	c-3.422,15.52-17.277,27.173-33.813,27.173C273.789,130.868,259.93,119.207,256.516,103.681 M312.023,154.668
	c-6.824,2.267-14.023,3.44-21.207,3.397c-7.012-0.022-14.051-1.19-20.727-3.401c3.148-4.292,4.703-9.79,4.5-15.329
	c4.91,1.797,10.215,2.782,15.742,2.782c6.078,0,11.879-1.2,17.191-3.355C307.066,144.375,308.879,150.306,312.023,154.668
	 M360.039,200.52c-3.453-0.555-134.176-0.146-137.973-0.271c-0.672-13.585,7.055-25.245,19.551-30.284
	c0.469-0.188,17.805-7,18.23-7.188c9.711,4.243,20.344,6.5,30.93,6.539c10.773,0.039,21.598-2.222,31.48-6.539
	c0.52,0.228,17.691,6.974,18.238,7.188C352.902,174.844,360.789,187.151,360.039,200.52"/>
</svg>
