<?xml version="1.0" encoding="utf-8"?>
<!-- Generator: Adobe Illustrator 16.0.0, SVG Export Plug-In . SVG Version: 6.00 Build 0)  -->
<!DOCTYPE svg PUBLIC "-//W3C//DTD SVG 1.1//EN" "http://www.w3.org/Graphics/SVG/1.1/DTD/svg11.dtd">
<svg version="1.1" id="Layer_1" xmlns="http://www.w3.org/2000/svg" xmlns:xlink="http://www.w3.org/1999/xlink" x="0px" y="0px"
	 width="77px" height="90px" viewBox="0 0 332.246 369" enable-background="new 0 0 332.246 369" xml:space="preserve">
<path fill="#1575BC" stroke="#1575BC" stroke-width="3" stroke-miterlimit="10" d="M75.215,149.203h80.041l8.178,7.959
	c2.305,2.267,6.006,2.267,8.309,0l8.187-7.959h79.015c8.142-0.011,14.738-6.609,14.749-14.744V22.245
	c-0.011-8.144-6.611-14.741-14.752-14.749h-78.698c-5.371-0.004-10.468,2.361-13.938,6.458c-3.47-4.098-8.565-6.462-13.938-6.458
	H75.215c-8.14,0.007-14.741,6.605-14.753,14.749v112.215C60.474,142.598,67.075,149.195,75.215,149.203 M170.656,25.745
	c0.012-5.28,4.301-9.558,9.586-9.558h78.698c3.342,0.004,6.055,2.713,6.062,6.058v112.215c-0.007,3.342-2.72,6.049-6.062,6.053
	h-80.123c-1.551-0.004-3.045,0.604-4.154,1.686l-2.825,2.754l-1.195-119.207H170.656z M69.153,22.245
	c0.008-3.345,2.716-6.054,6.062-6.058h77.151c2.547,0.004,4.983,1.015,6.783,2.818c1.796,1.799,2.807,4.24,2.803,6.786
	l1.191,118.958l-2.618-2.546c-1.112-1.086-2.603-1.694-4.156-1.69H75.215c-3.346-0.004-6.054-2.711-6.062-6.059V22.245z"/>
<path fill="#1575BC" stroke="#1575BC" stroke-width="3" stroke-miterlimit="10" d="M112.269,38.876h32.489
	c5.793,0,5.793-8.691,0-8.691h-32.489C106.476,30.186,106.476,38.876,112.269,38.876"/>
<path fill="#1575BC" stroke="#1575BC" stroke-width="3" stroke-miterlimit="10" d="M84.128,38.876h12.542
	c5.793,0,5.793-8.691,0-8.691H84.128C78.335,30.186,78.335,38.876,84.128,38.876"/>
<path fill="#1575BC" stroke="#1575BC" stroke-width="3" stroke-miterlimit="10" d="M144.758,58.442h-7.502
	c-5.794,0-5.794,8.691,0,8.691h7.502C150.552,67.133,150.552,58.442,144.758,58.442"/>
<path fill="#1575BC" stroke="#1575BC" stroke-width="3" stroke-miterlimit="10" d="M84.128,67.133h37.56
	c5.794,0,5.794-8.691,0-8.691h-37.56C78.335,58.442,78.335,67.133,84.128,67.133"/>
<path fill="#1575BC" stroke="#1575BC" stroke-width="3" stroke-miterlimit="10" d="M144.758,86.7H99.757
	c-5.794,0-5.794,8.691,0,8.691h45.001C150.552,95.391,150.552,86.7,144.758,86.7"/>
<g>
	<path fill="#1575BC" d="M84.038,93.891c-2.101,0-2.846-1.533-2.846-2.846c0-0.759,0.258-1.485,0.708-1.991
		c0.504-0.567,1.223-0.854,2.138-0.854c2.191,0,2.936,1.533,2.936,2.846c0,0.759-0.258,1.485-0.708,1.991
		c-0.504,0.567-1.224,0.854-2.138,0.854H84.038z"/>
	<path fill="#1575BC" d="M84.128,89.7c0.705,0,0.94,0.264,1.017,0.351c0.206,0.231,0.329,0.603,0.329,0.994
		c0,0.893-0.453,1.346-1.346,1.346h-0.09c-0.705,0-0.94-0.264-1.017-0.351c-0.206-0.231-0.329-0.603-0.329-0.995
		c0-0.893,0.453-1.345,1.346-1.345H84.128 M84.128,86.7h-0.09c-5.794,0-5.794,8.691,0,8.691h0.09
		C89.923,95.391,89.923,86.7,84.128,86.7L84.128,86.7z M84.038,95.391h-0.004H84.038L84.038,95.391z"/>
</g>
<path fill="#1575BC" stroke="#1575BC" stroke-width="3" stroke-miterlimit="10" d="M144.758,114.96h-4.297
	c-5.794,0-5.794,8.691,0,8.691h4.297C150.552,123.651,150.552,114.96,144.758,114.96"/>
<path fill="#1575BC" stroke="#1575BC" stroke-width="3" stroke-miterlimit="10" d="M124.664,114.96H84.128
	c-5.793,0-5.793,8.691,0,8.691h40.536C130.458,123.651,130.458,114.96,124.664,114.96"/>
<path fill="#1575BC" stroke="#1575BC" stroke-width="3" stroke-miterlimit="10" d="M242.166,38.876h6.661
	c5.794,0,5.794-8.691,0-8.691h-6.661C236.372,30.186,236.372,38.876,242.166,38.876"/>
<path fill="#1575BC" stroke="#1575BC" stroke-width="3" stroke-miterlimit="10" d="M188.194,38.876h37.887
	c5.794,0,5.794-8.691,0-8.691h-37.887C182.4,30.186,182.4,38.876,188.194,38.876"/>
<path fill="#1575BC" stroke="#1575BC" stroke-width="3" stroke-miterlimit="10" d="M248.827,58.442H213.34
	c-5.794,0-5.794,8.691,0,8.691h35.487C254.621,67.133,254.621,58.442,248.827,58.442"/>
<path fill="#1575BC" stroke="#1575BC" stroke-width="3" stroke-miterlimit="10" d="M188.194,67.133h9.325
	c5.794,0,5.794-8.691,0-8.691h-9.325C182.4,58.442,182.4,67.133,188.194,67.133"/>
<path fill="#1575BC" stroke="#1575BC" stroke-width="3" stroke-miterlimit="10" d="M248.827,86.7h-11.622
	c-5.794,0-5.794,8.691,0,8.691h11.622C254.621,95.391,254.621,86.7,248.827,86.7"/>
<path fill="#1575BC" stroke="#1575BC" stroke-width="3" stroke-miterlimit="10" d="M188.194,95.391h33.451
	c5.794,0,5.794-8.691,0-8.691h-33.451C182.4,86.7,182.4,95.391,188.194,95.391"/>
<path fill="#1575BC" stroke="#1575BC" stroke-width="3" stroke-miterlimit="10" d="M248.827,114.96H210.05
	c-5.795,0-5.795,8.691,0,8.691h38.777C254.621,123.651,254.621,114.96,248.827,114.96"/>
<path fill="#1575BC" stroke="#1575BC" stroke-width="3" stroke-miterlimit="10" d="M188.194,123.651h6.337
	c5.794,0,5.794-8.691,0-8.691h-6.337C182.4,114.96,182.4,123.651,188.194,123.651"/>
<path fill="#1575BC" stroke="#1575BC" stroke-width="3" stroke-miterlimit="10" d="M167.391,162.01
	c-21.275,0.022-38.513,17.265-38.54,38.54v17.441c0.027,21.275,17.265,38.518,38.54,38.541h0.189
	c21.274-0.023,38.514-17.266,38.539-38.541V200.55c-0.025-21.275-17.265-38.518-38.539-38.54H167.391z M197.428,200.55v17.441
	c-0.019,16.477-13.372,29.831-29.848,29.849h-0.189c-16.477-0.018-29.83-13.372-29.85-29.849V200.55
	c0.02-16.477,13.373-29.83,29.85-29.849h0.189C184.056,170.72,197.409,184.073,197.428,200.55"/>
<path fill="#1575BC" stroke="#1575BC" stroke-width="3" stroke-miterlimit="10" d="M267.695,183.948
	c-18.921,0.023-34.255,15.357-34.277,34.277v15.27c0.022,18.922,15.356,34.256,34.277,34.274h0.162
	c18.92-0.019,34.254-15.353,34.278-34.274v-15.27c-0.024-18.92-15.358-34.254-34.278-34.277H267.695z M293.444,218.226v15.27
	c-0.019,14.122-11.464,25.568-25.587,25.583h-0.162c-14.122-0.015-25.571-11.461-25.586-25.583v-15.27
	c0.015-14.122,11.464-25.571,25.586-25.586h0.162C281.98,192.654,293.426,204.104,293.444,218.226"/>
<path fill="#1575BC" stroke="#1575BC" stroke-width="3" stroke-miterlimit="10" d="M292.06,270.413
	c-2.274-0.139-3.448,1.283-4.576,2.66c-4.823,5.911-12.111,9.26-19.738,9.07c-7.632-0.183-14.745-3.889-19.275-10.025
	c-0.844-1.143-2.189-1.804-3.606-1.766c-6.858,0.151-13.543,2.177-19.336,5.851c-7.544-9.109-18.524-14.692-30.329-15.417
	c-2.293-0.139-3.419,1.23-4.715,2.814c-5.636,6.903-14.146,10.811-23.052,10.592c-8.906-0.218-17.212-4.537-22.5-11.708
	c-0.837-1.147-2.188-1.807-3.607-1.761c-11.187,0.258-21.825,4.906-29.622,12.938c-0.815,0.834-1.581,1.705-2.32,2.596
	c-5.42-3.446-11.626-5.455-18.034-5.844c-2.283-0.139-3.448,1.283-4.577,2.66c-4.823,5.911-12.112,9.26-19.739,9.07
	c-7.63-0.183-14.746-3.889-19.275-10.025c-0.841-1.143-2.188-1.804-3.605-1.766C23.473,270.893,6.989,287.814,7,308.5v33.817
	c0,2.398,1.943,4.346,4.346,4.346h88.139v12.816c0,2.4,1.947,4.346,4.346,4.346h127.31c2.398,0,4.345-1.945,4.345-4.346v-12.816
	h88.008c2.398,0,4.345-1.947,4.345-4.346V308.5C327.831,288.354,312.168,271.681,292.06,270.413 M15.688,337.973V308.5
	c0.083-15.121,11.534-27.759,26.575-29.332c6.329,7.391,15.564,11.652,25.292,11.675c9.729,0.023,18.981-4.198,25.34-11.558
	c4.131,0.551,8.095,1.977,11.626,4.184c-3.315,6.221-5.046,13.165-5.036,20.215v34.289H15.688z M226.794,355.135H108.176v-51.447
	c-0.007-17.763,13.554-32.587,31.244-34.157c7.115,8.45,17.59,13.338,28.639,13.365c11.045,0.022,21.542-4.821,28.695-13.24
	c17.157,2.148,30.031,16.736,30.04,34.032V355.135z M319.146,337.973h-83.661v-34.285c0.004-7.073-1.747-14.033-5.089-20.264
	c3.807-2.373,8.114-3.829,12.58-4.256c6.33,7.391,15.564,11.652,25.292,11.675c9.729,0.023,18.981-4.194,25.345-11.555
	c14.621,1.981,25.53,14.46,25.533,29.212V337.973z"/>
<path fill="#1575BC" stroke="#1575BC" stroke-width="3" stroke-miterlimit="10" d="M66.977,267.77h0.162
	c18.921-0.019,34.255-15.353,34.277-34.274v-15.27c-0.022-18.92-15.356-34.254-34.277-34.277h-0.162
	c-18.92,0.023-34.255,15.357-34.277,34.277v15.27C32.722,252.417,48.056,267.751,66.977,267.77 M41.39,218.226
	c0.019-14.122,11.464-25.571,25.586-25.586h0.162c14.123,0.015,25.571,11.464,25.586,25.586v15.27
	c-0.015,14.122-11.464,25.568-25.586,25.583h-0.162c-14.123-0.015-25.567-11.461-25.586-25.583V218.226z"/>
</svg>
