<?xml version="1.0" encoding="utf-8"?>
<!-- Generator: Adobe Illustrator 16.0.0, SVG Export Plug-In . SVG Version: 6.00 Build 0)  -->
<!DOCTYPE svg PUBLIC "-//W3C//DTD SVG 1.1//EN" "http://www.w3.org/Graphics/SVG/1.1/DTD/svg11.dtd">
<svg version="1.1" id="Layer_1" xmlns="http://www.w3.org/2000/svg" xmlns:xlink="http://www.w3.org/1999/xlink" x="0px" y="0px"
	 width="102px" height="90px" viewBox="0 0 479.017 391.183" enable-background="new 0 0 479.017 391.183"
	 xml:space="preserve">
<path fill="#1575BC" d="M23.945,230.917v48.504c0.027,22.039,17.882,39.891,39.917,39.918h144.333l142.109,68.199
	c8.905,4.266,19.137,4.809,28.444,1.512c9.306-3.293,16.914-10.16,21.146-19.078l24.687-51.895
	c17.849-4.336,30.43-20.289,30.488-38.656V254l20.321-42.681c8.819-18.562,1.004-40.765-17.5-49.707l-2.821-1.347v-56.489
	c-0.027-22.035-17.882-39.89-39.917-39.918H254.188L128.722,3.644c-8.899-4.265-19.137-4.808-28.438-1.511
	C90.98,5.426,83.37,12.292,79.136,21.21L58.585,64.394C38.808,67,24.007,83.828,23.945,103.777v33.399L3.624,179.863
	c-8.816,18.563-1,40.766,17.5,49.707L23.945,230.917z M455.069,178.641c7.7,6.207,10.137,16.882,5.895,25.812l-5.895,12.383V178.641
	z M385.452,363.07c-2.406,5.09-6.734,9.012-12.039,10.895c-5.304,1.887-11.14,1.578-16.215-0.855l-112.101-53.77h161.19
	L385.452,363.07z M439.102,279.421c0,13.227-10.724,23.954-23.949,23.954H151.683v-92.329
	c17.758,17.086,41.453,26.613,66.094,26.582V221.66c-20.497,0.022-40.211-7.887-55-22.078h276.324V279.421z M159.128,178.656
	l15.707-39.476c3.113-7.649,10.992-12.239,19.176-11.161c8.187,1.071,14.617,7.536,15.644,15.727
	c1.032,8.191-3.601,16.047-11.265,19.109L159.128,178.656z M415.152,79.828c13.226,0,23.949,10.723,23.949,23.949v79.84H189.624
	l14.723-5.91c14.488-5.742,23.25-20.563,21.308-36.024c-1.941-15.46-14.101-27.648-29.554-29.632
	c-15.457-1.985-30.297,6.738-36.082,21.211l-8.336,20.925V79.828H415.152z M93.562,28.082c2.402-5.09,6.734-9.012,12.039-10.899
	c5.304-1.882,11.136-1.574,16.218,0.86l95.477,45.816H76.53L93.562,28.082z M39.909,103.777c0-13.226,10.727-23.949,23.953-23.949
	h71.856v68.789l-6.117-15.355c-5.813-14.399-20.617-23.051-36.02-21.051c-15.398,1.996-27.504,14.133-29.453,29.539
	c-1.953,15.402,6.742,30.183,21.156,35.957l14.711,5.91H39.909V103.777z M130.503,178.656l-39.262-15.801
	c-7.738-3.027-12.445-10.914-11.433-19.164c1.008-8.246,7.48-14.761,15.719-15.832c8.242-1.074,16.16,3.571,19.246,11.289
	L130.503,178.656z M39.909,199.582h86.938c-14.793,14.191-34.504,22.101-55,22.078v15.969c23.601,0.023,46.363-8.73,63.871-24.555
	v90.302H63.862c-13.226,0-23.953-10.728-23.953-23.954V199.582z M18.054,186.729l5.891-12.39v38.203
	C16.245,206.335,13.808,195.66,18.054,186.729"/>
</svg>
