<?xml version="1.0" encoding="utf-8"?>
<!-- Generator: Adobe Illustrator 16.0.0, SVG Export Plug-In . SVG Version: 6.00 Build 0)  -->
<!DOCTYPE svg PUBLIC "-//W3C//DTD SVG 1.1//EN" "http://www.w3.org/Graphics/SVG/1.1/DTD/svg11.dtd">
<svg version="1.1" id="Layer_1" xmlns="http://www.w3.org/2000/svg" xmlns:xlink="http://www.w3.org/1999/xlink" x="0px" y="0px"
	 width="220px" height="77px" viewBox="0 0 220 77" enable-background="new 0 0 220 77" xml:space="preserve">
<g>
	<g>
		<defs>
			<rect id="SVGID_1_" y="11.667" width="220" height="63.666"/>
		</defs>
		<clipPath id="SVGID_2_">
			<use xlink:href="#SVGID_1_"  overflow="visible"/>
		</clipPath>
		<g clip-path="url(#SVGID_2_)">
			<g>
				<defs>
					<rect id="SVGID_3_" y="11.667" width="220" height="63.666"/>
				</defs>
				<clipPath id="SVGID_4_">
					<use xlink:href="#SVGID_3_"  overflow="visible"/>
				</clipPath>
				<g clip-path="url(#SVGID_4_)">
					<g opacity="0.5">
						<g>
							<defs>
								<rect id="SVGID_5_" y="11.667" width="220" height="35.801"/>
							</defs>
							<defs>
								<rect id="SVGID_6_" y="11.667" width="220" height="35.801"/>
							</defs>
							<clipPath id="SVGID_7_">
								<use xlink:href="#SVGID_5_"  overflow="visible"/>
							</clipPath>
							<clipPath id="SVGID_8_" clip-path="url(#SVGID_7_)">
								<use xlink:href="#SVGID_6_"  overflow="visible"/>
							</clipPath>
							<path clip-path="url(#SVGID_8_)" fill="#FFFFFF" d="M202.1,12.537H17.9c-9.406,0-17.03,7.625-17.03,17.031
								c0,9.405,7.625,17.03,17.03,17.03h184.2c9.406,0,17.031-7.625,17.031-17.03C219.131,20.162,211.506,12.537,202.1,12.537"/>
							<path clip-path="url(#SVGID_8_)" fill="none" stroke="#000000" stroke-width="3" stroke-miterlimit="10" d="M202.1,12.537
								H17.9c-9.406,0-17.03,7.625-17.03,17.031c0,9.405,7.625,17.03,17.03,17.03h184.2c9.406,0,17.031-7.625,17.031-17.03
								C219.131,20.162,211.506,12.537,202.1,12.537z"/>
						</g>
					</g>
					<g>
						<defs>
							<rect id="SVGID_9_" y="11.667" width="220" height="63.666"/>
						</defs>
						<defs>
							<rect id="SVGID_10_" y="11.667" width="220" height="63.666"/>
						</defs>
						<defs>
							<rect id="SVGID_11_" y="11.667" width="220" height="63.666"/>
						</defs>
						<defs>
							<rect id="SVGID_12_" y="11.667" width="220" height="63.666"/>
						</defs>
						<clipPath id="SVGID_13_">
							<use xlink:href="#SVGID_9_"  overflow="visible"/>
						</clipPath>
						<clipPath id="SVGID_14_" clip-path="url(#SVGID_13_)">
							<use xlink:href="#SVGID_10_"  overflow="visible"/>
						</clipPath>
						<clipPath id="SVGID_15_" clip-path="url(#SVGID_14_)">
							<use xlink:href="#SVGID_11_"  overflow="visible"/>
						</clipPath>
						<clipPath id="SVGID_16_" clip-path="url(#SVGID_15_)">
							<use xlink:href="#SVGID_12_"  overflow="visible"/>
						</clipPath>
						<path clip-path="url(#SVGID_16_)" fill="#0575C1" d="M202.1,12.537h-45.281v34.061H202.1c9.406,0,17.031-7.625,17.031-17.03
							C219.131,20.162,211.506,12.537,202.1,12.537"/>
						<polygon clip-path="url(#SVGID_16_)" points="187.676,62.205 168.766,43.025 167.904,69.946 174.637,64.641 178.383,74.206 
							182.876,72.446 179.131,62.881 						"/>
						<polygon clip-path="url(#SVGID_16_)" fill="none" stroke="#FFFFFF" stroke-width="3" stroke-miterlimit="10" points="
							187.676,62.205 168.766,43.025 167.904,69.946 174.637,64.641 178.383,74.206 182.876,72.446 179.131,62.881 						"/>
						<g clip-path="url(#SVGID_16_)">
							<g opacity="0.5">
								<g>
									<defs>
										<rect id="SVGID_17_" x="12.391" y="24.457" width="119.313" height="10.859"/>
									</defs>
									<clipPath id="SVGID_18_">
										<use xlink:href="#SVGID_17_"  overflow="visible"/>
									</clipPath>
									<g clip-path="url(#SVGID_18_)">
										<text transform="matrix(1 0 0 1 12.3901 31.9683)" font-family="'Inter-Regular'" font-size="8.6972">What do </text>
										<text transform="matrix(1 0 0 1 49.3281 31.9683)" font-family="'Inter-Regular'" font-size="8.6972">y</text>
										<text transform="matrix(1 0 0 1 54.0049 31.9683)" font-family="'Inter-Regular'" font-size="8.6972">ou need help wi</text>
										<text transform="matrix(1 0 0 1 118.9004 31.9683)" font-family="'Inter-Regular'" font-size="8.6972">t</text>
										<text transform="matrix(1 0 0 1 122.1582 31.9683)" font-family="'Inter-Regular'" font-size="8.6972">h?</text>
									</g>
								</g>
							</g>
						</g>
					</g>
					<g>
						<defs>
							<rect id="SVGID_19_" y="11.667" width="220" height="63.666"/>
						</defs>
						<clipPath id="SVGID_20_">
							<use xlink:href="#SVGID_19_"  overflow="visible"/>
						</clipPath>
						<g clip-path="url(#SVGID_20_)">
							<text transform="matrix(1 0 0 1 167.2373 32.5479)" fill="#FFFFFF" font-family="'Inter-Regular'" font-size="9.277">Find tu</text>
							<text transform="matrix(1 0 0 1 197.4404 32.5479)" fill="#FFFFFF" font-family="'Inter-Regular'" font-size="9.277">t</text>
							<text transform="matrix(1 0 0 1 200.7676 32.5479)" fill="#FFFFFF" font-family="'Inter-Regular'" font-size="9.277">or</text>
						</g>
					</g>
				</g>
			</g>
		</g>
	</g>
</g>
</svg>
