<?xml version="1.0" encoding="utf-8"?>
<!-- Generator: Adobe Illustrator 16.0.0, SVG Export Plug-In . SVG Version: 6.00 Build 0)  -->
<!DOCTYPE svg PUBLIC "-//W3C//DTD SVG 1.1//EN" "http://www.w3.org/Graphics/SVG/1.1/DTD/svg11.dtd">
<svg version="1.1" id="Capa_1" xmlns="http://www.w3.org/2000/svg" xmlns:xlink="http://www.w3.org/1999/xlink" x="0px" y="0px"
	 width="27px" height="27px" viewBox="0 0 512 512" enable-background="new 0 0 512 512" xml:space="preserve">
<g>
	<path fill="#FFFFFF" d="M147.682,173.862C172.542,141.158,211.844,120,256,120c36.326,0,70.479,14.146,96.167,39.833l10.606,10.606
		l84.853-84.852L437.02,74.981C388.668,26.629,324.381,0,256,0C187.62,0,123.333,26.629,74.98,74.98
		c-4.389,4.39-8.594,8.914-12.622,13.557L147.682,173.862z"/>
	<path fill="#FFFFFF" d="M423.462,449.642c4.644-4.027,9.168-8.232,13.558-12.622C485.371,388.667,512,324.38,512,256
		c0-15.575-1.41-31.179-4.192-46.377l-2.251-12.299H241v120h136.452c-9.438,18.773-22.937,34.779-39.199,47.109L423.462,449.642z"/>
	<path fill="#FFFFFF" d="M311.602,380.208C294.511,387.831,275.654,392,256,392c-44.156,0-83.458-21.158-108.318-53.861
		l-85.324,85.323c4.028,4.644,8.233,9.168,12.622,13.557C123.333,485.371,187.62,512,256,512
		c51.916,0,101.464-15.363,143.479-43.915L311.602,380.208z"/>
	<path fill="#FFFFFF" d="M131.863,311.531C124.244,294.566,120,275.77,120,256c0-19.77,4.244-38.566,11.863-55.531l-87.948-87.948
		C15.363,154.536,0,204.084,0,256s15.363,101.464,43.915,143.479L131.863,311.531z"/>
</g>
</svg>
