<?xml version="1.0" encoding="utf-8"?>
<!-- Generator: Adobe Illustrator 16.0.0, SVG Export Plug-In . SVG Version: 6.00 Build 0)  -->
<!DOCTYPE svg PUBLIC "-//W3C//DTD SVG 1.1//EN" "http://www.w3.org/Graphics/SVG/1.1/DTD/svg11.dtd">
<svg version="1.1" id="Layer_1" xmlns="http://www.w3.org/2000/svg" xmlns:xlink="http://www.w3.org/1999/xlink" x="0px" y="0px"
	 width="14px" height="12px" viewBox="0 0 394.176 341.453" enable-background="new 0 0 394.176 341.453"
	 xml:space="preserve">
<g>
	<defs>
		<rect id="SVGID_1_" width="394.176" height="341.453"/>
	</defs>
	<clipPath id="SVGID_2_">
		<use xlink:href="#SVGID_1_"  overflow="visible"/>
	</clipPath>
	<path clip-path="url(#SVGID_2_)" fill="#FFFFFF" d="M394.176,106.446C394.176,47.656,346.516,0,287.727,0
		c-38.387,0-71.91,20.387-90.641,50.856C178.359,20.387,144.82,0,106.434,0C47.645,0,0,47.656,0,106.446
		c0,32.007,14.184,60.64,36.535,80.14L187.371,337.43c2.578,2.574,6.07,4.023,9.715,4.023c3.645,0,7.137-1.449,9.715-4.023
		l150.836-150.844C379.992,167.086,394.176,138.453,394.176,106.446"/>
</g>
</svg>
