<?xml version="1.0" encoding="utf-8"?>
<!-- Generator: Adobe Illustrator 16.0.0, SVG Export Plug-In . SVG Version: 6.00 Build 0)  -->
<!DOCTYPE svg PUBLIC "-//W3C//DTD SVG 1.1//EN" "http://www.w3.org/Graphics/SVG/1.1/DTD/svg11.dtd">
<svg version="1.1" id="Layer_1" xmlns="http://www.w3.org/2000/svg" xmlns:xlink="http://www.w3.org/1999/xlink" x="0px" y="0px"
	 width="77px" height="77px" viewBox="0 0 512 511.983" enable-background="new 0 0 512 511.983" xml:space="preserve">
<g>
	<defs>
		<rect id="SVGID_1_" width="512" height="511.983"/>
	</defs>
	<clipPath id="SVGID_2_">
		<use xlink:href="#SVGID_1_"  overflow="visible"/>
	</clipPath>
	<g clip-path="url(#SVGID_2_)">
		<defs>
			<rect id="SVGID_3_" width="512" height="511.983"/>
		</defs>
		<clipPath id="SVGID_4_">
			<use xlink:href="#SVGID_3_"  overflow="visible"/>
		</clipPath>
		<path clip-path="url(#SVGID_4_)" fill="#0575C1" d="M360.005,371.988c-20.952,0-37.999,17.046-37.999,37.998
			s17.047,37.999,37.999,37.999s37.999-17.047,37.999-37.999S380.957,371.988,360.005,371.988"/>
		<path clip-path="url(#SVGID_4_)" d="M468.001,313.99H252.008c-24.261,0-43.998,19.737-43.998,43.999v138.994h-70.015v-58.998
			c0-5.521-4.478-9.999-10-9.999c-5.521,0-9.999,4.478-9.999,9.999v58.998H68.997V391.988c0-43.561,28.174-81.716,93.997-88.997
			c5.489-0.608,0,5.521,0,0c0-0.113-0.013-0.222-0.017-0.333c10.696,6.549,23.262,10.333,36.697,10.333
			c38.863,0,70.48-31.617,70.48-70.48v-23.941c0-38.863-31.617-70.478-70.48-70.478c-38.862,0-70.478,31.616-70.478,70.478v23.941
			c0,19.794,8.213,37.696,21.396,50.51c-53.481,1.281-96.594,45.185-96.594,98.968v109.995c0,5.521,4.478,10,10,10H502
			c5.522,0,10-4.479,10-10V357.989C512,333.728,492.262,313.99,468.001,313.99 M143.347,243.896v-26.713
			c0-31.058,25.268-56.326,56.326-56.326S256,186.125,256,217.183v26.713c0,31.058-25.268,56.326-56.327,56.326
			S143.347,274.956,143.347,243.896 M333.446,494.935l-113.04,2V364.238c0-31.377,21.305-35.2,35.2-35.2h206.798
			c13.895,0,35.199,3.433,35.199,35.2v88.634h-49.088c-5.799,0-10.5,4.702-10.5,10.5c0,5.797,4.701,10.5,10.5,10.5h49.088v23.064
			L333.446,494.935L333.446,494.935z"/>
		<g opacity="0.3" clip-path="url(#SVGID_4_)">
			<g>
				<defs>
					<rect id="SVGID_5_" x="319.863" y="53.998" width="192.137" height="219.994"/>
				</defs>
				<clipPath id="SVGID_6_">
					<use xlink:href="#SVGID_5_"  overflow="visible"/>
				</clipPath>
				<path clip-path="url(#SVGID_6_)" d="M483.009,53.999H374.996c-15.985,0-28.99,13.004-28.99,28.99v94.72l-23.215,23.213
					c-3.904,3.905-3.904,10.237,0,14.143l23.215,23.213v6.723c0,15.985,13.005,28.991,28.99,28.991H483.01
					c15.984,0,28.99-13.006,28.99-28.991V82.989C512,67.004,498.994,53.999,483.009,53.999 M501,249.207
					c0,5.27-4.507,9.559-10.047,9.559H370.247c-5.54,0-10.048-4.289-10.048-9.559v-11.549c0-2.82-1.178-5.524-3.273-7.517
					l-21.312-20.273l21.312-20.273c2.096-1.993,3.273-4.698,3.273-7.517V76.985c0-5.27,4.508-9.558,10.048-9.558h120.706
					c5.54,0,10.047,4.288,10.047,9.558V249.207z"/>
			</g>
		</g>
		<g opacity="0.3" clip-path="url(#SVGID_4_)">
			<g>
				<defs>
					<rect id="SVGID_7_" width="275.991" height="197.993"/>
				</defs>
				<clipPath id="SVGID_8_">
					<use xlink:href="#SVGID_7_"  overflow="visible"/>
				</clipPath>
				<path clip-path="url(#SVGID_8_)" d="M103.997,190.994c0-5.523-3.478-8-9-8H15V14.999h102.972
					c5.527,0,12.024,4.497,12.024,10.025v133.067c0,5.523,2.478,10,8,10s8-4.477,8-10V25.024c0-5.528,6.496-10.025,12.024-10.025
					h102.972v94.011c0,5.522,1.479,9.999,7,9.999s8-4.477,8-9.999V10c0-5.523-4.479-10-10-10H158.02
					c-7.688,0-14.708,2.908-20.024,7.677C132.679,2.907,125.659,0,117.972,0H10C4.478,0,0,4.477,0,10v177.994
					c0,5.522,4.478,10,10,10h84.997C100.519,197.994,103.997,196.516,103.997,190.994"/>
			</g>
		</g>
		<path clip-path="url(#SVGID_4_)" fill="#0575C1" d="M455.218,109.996h-50.323c-5.521,0-10,4.477-10,10c0,5.522,4.479,10,10,10
			h50.323c5.521,0,10-4.478,10-10C465.218,114.473,460.74,109.996,455.218,109.996"/>
		<path clip-path="url(#SVGID_4_)" fill="#0575C1" d="M455.218,153.995h-50.323c-5.521,0-10,4.477-10,10c0,5.522,4.479,10,10,10
			h50.323c5.521,0,10-4.478,10-10C465.218,158.472,460.74,153.995,455.218,153.995"/>
		<path clip-path="url(#SVGID_4_)" fill="#0575C1" d="M455.218,197.994h-50.323c-5.521,0-10,4.477-10,10c0,5.522,4.479,10,10,10
			h50.323c5.521,0,10-4.478,10-10C465.218,202.47,460.74,197.994,455.218,197.994"/>
		<path clip-path="url(#SVGID_4_)" fill="#0575C1" d="M97.144,44.999H46.821c-5.522,0-10,4.477-10,10c0,5.522,4.478,10,10,10h50.323
			c5.522,0,10-4.478,10-10C107.144,49.475,102.667,44.999,97.144,44.999"/>
		<path clip-path="url(#SVGID_4_)" fill="#0575C1" d="M97.144,88.997H46.821c-5.522,0-10,4.477-10,10c0,5.522,4.478,10,10,10h50.323
			c5.522,0,10-4.478,10-10C107.144,93.474,102.667,88.997,97.144,88.997"/>
		<path clip-path="url(#SVGID_4_)" fill="#0575C1" d="M97.144,132.996H46.821c-5.522,0-10,4.477-10,10c0,5.522,4.478,10,10,10
			h50.323c5.522,0,10-4.478,10-10C107.144,137.473,102.667,132.996,97.144,132.996"/>
		<path clip-path="url(#SVGID_4_)" fill="#0575C1" d="M225.14,44.999h-50.323c-5.522,0-10,4.477-10,10c0,5.522,4.478,10,10,10
			h50.323c5.521,0,10-4.478,10-10C235.14,49.475,230.662,44.999,225.14,44.999"/>
		<path clip-path="url(#SVGID_4_)" fill="#0575C1" d="M225.14,88.997h-50.323c-5.522,0-10,4.477-10,10c0,5.522,4.478,10,10,10
			h50.323c5.521,0,10-4.478,10-10C235.14,93.474,230.662,88.997,225.14,88.997"/>
	</g>
</g>
</svg>
