<?xml version="1.0" encoding="utf-8"?>
<!-- Generator: Adobe Illustrator 16.0.0, SVG Export Plug-In . SVG Version: 6.00 Build 0)  -->
<!DOCTYPE svg PUBLIC "-//W3C//DTD SVG 1.1//EN" "http://www.w3.org/Graphics/SVG/1.1/DTD/svg11.dtd">
<svg version="1.1" id="Layer_1" xmlns="http://www.w3.org/2000/svg" xmlns:xlink="http://www.w3.org/1999/xlink" x="0px" y="0px"
	 width="20px" height="20px" viewBox="0 0 20 20" enable-background="new 0 0 20 20" xml:space="preserve">
<g>
	<g>
		<g>
			<path fill="#010101" d="M5.135,18.427H2.369c-0.333,0-0.533-0.186-0.624-0.297c-0.156-0.19-0.217-0.439-0.166-0.683
				c0.812-3.896,4.249-6.739,8.216-6.832c0.066,0.002,0.133,0.004,0.199,0.004c0.068,0,0.135-0.002,0.202-0.004
				c0.969,0.022,1.917,0.205,2.819,0.543c0.404,0.153,0.854-0.053,1.006-0.456c0.151-0.404-0.053-0.855-0.458-1.006
				c-0.129-0.048-0.258-0.093-0.39-0.137c1.292-0.97,2.131-2.514,2.131-4.25c0-2.928-2.383-5.31-5.311-5.31S4.686,2.382,4.686,5.31
				c0,1.737,0.839,3.283,2.134,4.252c-1.188,0.39-2.3,0.996-3.274,1.798c-1.783,1.468-3.025,3.517-3.494,5.769
				c-0.147,0.704,0.029,1.429,0.483,1.987c0.45,0.555,1.12,0.873,1.835,0.873h2.766c0.432,0,0.781-0.35,0.781-0.78
				C5.916,18.777,5.566,18.427,5.135,18.427z M6.246,5.31c0-2.066,1.682-3.748,3.748-3.748c2.067,0,3.748,1.682,3.748,3.748
				c0,2.005-1.582,3.648-3.564,3.744c-0.061-0.001-0.122-0.002-0.184-0.002c-0.061,0-0.122,0.001-0.184,0.002
				C7.829,8.957,6.246,7.315,6.246,5.31z"/>
			<path fill="#010101" d="M19.39,13.453c-0.333-0.747-1.086-1.231-1.918-1.234h-2.435c-0.002,0-0.003,0-0.006,0
				c-0.879,0-1.645,0.52-1.952,1.32c-0.042,0.106-0.092,0.242-0.145,0.399H7.822c-0.211,0-0.414,0.085-0.561,0.236l-1.341,1.383
				c-0.296,0.304-0.296,0.789,0.004,1.09l1.364,1.392c0.148,0.147,0.35,0.232,0.559,0.232h2.537c0.432,0,0.78-0.35,0.78-0.781
				c0-0.431-0.349-0.78-0.78-0.78H8.174l-0.602-0.613l0.58-0.598h5.368c0.359,0,0.673-0.245,0.759-0.596
				c0.063-0.257,0.141-0.506,0.256-0.803c0.077-0.196,0.266-0.319,0.499-0.319h0.001h2.434c0.223,0.001,0.412,0.12,0.498,0.31
				c0.208,0.469,0.459,1.195,0.46,1.99c0.002,0.801-0.248,1.546-0.457,2.028c-0.086,0.192-0.276,0.317-0.491,0.317h-0.001h-2.464
				c-0.218,0-0.419-0.14-0.505-0.344c-0.092-0.223-0.169-0.475-0.24-0.774c-0.101-0.42-0.522-0.678-0.941-0.577
				c-0.42,0.101-0.678,0.521-0.578,0.941c0.09,0.379,0.194,0.707,0.318,1.004c0.327,0.795,1.089,1.311,1.944,1.313h2.464
				c0.002,0,0.004,0,0.005,0c0.834,0,1.587-0.493,1.92-1.258c0.271-0.617,0.592-1.58,0.589-2.654
				C19.986,15.009,19.663,14.061,19.39,13.453z"/>
			<circle fill="#010101" cx="16.828" cy="16.086" r="0.781"/>
		</g>
	</g>
</g>
</svg>
