<?xml version="1.0" encoding="utf-8"?>
<!-- Generator: Adobe Illustrator 16.0.0, SVG Export Plug-In . SVG Version: 6.00 Build 0)  -->
<!DOCTYPE svg PUBLIC "-//W3C//DTD SVG 1.1//EN" "http://www.w3.org/Graphics/SVG/1.1/DTD/svg11.dtd">
<svg version="1.1" id="Layer_1" xmlns="http://www.w3.org/2000/svg" xmlns:xlink="http://www.w3.org/1999/xlink" x="0px" y="0px"
	 width="38px" height="22px" viewBox="0 0 512 294.341" enable-background="new 0 0 512 294.341" xml:space="preserve">
<path fill="#171616" d="M20.683,167.853h470.635c11.422,0,20.683-9.26,20.683-20.683c0-11.421-9.261-20.682-20.683-20.682H20.683
	c-11.424,0-20.684,9.261-20.684,20.682C-0.001,158.593,9.259,167.853,20.683,167.853"/>
<path fill="#171616" d="M364.83,294.341c5.291,0,10.586-2.019,14.625-6.058l126.487-126.488c8.077-8.077,8.077-21.172,0-29.249
	L379.455,6.057c-8.078-8.076-21.174-8.076-29.25,0c-8.078,8.077-8.078,21.172,0,29.249L462.068,147.17L350.205,259.033
	c-8.078,8.078-8.078,21.173,0,29.25C354.242,292.322,359.537,294.341,364.83,294.341"/>
</svg>
