<?xml version="1.0" encoding="utf-8"?>
<!-- Generator: Adobe Illustrator 16.0.0, SVG Export Plug-In . SVG Version: 6.00 Build 0)  -->
<!DOCTYPE svg PUBLIC "-//W3C//DTD SVG 1.1//EN" "http://www.w3.org/Graphics/SVG/1.1/DTD/svg11.dtd">
<svg version="1.1" id="Layer_1" xmlns="http://www.w3.org/2000/svg" xmlns:xlink="http://www.w3.org/1999/xlink" x="0px" y="0px"
	 width="17px" height="20px" viewBox="0 0 17 20" enable-background="new 0 0 17 20" xml:space="preserve">
<path fill="#0659B5" d="M16.491,14.129c-1.27-1.075-1.999-2.644-1.999-4.307V7.479c0-2.957-2.197-5.405-5.042-5.814V0.757
	c0-0.465-0.375-0.84-0.839-0.84c-0.464,0-0.84,0.375-0.84,0.84v0.908c-2.846,0.41-5.042,2.857-5.042,5.814v2.342
	c0,1.664-0.729,3.232-2.006,4.314c-0.327,0.279-0.515,0.686-0.515,1.116c0,0.812,0.66,1.47,1.471,1.47h13.865
	c0.811,0,1.469-0.658,1.469-1.47C17.013,14.821,16.826,14.415,16.491,14.129z"/>
<path fill="#0659B5" d="M8.611,20.083c1.522,0,2.794-1.084,3.086-2.521H5.523C5.816,18.999,7.089,20.083,8.611,20.083z"/>
</svg>
