<?xml version="1.0" encoding="utf-8"?>
<!-- Generator: Adobe Illustrator 16.0.0, SVG Export Plug-In . SVG Version: 6.00 Build 0)  -->
<!DOCTYPE svg PUBLIC "-//W3C//DTD SVG 1.1//EN" "http://www.w3.org/Graphics/SVG/1.1/DTD/svg11.dtd">
<svg version="1.1" id="Layer_1" xmlns="http://www.w3.org/2000/svg" xmlns:xlink="http://www.w3.org/1999/xlink" x="0px" y="0px"
	 width="38px" height="22px" viewBox="0 0 512 294.341" enable-background="new 0 0 512 294.341" xml:space="preserve">
<path fill="#171616" d="M491.317,167.853H20.683C9.261,167.853,0,158.593,0,147.17c0-11.421,9.26-20.682,20.682-20.682h470.635
	c11.424,0,20.684,9.261,20.684,20.682C512.001,158.593,502.741,167.853,491.317,167.853"/>
<path fill="#171616" d="M147.17,294.341c-5.292,0-10.586-2.019-14.625-6.058L6.058,161.795c-8.077-8.077-8.077-21.172,0-29.249
	L132.545,6.057c8.078-8.076,21.173-8.076,29.25,0c8.077,8.077,8.077,21.172,0,29.249L49.932,147.17l111.864,111.863
	c8.077,8.078,8.077,21.173,0,29.25C157.758,292.322,152.463,294.341,147.17,294.341"/>
</svg>
