<?xml version="1.0" encoding="utf-8"?>
<!-- Generator: Adobe Illustrator 16.0.0, SVG Export Plug-In . SVG Version: 6.00 Build 0)  -->
<!DOCTYPE svg PUBLIC "-//W3C//DTD SVG 1.1//EN" "http://www.w3.org/Graphics/SVG/1.1/DTD/svg11.dtd">
<svg version="1.1" id="Layer_1" xmlns="http://www.w3.org/2000/svg" xmlns:xlink="http://www.w3.org/1999/xlink" x="0px" y="0px"
	 width="20px" height="20px" viewBox="0 0 20 20" enable-background="new 0 0 20 20" xml:space="preserve">
<g>
	<g>
		<path fill="#010101" d="M14.347,10.056c-0.385-0.183-0.778-0.341-1.178-0.473c1.295-0.972,2.134-2.52,2.134-4.26
			C15.303,2.388,12.914,0,9.979,0C7.044,0,4.656,2.388,4.656,5.323c0,1.742,0.841,3.292,2.139,4.263
			c-1.189,0.392-2.305,1-3.281,1.803c-1.79,1.472-3.034,3.526-3.504,5.783c-0.147,0.707,0.029,1.434,0.484,1.992
			c0.453,0.557,1.124,0.876,1.841,0.876h9.641c0.433,0,0.783-0.351,0.783-0.783c0-0.432-0.351-0.782-0.783-0.782H2.335
			c-0.334,0-0.536-0.187-0.626-0.298c-0.156-0.192-0.217-0.441-0.166-0.687c0.813-3.902,4.254-6.752,8.229-6.849
			c0.069,0.002,0.139,0.004,0.208,0.004s0.141-0.002,0.209-0.004c1.219,0.029,2.391,0.307,3.485,0.828
			c0.391,0.186,0.858,0.02,1.044-0.371S14.737,10.242,14.347,10.056z M10.17,9.076c-0.063-0.001-0.127-0.001-0.19-0.001
			c-0.063,0-0.126,0-0.189,0.001C7.806,8.977,6.222,7.332,6.222,5.323c0-2.072,1.686-3.757,3.758-3.757s3.758,1.686,3.758,3.757
			C13.737,7.331,12.154,8.977,10.17,9.076z"/>
	</g>
</g>
<g>
	<g>
		<path fill="#010101" d="M19.217,15.54h-2.152v-2.153c0-0.433-0.351-0.783-0.783-0.783c-0.432,0-0.782,0.351-0.782,0.783v2.153
			h-2.153c-0.433,0-0.783,0.351-0.783,0.782c0,0.433,0.351,0.783,0.783,0.783h2.153v2.152c0,0.433,0.351,0.783,0.782,0.783
			c0.433,0,0.783-0.351,0.783-0.783v-2.152h2.152c0.433,0,0.783-0.351,0.783-0.783C20,15.891,19.649,15.54,19.217,15.54z"/>
	</g>
</g>
</svg>
