<?xml version="1.0" standalone="no"?>
<!DOCTYPE svg PUBLIC "-//W3C//DTD SVG 20010904//EN"
 "http://www.w3.org/TR/2001/REC-SVG-20010904/DTD/svg10.dtd">
<svg version="1.0" xmlns="http://www.w3.org/2000/svg"
 width="820.000000pt" height="722.000000pt" viewBox="0 0 820.000000 722.000000"
 preserveAspectRatio="xMidYMid meet">
<metadata>
Created by potrace 1.16, written by Peter Selinger 2001-2019
</metadata>
<g transform="translate(0.000000,722.000000) scale(0.100000,-0.100000)"
fill="#000000" stroke="none">
<path d="M5957 7206 c-65 -18 -117 -61 -150 -127 -24 -45 -28 -63 -25 -111 4
-57 4 -57 -26 -64 -37 -8 -122 -86 -147 -136 -63 -123 25 -302 167 -340 37
-10 44 -16 44 -38 0 -52 63 -113 144 -140 24 -8 62 -10 99 -7 51 5 64 2 89
-16 26 -19 43 -22 126 -22 86 0 104 3 159 29 84 38 147 106 168 180 19 66 12
134 -17 172 l-20 25 20 22 c52 57 77 159 60 242 -20 94 -118 160 -238 158 -26
0 -56 -4 -67 -7 -18 -6 -22 -1 -27 29 -9 48 -65 108 -125 134 -63 27 -171 35
-234 17z m153 -27 c0 -6 6 -9 13 -6 16 6 83 -24 115 -52 24 -21 30 -37 10 -25
-8 4 -10 3 -5 -2 5 -5 14 -9 20 -9 7 0 12 -9 12 -20 0 -11 7 -25 15 -32 20
-15 7 -26 -30 -26 -17 0 -26 -3 -20 -7 6 -4 -6 -22 -30 -44 -39 -36 -47 -71
-10 -44 112 82 114 83 170 83 30 0 66 -4 80 -8 19 -6 21 -6 10 2 -12 9 -11 11
8 11 13 0 20 -4 17 -10 -3 -6 1 -7 9 -4 9 3 16 1 16 -5 0 -6 3 -10 8 -9 8 2
72 -30 72 -37 0 -2 -5 -7 -12 -11 -7 -4 -8 -3 -4 4 11 18 0 14 -15 -5 -10 -11
-10 -14 -1 -9 7 4 12 2 12 -6 0 -9 3 -9 10 2 12 20 26 4 35 -40 4 -26 3 -31
-4 -20 -9 13 -11 13 -11 -2 0 -9 7 -21 15 -26 13 -7 14 -16 5 -59 -15 -70 -97
-157 -158 -168 -43 -7 -49 -21 -19 -43 15 -12 24 -10 62 12 l44 26 15 -22 c40
-61 28 -159 -28 -224 -41 -48 -126 -97 -152 -87 -11 4 -15 3 -11 -4 4 -6 -3
-13 -14 -16 -14 -4 -19 -2 -16 8 4 9 -1 11 -15 7 -13 -3 -16 -7 -8 -12 17 -10
2 -16 -45 -19 -29 -2 -47 4 -64 18 -28 25 -39 27 -21 6 18 -21 -4 -19 -23 3
-15 16 -15 19 3 29 14 10 19 10 23 0 2 -7 3 4 3 24 -1 40 -10 41 -58 6 -15
-11 -35 -21 -45 -22 -10 -1 -26 -6 -36 -10 -39 -17 -177 31 -177 61 0 8 -4 14
-9 14 -13 0 -24 37 -16 50 5 8 12 7 23 -2 12 -10 14 -10 8 -1 -5 9 11 21 49
38 42 18 56 29 53 42 -4 19 -38 20 -49 1 -3 -5 -9 -9 -13 -9 -3 0 -13 -2 -22
-6 -9 -3 -20 0 -26 8 -8 11 -9 10 -4 -3 6 -20 -18 -25 -30 -7 -3 6 -20 9 -37
6 -34 -5 -56 10 -49 33 3 9 -1 8 -10 -4 -15 -19 -15 -19 -34 2 -20 22 -32 38
-49 64 -5 8 -19 28 -30 44 -55 79 12 227 124 274 29 12 34 11 42 -2 22 -39 47
-61 62 -55 9 3 14 13 11 21 -3 9 3 17 16 21 12 4 19 9 17 12 -3 2 -14 0 -26
-6 -17 -9 -22 -8 -33 11 -7 13 -11 26 -10 31 1 4 -3 7 -10 7 -6 0 -8 3 -5 7 4
3 1 13 -6 21 -10 13 -9 15 8 9 19 -7 19 -6 3 7 -24 18 -23 46 3 102 24 50 69
89 126 110 47 16 153 19 153 3z"/>
<path d="M5964 6208 c-4 -6 -13 -81 -20 -167 -6 -86 -12 -156 -13 -157 -1 -1
-22 1 -48 3 -95 9 -134 -31 -114 -117 5 -25 15 -64 22 -87 17 -54 -7 -236 -62
-484 -21 -97 -52 -255 -69 -350 -31 -172 -44 -238 -75 -374 -9 -38 -19 -123
-22 -187 l-6 -117 35 -35 c64 -64 187 -59 233 10 20 29 49 152 141 589 19 94
48 222 64 286 16 64 46 197 65 295 47 234 56 262 104 331 81 115 64 156 -76
193 -48 13 -89 24 -90 25 -1 0 7 68 17 150 11 83 19 161 19 175 -1 56 -20 -18
-42 -165 -20 -136 -24 -150 -42 -150 -13 0 -19 6 -19 18 8 88 15 327 11 327
-3 0 -9 -5 -13 -12z m-29 -357 c6 -3 21 -6 35 -6 22 0 25 -4 22 -32 -3 -43 23
-45 32 -2 5 29 8 30 38 24 63 -13 143 -50 146 -67 6 -32 -31 -40 -132 -29
-113 13 -216 43 -242 72 -19 21 -19 21 5 40 23 19 66 19 96 0z m-95 -76 c61
-45 124 -60 253 -60 64 0 117 -3 117 -6 0 -3 -18 -33 -39 -67 -45 -68 -48 -78
-90 -280 -17 -79 -35 -161 -41 -182 l-10 -39 -43 25 c-35 20 -56 24 -122 24
-49 0 -86 -5 -93 -12 -22 -22 -24 1 -8 74 20 91 66 364 66 394 0 12 -9 41 -20
65 -20 45 -26 89 -12 89 4 0 23 -11 42 -25z m128 -631 c23 -10 42 -21 42 -25
0 -12 -50 -31 -69 -26 -12 3 -19 1 -15 -4 10 -17 -77 -9 -116 11 -44 23 -48
31 -23 55 22 22 120 16 181 -11z m-187 -64 c24 -11 61 -20 81 -20 20 0 39 -4
42 -8 3 -5 27 -6 53 -2 26 5 49 6 51 5 4 -4 -17 -107 -107 -504 -39 -173 -71
-315 -71 -315 0 -1 -43 -2 -96 -3 -75 -2 -101 1 -121 14 -25 16 -25 20 -19 87
6 69 33 224 81 471 29 148 60 295 61 295 1 0 21 -9 45 -20z m-171 -872 c0 -6
6 -8 13 -5 8 3 41 -1 75 -8 34 -7 59 -9 56 -4 -3 5 6 9 21 9 39 0 44 -29 9
-57 -25 -21 -37 -24 -87 -20 -46 3 -63 9 -87 32 -32 30 -42 79 -15 69 8 -4 15
-11 15 -16z"/>
<path d="M4548 5458 c-30 -6 -48 -16 -48 -24 0 -17 4 -17 53 -3 22 6 46 8 54
4 24 -9 -20 -51 -91 -87 -74 -38 -193 -51 -215 -24 -18 22 -6 34 56 55 49 16
66 38 26 33 -29 -4 -111 -40 -119 -53 -3 -6 4 -54 17 -107 21 -86 27 -97 56
-114 37 -22 45 -44 73 -188 10 -58 29 -139 41 -180 49 -165 22 -628 -61 -1035
-5 -27 -13 -106 -16 -175 -7 -125 -7 -126 19 -155 23 -28 30 -30 89 -29 178 3
813 190 1046 308 58 29 73 59 50 99 -30 55 -88 136 -132 184 -26 28 -59 67
-74 86 -85 109 -196 242 -277 332 -51 57 -107 124 -125 150 -50 73 -125 237
-178 395 -27 80 -62 175 -77 212 -25 63 -26 68 -10 92 16 24 16 31 1 98 -9 40
-25 88 -36 106 -22 35 -37 38 -122 20z m113 -89 c7 -17 13 -49 13 -71 1 -32
-4 -44 -24 -59 -24 -18 -240 -79 -280 -79 -22 0 -45 37 -55 90 l-6 35 59 2
c93 2 176 30 225 74 23 21 45 38 48 39 4 0 12 -14 20 -31z m120 -489 c67 -191
126 -308 217 -428 l26 -34 -37 7 c-43 8 -107 -1 -107 -16 0 -6 17 -8 43 -4 50
7 96 -5 111 -28 15 -24 -23 -60 -100 -93 -63 -26 -81 -44 -46 -44 25 0 134 54
154 76 9 10 18 30 20 43 3 21 14 12 88 -76 47 -55 115 -138 151 -184 37 -46
93 -114 126 -151 78 -88 119 -162 105 -192 -37 -83 -946 -370 -1068 -337 -45
12 -67 51 -66 118 1 53 46 359 72 493 15 77 35 381 34 525 0 102 -6 142 -37
270 -20 83 -43 177 -50 210 -8 33 -17 67 -21 76 -8 18 -4 19 167 64 49 13 91
26 95 29 6 7 39 -79 123 -324z"/>
<path d="M4638 3932 c-64 -14 -68 -17 -68 -42 0 -40 22 -54 75 -47 75 11 115
32 115 62 0 18 -7 28 -26 35 -14 6 -26 9 -27 9 -1 -1 -32 -8 -69 -17z"/>
<path d="M4672 3765 c-74 -15 -85 -23 -80 -61 5 -46 44 -53 130 -24 80 27 100
43 96 74 -2 17 -10 21 -43 23 -22 0 -68 -5 -103 -12z"/>
<path d="M2074 4427 c-159 -53 -350 -210 -583 -482 -148 -174 -200 -244 -291
-394 -98 -163 -124 -239 -124 -366 -1 -125 23 -173 114 -227 59 -36 70 -39
121 -36 69 5 115 28 249 127 58 43 123 88 145 101 22 13 65 43 95 66 30 23 64
45 75 48 41 12 147 -32 266 -111 97 -63 97 -64 56 -121 -46 -63 -120 -212
-151 -304 -47 -140 -61 -378 -31 -523 22 -105 89 -330 130 -438 74 -189 195
-376 348 -534 126 -130 195 -179 368 -263 252 -121 393 -149 648 -130 216 16
318 35 480 89 138 47 145 49 176 34 67 -32 175 31 191 111 6 35 12 41 70 68
84 39 92 51 57 75 -54 38 -106 52 -149 42 -57 -15 -66 -15 -70 -4 -2 6 17 22
43 36 41 21 49 30 53 60 4 27 19 47 70 93 147 131 214 219 297 392 140 291
135 634 -14 987 -51 121 -104 207 -216 349 -156 197 -355 314 -647 382 -150
36 -314 31 -539 -15 -51 -10 -97 -19 -101 -19 -4 0 -17 17 -27 38 -11 20 -29
38 -39 40 -11 2 -45 -9 -77 -22 -31 -14 -57 -23 -57 -20 0 3 20 34 46 69 52
73 65 123 39 148 -9 9 -20 17 -24 17 -5 0 -46 -25 -92 -54 -75 -49 -88 -54
-124 -50 -52 7 -105 -26 -119 -75 -7 -23 -24 -44 -54 -65 -63 -43 -200 -153
-242 -192 l-35 -34 -58 56 c-83 78 -122 163 -122 264 0 73 3 80 83 253 87 186
115 282 101 346 -18 88 -146 192 -243 198 -28 1 -69 -3 -92 -10z m277 -138
c21 -11 49 -69 49 -102 0 -36 -18 -83 -108 -275 -45 -95 -84 -188 -88 -207 -8
-45 -21 -36 -30 21 -4 31 -2 58 9 85 19 47 4 52 -19 7 -32 -61 -24 -130 30
-253 27 -60 58 -123 69 -139 20 -28 20 -29 1 -39 -31 -17 -93 -85 -114 -126
-10 -21 -26 -41 -34 -44 -9 -4 -53 12 -98 33 -151 73 -257 73 -322 1 -25 -28
-15 -27 30 4 26 18 50 25 82 25 l45 0 -42 -30 c-22 -17 -71 -50 -109 -75 -37
-24 -113 -80 -170 -123 -101 -78 -172 -112 -232 -112 -92 0 -109 130 -41 324
43 122 200 383 286 476 18 19 52 62 76 95 58 80 136 162 239 250 207 176 395
254 491 204z m-473 -88 l43 -38 -38 -26 c-21 -14 -62 -51 -92 -81 l-54 -55
-40 35 c-23 19 -44 34 -49 34 -21 0 -1 25 78 94 48 42 92 76 98 76 6 -1 30
-18 54 -39z m-267 -227 c19 -14 40 -29 48 -33 11 -7 5 -20 -27 -64 -23 -31
-46 -58 -52 -62 -6 -4 -24 5 -41 19 -17 14 -34 26 -37 26 -4 0 -13 4 -21 9
-11 7 -4 22 35 69 27 34 52 61 55 61 3 1 21 -11 40 -25z m-108 -145 c26 -17
47 -36 47 -42 0 -9 -89 -129 -115 -155 -1 -2 -23 11 -48 28 -25 16 -50 30 -56
30 -6 0 -11 3 -11 6 0 9 123 163 131 164 3 0 27 -14 52 -31z m1378 -180 c25
-13 80 -89 73 -100 -8 -14 -121 -89 -133 -89 -19 0 -65 84 -65 119 0 60 71
100 125 70z m889 -114 c177 -26 414 -124 550 -226 83 -63 127 -111 199 -220
20 -30 53 -78 73 -105 74 -101 162 -307 182 -429 l7 -40 -21 35 c-32 52 -95
104 -148 123 -98 35 -351 59 -392 37 -16 -8 -22 -6 -36 15 -16 25 -16 27 6 50
13 14 44 34 70 46 35 16 50 29 58 53 18 49 15 69 -23 141 -43 81 -85 128 -150
170 -49 32 -196 90 -265 106 -48 11 -108 -6 -146 -43 -47 -44 -100 -60 -144
-42 -19 8 -36 19 -38 24 -2 6 -10 10 -18 10 -8 0 -14 5 -14 10 0 5 -3 9 -7 8
-5 -1 -24 3 -43 9 -87 28 -172 34 -274 19 -54 -9 -103 -13 -109 -9 -6 3 -7 1
-4 -4 4 -6 -10 -13 -34 -17 -63 -10 -80 -22 -77 -56 1 -16 5 -28 8 -27 3 0 19
-7 37 -16 18 -9 38 -17 45 -17 21 0 89 -60 82 -72 -4 -6 -2 -8 3 -5 15 9 22
-37 13 -79 -5 -19 -4 -32 1 -28 5 3 9 1 9 -5 0 -6 20 -30 44 -54 60 -58 64
-81 31 -163 -47 -117 -34 -219 39 -297 30 -33 71 -50 100 -41 11 3 37 23 56
45 l35 40 53 -12 c46 -11 57 -10 90 6 50 25 248 39 315 23 73 -18 96 -5 129
72 27 64 28 65 64 64 32 -1 44 -9 82 -53 27 -32 67 -63 103 -81 65 -34 89 -61
89 -105 0 -16 7 -43 15 -59 8 -15 15 -33 15 -40 -1 -15 -69 -90 -102 -111 -37
-23 -35 -40 7 -86 44 -49 55 -89 30 -103 -10 -6 -35 -25 -54 -41 -20 -17 -53
-38 -74 -48 -55 -25 -151 -106 -176 -148 -31 -54 -28 -109 9 -149 18 -20 30
-43 30 -60 0 -33 14 -40 82 -40 34 0 58 -6 74 -19 24 -19 22 -31 -5 -31 -51
-1 -266 -119 -358 -197 -53 -45 -66 -76 -41 -101 13 -13 11 -14 -57 -31 -22
-6 -82 -11 -132 -11 -91 0 -93 0 -99 26 -4 14 -17 30 -31 35 -21 8 -23 12 -13
24 7 8 20 15 29 15 28 0 41 20 28 41 -16 26 -6 31 77 37 64 4 79 9 105 32 34
31 49 75 34 99 -19 29 -173 90 -231 90 -67 1 -84 -8 -116 -64 -15 -25 -32 -46
-39 -47 -7 0 -25 -2 -42 -4 -16 -1 -64 -7 -106 -12 -87 -10 -170 -2 -223 23
-39 19 -61 48 -53 69 6 14 80 36 122 36 41 0 82 26 90 57 9 38 51 80 92 94 59
19 70 103 29 211 -36 96 -111 240 -138 266 -50 46 -153 56 -224 20 -37 -18
-48 -19 -69 -10 -65 30 -115 2 -115 -65 0 -44 -16 -83 -36 -83 -44 0 -166 132
-149 161 5 7 4 10 -3 5 -14 -8 -32 54 -32 110 0 23 -11 75 -25 115 -13 41 -29
97 -35 124 -17 75 -34 97 -75 94 -19 -2 -37 -1 -40 3 -8 8 33 113 93 239 43
90 66 122 146 209 120 129 259 248 361 308 128 75 245 110 500 152 139 23 177
23 295 5z m-1033 -12 c7 -10 22 -34 33 -54 l19 -37 -57 -37 c-31 -21 -89 -69
-129 -108 l-72 -69 -45 37 c-25 21 -46 39 -46 42 0 25 113 129 229 210 55 38
51 37 68 16z m-381 -199 c61 -45 145 -127 159 -155 24 -45 19 -96 -11 -126
-22 -22 -32 -25 -74 -21 -39 4 -67 18 -149 73 -121 82 -135 96 -128 127 8 31
63 96 101 119 35 21 56 18 102 -17z m367 10 c-3 -8 2 -29 11 -47 l17 -32 -106
-110 c-175 -182 -234 -278 -296 -485 -62 -209 -48 -503 37 -760 73 -222 183
-403 322 -530 96 -89 286 -213 363 -238 202 -66 291 -76 482 -57 86 8 193 22
238 31 l82 15 21 -26 21 -27 69 36 c38 20 70 36 71 36 2 0 6 -7 9 -16 8 -20
-32 -36 -189 -79 -201 -55 -231 -59 -400 -60 -119 0 -182 5 -245 19 -277 60
-431 144 -609 332 -97 102 -169 210 -249 369 -73 146 -103 230 -148 403 -31
120 -34 146 -34 270 1 241 49 427 147 561 l40 55 52 -3 c47 -2 54 0 85 31 39
39 55 96 39 139 -10 25 -7 33 25 70 37 44 128 119 143 119 4 0 6 -7 2 -16z
m662 -84 c23 -5 74 -28 114 -51 99 -58 131 -57 243 4 48 26 98 47 113 47 15 0
66 -12 114 -27 185 -57 311 -171 311 -281 0 -46 -12 -64 -69 -106 -80 -59 -91
-119 -27 -150 29 -14 45 -14 112 -5 69 10 93 9 187 -9 60 -12 123 -29 140 -40
34 -19 124 -131 157 -194 14 -25 20 -57 20 -98 0 -81 -18 -240 -36 -320 -16
-69 -102 -273 -138 -326 -45 -66 -256 -274 -278 -274 -4 0 -12 16 -18 35 -6
19 -25 46 -42 61 -27 22 -39 25 -87 22 l-56 -3 3 28 c2 22 -7 39 -37 73 -55
58 -54 85 3 140 25 23 74 59 111 80 37 20 91 60 121 89 48 46 54 56 54 93 0
40 -5 48 -50 85 l-22 19 41 39 c22 22 41 43 41 48 0 4 11 14 24 21 35 18 39
36 16 80 -11 22 -20 59 -20 83 0 51 -10 62 -88 101 -29 15 -77 51 -106 81 -38
37 -65 56 -90 60 -63 12 -85 0 -111 -60 -31 -68 -52 -81 -111 -65 -26 8 -62
10 -87 6 -129 -21 -211 -29 -284 -31 -78 -1 -85 -3 -115 -32 -69 -65 -88 -64
-151 6 -52 57 -56 94 -23 209 32 110 30 144 -17 211 -17 24 -40 80 -53 124
-25 91 -47 118 -121 152 -29 13 -53 27 -53 30 0 12 60 28 155 40 127 16 160
17 210 5z m-1087 -205 c58 -31 58 -28 9 -106 -65 -105 -82 -148 -111 -288 -39
-186 -31 -439 19 -586 14 -38 29 -94 36 -124 42 -200 284 -587 452 -724 118
-96 267 -168 467 -223 78 -22 123 -27 257 -31 140 -5 176 -2 270 17 92 18 289
73 345 95 13 5 22 -3 38 -35 12 -23 19 -44 16 -47 -11 -11 -375 -112 -443
-124 -98 -16 -395 -16 -463 1 -150 36 -328 119 -530 248 -70 44 -241 216 -304
305 -62 87 -156 256 -189 338 -29 73 -110 364 -126 453 -6 33 -11 126 -11 207
0 163 13 227 85 404 39 99 122 235 143 235 7 0 25 -7 40 -15z m150 -494 c7
-21 12 -53 12 -71 0 -18 12 -58 26 -88 15 -31 30 -88 35 -128 12 -92 31 -146
69 -194 32 -41 101 -80 140 -80 36 0 70 38 70 77 0 41 30 74 59 66 12 -3 24
-9 27 -14 9 -16 41 -10 90 16 34 18 63 25 102 25 49 0 58 -3 86 -34 32 -33
101 -154 116 -204 5 -15 18 -53 29 -85 26 -70 20 -102 -23 -124 -26 -13 -72
-57 -150 -145 -8 -9 -39 -19 -72 -24 -45 -5 -65 -13 -86 -35 -52 -52 -34 -81
72 -119 72 -26 103 -28 274 -16 l118 8 17 31 c42 80 72 90 186 61 72 -18 115
-51 115 -87 0 -35 -16 -44 -95 -57 -119 -19 -148 -29 -142 -50 3 -14 -1 -20
-17 -22 -17 -2 -21 -11 -24 -50 -3 -46 0 -53 43 -83 28 -19 15 -26 -57 -32
-142 -12 -384 47 -512 124 -135 81 -320 240 -357 307 -12 23 -36 62 -54 87
-75 106 -168 360 -189 519 -17 127 -25 304 -15 353 15 78 25 95 56 100 15 2
31 5 34 6 3 0 11 -16 17 -38z m1797 -1317 c18 -7 41 -48 66 -119 15 -43 15
-53 3 -76 -13 -27 -58 -49 -98 -49 -35 0 -63 27 -101 98 l-35 67 22 17 c17 14
112 65 125 68 1 0 9 -3 18 -6z"/>
<path d="M2085 3978 c-39 -14 -99 -52 -154 -97 -55 -44 -211 -219 -211 -234 1
-7 19 9 41 36 23 26 50 47 60 47 10 0 19 4 19 10 0 5 33 44 73 87 56 60 88 83
144 110 88 41 115 42 141 6 25 -34 42 -22 21 15 -12 22 -22 27 -59 29 -25 1
-58 -3 -75 -9z"/>
<path d="M7842 4100 c-29 -33 -57 -72 -63 -87 -18 -51 -364 -325 -432 -344
-43 -11 -90 -4 -124 18 -28 18 -65 11 -95 -19 -11 -11 -118 -104 -237 -206
-119 -101 -242 -210 -274 -241 -55 -53 -60 -55 -70 -36 -7 11 -26 34 -43 52
-29 29 -38 33 -87 33 -39 0 -61 -6 -80 -20 -14 -11 -39 -20 -55 -20 -17 0 -32
-5 -34 -11 -2 -6 -34 3 -79 25 -42 20 -79 36 -83 36 -4 0 -25 -39 -48 -86 -29
-62 -37 -89 -29 -97 6 -6 37 -25 68 -41 43 -23 59 -38 64 -60 5 -16 17 -38 28
-50 10 -11 22 -41 26 -66 6 -45 6 -45 -38 -72 -24 -16 -48 -28 -52 -28 -4 0
-23 14 -42 30 -37 33 -48 35 -88 20 -36 -14 -61 -44 -175 -213 -73 -108 -100
-157 -100 -180 0 -19 24 -72 62 -141 55 -99 99 -164 281 -414 75 -103 74 -96
16 -132 -33 -20 -55 -28 -61 -22 -5 5 -11 35 -12 65 -4 78 -52 172 -132 257
-72 76 -130 107 -221 116 -55 6 -61 4 -115 -32 -65 -43 -78 -66 -78 -136 0
-42 -3 -49 -16 -44 -50 19 -288 87 -336 96 -68 13 -93 4 -141 -47 -38 -40 -64
-115 -53 -156 3 -13 18 -32 33 -43 35 -25 218 -104 242 -104 10 0 28 12 42 26
31 33 59 28 204 -38 155 -71 224 -111 272 -159 75 -74 109 -177 70 -216 -15
-16 -23 -14 -119 19 -186 64 -305 106 -402 142 -105 40 -206 63 -248 58 -40
-5 -81 -51 -101 -114 -31 -98 -33 -95 113 -182 100 -59 134 -67 175 -40 22 14
27 14 72 -6 79 -35 349 -134 488 -179 72 -23 168 -59 215 -79 84 -37 85 -38
90 -77 8 -53 14 -61 68 -89 69 -35 201 -59 324 -60 105 -1 107 -1 139 29 17
17 41 50 52 74 18 42 19 62 16 299 l-4 253 50 18 c91 33 259 121 330 174 39
28 109 91 156 139 223 223 362 469 398 698 6 41 14 89 17 107 4 25 11 34 38
43 53 17 112 75 145 142 58 115 37 239 -52 312 -71 57 -105 70 -179 68 -61 -1
-68 1 -83 24 -9 14 -15 27 -13 28 2 1 19 14 38 29 26 19 39 23 52 16 22 -12
53 3 69 32 8 16 7 30 -5 60 -9 22 -13 51 -10 64 12 50 360 351 476 411 33 18
70 41 82 53 12 12 27 21 33 21 7 0 15 9 18 20 5 14 -5 36 -32 74 -57 81 -232
266 -252 266 -9 0 -40 -27 -69 -60z m47 -27 c7 -13 5 -23 -7 -37 -16 -18 -16
-18 6 -11 18 5 31 1 53 -21 16 -15 29 -32 29 -37 0 -4 11 -23 25 -41 14 -18
22 -36 18 -39 -3 -4 -2 -7 4 -7 6 0 14 -7 17 -16 5 -14 4 -15 -8 -5 -11 9 -15
8 -20 -6 -6 -13 -25 2 -101 77 l-94 94 27 32 c32 38 38 40 51 17z m-35 -140
c88 -87 157 -213 116 -213 -5 0 -10 -7 -10 -16 0 -10 -6 -14 -15 -11 -8 4 -17
1 -21 -5 -5 -7 -2 -8 7 -4 15 8 -28 -31 -78 -70 -25 -20 -36 -23 -51 -15 -24
13 -53 -11 -31 -25 7 -4 9 -3 5 4 -7 12 20 10 31 -3 4 -4 3 -5 -3 -2 -6 3 -22
-4 -34 -16 -13 -12 -30 -22 -38 -23 -18 -3 -23 -9 -26 -31 -2 -10 -8 -18 -14
-18 -6 0 -20 -11 -31 -24 -12 -14 -27 -21 -36 -18 -8 4 -14 1 -12 -6 2 -14
-43 -10 -58 5 -7 7 -3 8 13 3 23 -7 25 -2 23 40 0 11 2 14 5 8 5 -12 34 -19
34 -9 0 30 -49 53 -51 24 0 -10 -2 -10 -6 0 -8 21 -30 13 -61 -22 -17 -19 -34
-32 -38 -28 -4 4 -1 -4 8 -18 9 -14 21 -24 27 -23 6 2 8 -4 5 -12 -4 -8 -1
-15 5 -15 6 0 12 -10 12 -22 1 -19 2 -19 6 -5 3 12 11 16 21 13 12 -5 11 -1
-4 11 -11 10 -28 30 -37 44 -15 25 -15 28 2 43 20 18 41 21 41 6 0 -5 -4 -10
-9 -10 -18 0 -21 -33 -5 -51 13 -15 20 -16 31 -8 7 7 17 9 20 5 4 -4 3 -10 -3
-14 -6 -4 -13 -15 -17 -25 -4 -11 -12 -15 -19 -11 -8 5 -9 2 -5 -10 5 -11 3
-15 -5 -10 -8 5 -9 2 -5 -9 12 -31 -2 -18 -22 21 -11 20 -50 69 -88 107 -38
39 -86 91 -107 117 -41 51 -40 52 24 62 32 6 65 28 275 188 16 13 61 51 100
85 38 35 72 63 75 63 3 0 28 -21 54 -47z m-605 -305 c103 -103 248 -298 236
-318 -3 -5 -1 -11 5 -15 5 -3 10 0 10 7 0 7 8 1 18 -14 9 -16 20 -28 24 -28 4
0 4 -7 1 -17 -4 -10 -2 -14 5 -9 6 3 13 2 16 -3 3 -5 -3 -11 -14 -14 -11 -3
-18 -1 -15 3 3 5 -4 14 -16 20 -14 8 -19 18 -16 31 3 10 1 17 -3 14 -17 -10
-50 28 -44 51 4 14 0 23 -11 28 -10 3 -13 11 -9 18 5 8 1 7 -10 -2 -17 -13
-21 -11 -48 20 -17 19 -62 69 -102 110 -108 114 -119 128 -113 144 11 27 42
17 86 -26z m-69 -51 c61 -56 279 -317 313 -373 4 -7 -40 -48 -106 -102 -62
-50 -130 -108 -152 -129 -47 -46 -311 -257 -344 -275 -21 -11 -25 -10 -43 12
-10 14 -65 80 -121 148 -107 129 -157 208 -157 249 0 14 9 38 20 53 35 49 512
460 534 460 6 0 31 -19 56 -43z m-770 -379 c31 -70 117 -376 106 -373 -36 7
-63 27 -79 56 -10 19 -35 46 -57 62 -23 16 -43 41 -50 62 -10 31 -40 50 -40
25 0 -5 7 -10 15 -10 13 0 12 -4 -5 -22 -15 -16 -23 -19 -32 -10 -8 8 -7 18 6
37 10 15 20 38 22 52 3 14 14 43 24 64 11 21 20 45 20 53 0 17 26 46 41 46 6
0 19 -19 29 -42z m93 -20 c22 -17 137 -417 137 -477 0 -28 -4 -41 -9 -35 -15
15 -86 202 -129 340 -58 183 -58 184 -35 184 11 0 27 -6 36 -12z m895 -141 c9
-10 1 -23 -33 -57 -61 -60 -99 -148 -92 -212 8 -60 42 -122 95 -170 38 -35 62
-45 150 -68 46 -12 47 -16 32 -85 l-9 -40 1 45 c0 66 -1 72 -12 65 -5 -3 -10
-27 -10 -52 0 -25 -14 -85 -30 -135 -34 -101 -154 -337 -206 -405 -47 -62 -58
-83 -42 -83 32 1 216 331 270 485 24 67 27 72 22 35 -17 -121 -138 -365 -247
-498 -75 -91 -238 -251 -313 -307 -67 -49 -263 -143 -318 -152 -33 -5 -34 -5
-41 38 -6 38 -22 85 -49 150 -6 13 7 23 58 47 120 56 385 259 477 364 149 172
209 295 209 434 0 48 -6 74 -30 121 -44 88 -102 111 -195 78 -22 -8 -43 -15
-46 -15 -12 0 -50 81 -47 102 2 13 43 54 110 107 59 47 142 116 184 154 80 69
94 76 112 54z m256 -89 c25 -12 43 -25 40 -29 -2 -4 4 -10 13 -13 10 -3 24
-15 31 -26 10 -17 10 -20 -3 -20 -8 0 -15 6 -15 14 0 7 -9 16 -20 19 -17 4
-20 0 -20 -24 0 -16 -4 -29 -10 -29 -5 0 -10 -8 -10 -17 0 -10 -5 -25 -11 -33
-8 -12 -9 -10 -4 7 5 18 3 22 -9 17 -9 -4 -18 0 -22 10 -3 9 -10 13 -15 10 -5
-3 -6 2 -3 10 3 8 -2 16 -13 19 -10 3 1 3 25 0 37 -5 42 -3 42 15 0 26 -29 36
-50 17 -9 -8 -22 -15 -28 -15 -7 0 -21 -9 -33 -21 l-21 -21 33 6 34 6 -30 -12
c-16 -6 -36 -20 -43 -30 -7 -10 -18 -16 -23 -13 -5 4 -9 -3 -9 -15 0 -12 -4
-18 -10 -15 -6 4 -9 -10 -9 -37 1 -27 3 -34 6 -18 3 14 9 30 15 35 10 10 8 -7
-8 -70 -4 -15 -3 -16 4 -6 5 7 14 11 20 7 6 -4 8 2 5 14 -7 26 -1 25 23 -2 10
-12 13 -18 7 -14 -8 4 -13 1 -13 -8 0 -9 5 -16 10 -16 6 0 10 -7 10 -15 0 -8
-7 -15 -16 -15 -8 0 -12 5 -9 10 3 6 2 10 -4 10 -5 0 -18 3 -28 7 -13 4 -11
-2 10 -24 32 -35 36 -54 5 -27 -20 17 -21 18 -15 1 6 -17 6 -17 -18 0 -13 10
-25 22 -25 28 0 5 5 4 12 -3 7 -7 17 -12 23 -12 5 0 1 7 -9 15 -14 10 -23 12
-32 4 -9 -7 -12 -6 -10 8 2 11 11 17 22 16 11 -1 14 0 7 3 -7 3 -10 11 -7 19
3 7 0 23 -6 35 -10 18 -9 24 1 31 7 4 10 12 5 16 -5 4 -11 2 -13 -4 -7 -19
-23 -16 -24 5 0 14 -2 14 -8 -3 -5 -12 -4 -23 2 -27 14 -8 15 -78 1 -78 -6 0
-9 14 -7 33 2 24 1 27 -5 13 -14 -31 -22 -4 -12 39 5 22 6 42 1 45 -10 7 -9
50 1 44 4 -3 9 -13 9 -22 1 -9 5 -1 8 18 l7 35 12 -45 12 -45 -5 49 c-6 59
-12 67 -31 42 -8 -11 -14 -17 -14 -12 0 18 67 96 90 104 20 7 29 4 48 -15 26
-26 18 -32 -10 -6 -16 14 -22 14 -43 3 -19 -10 -22 -16 -13 -22 9 -5 9 -8 2
-8 -7 0 -14 -7 -17 -14 -4 -10 -1 -13 9 -9 9 3 14 -2 14 -16 0 -12 -4 -21 -10
-21 -5 0 -10 5 -10 12 0 6 -3 9 -6 5 -16 -16 8 -43 38 -44 20 0 24 1 10 4 -18
4 -21 9 -15 31 3 15 10 29 15 30 12 5 10 30 -4 35 -7 2 -10 8 -6 12 4 4 21 -3
38 -15 23 -16 38 -20 61 -15 23 5 28 9 18 16 -10 6 -5 9 16 9 17 0 37 5 45 11
11 8 6 9 -20 5 -23 -4 -28 -3 -16 2 12 5 16 11 9 15 -15 9 -45 -2 -37 -14 3
-5 -10 -9 -28 -9 l-33 1 40 18 c22 11 41 20 42 20 1 1 23 -9 47 -21z m-1257
-134 c23 -40 27 -84 8 -84 -5 0 -4 -4 4 -9 9 -6 10 -11 2 -15 -11 -7 -15 5
-12 32 2 10 -6 8 -25 -5 -27 -17 -27 -17 -43 7 -9 14 -28 39 -43 56 -35 39
-35 45 0 65 38 22 80 5 109 -47z m1374 12 c7 -95 -38 -187 -115 -240 -28 -19
-51 -26 -85 -26 -25 0 -41 4 -34 8 7 5 9 13 3 21 -10 17 27 51 47 44 7 -3 13
2 13 12 0 9 -4 14 -8 11 -4 -2 -8 4 -8 15 0 14 6 19 21 17 13 -2 19 2 17 11
-2 10 4 12 21 7 24 -6 24 -4 21 42 -4 37 -2 42 5 24 6 -12 8 -30 5 -40 -5 -14
-4 -15 5 -1 6 9 7 29 2 50 -8 36 -5 59 9 59 12 0 5 -97 -10 -137 -12 -32 -30
-45 -30 -21 0 6 -9 0 -21 -13 -11 -13 -16 -25 -10 -27 6 -2 11 -8 11 -14 0 -6
-7 -7 -16 -4 -8 3 -12 2 -9 -4 3 -5 0 -7 -7 -5 -15 6 -56 -20 -47 -29 7 -7 65
20 99 47 24 19 24 19 3 13 -17 -6 -22 -4 -17 7 3 8 15 13 29 12 18 -2 22 1 18
13 -4 10 -2 13 5 8 16 -10 43 46 31 65 -12 18 -12 59 0 59 5 0 12 -10 14 -22
4 -21 4 -20 6 3 0 16 -5 29 -14 33 -25 9 -17 23 15 23 23 0 30 -5 31 -21z
m-1522 -22 c27 -19 71 -108 71 -144 0 -19 -13 -33 -58 -62 l-57 -38 -7 40 c-9
51 -31 83 -73 106 -19 10 -34 22 -32 27 2 7 116 85 127 86 3 1 16 -6 29 -15z
m-239 -5 c0 -14 -66 -113 -130 -194 -26 -33 -54 -73 -63 -90 -17 -33 -74 -91
-82 -84 -9 10 16 77 43 116 15 21 50 73 79 115 28 41 67 92 86 112 33 35 67
48 67 25z m52 -34 c0 -6 -9 -14 -19 -20 -27 -15 -33 -26 -33 -67 0 -21 -4 -38
-10 -38 -18 0 -11 -67 11 -94 15 -19 29 -26 52 -25 34 1 70 -6 87 -16 6 -4 23
1 37 11 26 17 27 16 50 -12 28 -35 28 -42 3 -74 -11 -14 -20 -30 -20 -35 0
-14 88 -99 118 -114 13 -7 35 -13 49 -14 21 -2 35 -16 66 -66 l39 -65 -11 -71
c-9 -64 -80 -304 -101 -345 -11 -21 -41 -13 -71 19 -49 51 -176 218 -214 282
-21 35 -64 102 -95 149 -92 138 -170 274 -170 296 0 12 15 40 33 64 68 91 109
147 143 198 32 48 55 63 56 37z m765 -77 l23 -32 -36 -37 c-35 -36 -44 -78
-18 -86 5 -2 39 22 74 52 l64 55 31 -30 c37 -36 45 -36 101 -9 62 29 130 24
158 -14 32 -43 28 -135 -8 -207 -110 -216 -235 -340 -533 -530 -99 -63 -124
-75 -160 -75 -29 0 -49 6 -63 21 l-21 20 41 131 c22 72 40 144 40 160 0 18
-17 57 -45 99 -24 38 -45 76 -45 84 0 25 106 146 152 173 73 43 124 105 138
167 8 37 21 62 38 76 31 26 40 23 69 -18z m-431 -217 c86 -62 87 -75 21 -139
-27 -26 -40 -32 -57 -27 -30 10 -100 74 -100 92 0 18 70 103 86 103 6 0 29
-13 50 -29z m864 -166 c-42 -126 -192 -318 -339 -433 -128 -101 -274 -200
-328 -223 -43 -18 -53 -19 -110 -8 -89 18 -89 18 -69 82 l17 55 45 -19 c69
-31 71 -30 394 187 126 85 252 217 327 344 35 58 66 121 70 140 8 35 8 35 11
-13 2 -30 -5 -73 -18 -112z m-1527 -267 c48 -40 101 -92 118 -115 17 -24 35
-43 41 -43 5 0 6 -9 3 -20 -4 -12 -2 -20 5 -20 7 0 9 -9 5 -22 -20 -68 -20
-65 3 -45 24 22 37 8 18 -19 -12 -15 -16 -16 -30 -5 -9 7 -25 11 -35 8 -17 -4
-20 1 -23 35 l-3 40 -12 -31 c-6 -17 -7 -29 -2 -25 5 3 9 0 9 -5 0 -6 -6 -11
-14 -11 -8 0 -18 -5 -21 -10 -4 -7 3 -9 22 -5 26 5 27 5 4 -5 -34 -15 -76 0
-153 54 -117 82 -178 175 -164 250 10 52 29 66 90 66 51 0 56 -3 139 -72z
m320 -34 c-6 -16 15 -46 27 -39 5 3 7 -3 5 -12 -3 -21 13 -45 25 -38 5 3 18
-8 30 -25 19 -26 19 -31 6 -36 -9 -3 -13 -11 -10 -16 4 -6 10 -5 14 3 11 17
41 -7 33 -27 -4 -10 0 -12 11 -8 18 7 19 4 10 -20 -5 -13 -9 -14 -20 -5 -18
14 -18 0 0 -23 13 -18 32 -25 22 -9 -8 13 4 42 15 36 4 -3 5 -13 2 -22 -4 -10
-2 -14 4 -10 10 7 28 -20 25 -36 -1 -4 9 -12 23 -17 30 -12 34 -24 4 -15 -15
5 -19 4 -15 -4 4 -6 13 -11 21 -11 8 0 17 -5 21 -11 4 -8 -1 -9 -16 -4 -15 5
-20 4 -16 -4 4 -6 2 -11 -3 -11 -6 0 -11 5 -11 10 0 6 -12 22 -27 36 -16 14
-22 23 -15 19 6 -3 12 -4 12 -1 0 2 3 12 7 21 5 15 3 16 -16 5 -25 -13 -39 -1
-62 52 -6 16 -16 25 -23 21 -6 -3 -8 -3 -4 2 10 11 -11 47 -23 40 -5 -4 -9 -3
-10 2 -4 43 -7 54 -14 60 -4 5 -5 0 -2 -9 4 -10 4 -18 1 -18 -3 0 -10 13 -15
30 -6 16 -15 28 -19 25 -4 -3 -6 4 -3 15 3 11 -1 27 -8 36 -10 13 -10 17 0 24
9 5 10 10 2 14 -6 4 -11 13 -11 19 0 7 7 4 15 -6 7 -11 11 -25 8 -33z m-897
10 c55 -14 143 -39 196 -56 85 -27 100 -35 121 -67 31 -44 67 -83 131 -138 27
-24 45 -43 41 -43 -49 0 -561 202 -617 243 -34 25 -47 65 -27 78 22 14 50 11
155 -17z m-158 -64 c44 -35 351 -167 545 -235 180 -63 236 -96 252 -151 12
-42 61 -120 89 -143 26 -22 20 -69 -13 -102 -16 -16 -39 -29 -50 -29 -18 0
-20 5 -14 49 7 64 -28 143 -93 207 -54 52 -267 161 -411 210 l-82 29 -21 -28
c-12 -15 -30 -27 -40 -27 -24 0 -200 76 -218 94 -10 10 -9 21 7 57 22 47 26
69 13 69 -5 0 -15 -19 -22 -42 -11 -33 -15 -38 -18 -22 -3 22 22 94 33 94 3 0
23 -13 43 -30z m1494 -346 c64 -33 93 -123 109 -343 6 -84 9 -186 7 -227 -3
-64 -7 -77 -32 -103 -43 -45 -85 -56 -158 -41 -59 11 -478 146 -648 208 -47
17 -139 49 -205 72 -156 54 -482 203 -529 242 -28 23 -36 37 -34 57 3 23 8 26
48 29 31 2 73 -7 130 -27 206 -72 341 -121 415 -151 44 -17 150 -50 235 -72
168 -44 208 -45 278 -9 82 42 112 101 109 213 -2 54 2 72 19 95 53 71 173 98
256 57z m-288 -59 c-8 -21 -16 -63 -16 -94 1 -64 -14 -121 -31 -121 -6 0 -57
19 -114 42 l-103 42 42 20 c24 12 70 42 103 67 65 50 127 90 132 85 2 -2 -4
-20 -13 -41z m-1239 -66 c-5 -16 3 -30 37 -62 53 -51 346 -188 598 -280 209
-76 706 -243 785 -263 80 -21 168 -14 201 17 l24 22 0 -38 c0 -60 -40 -120
-95 -140 -50 -19 -110 -16 -271 14 -120 23 -157 45 -164 97 -3 21 -9 44 -13
50 -10 17 -240 110 -407 164 -160 52 -345 122 -402 151 -46 23 -86 24 -110 3
-16 -16 -23 -14 -103 27 -48 24 -100 55 -117 69 l-30 26 13 58 c7 32 21 69 32
82 23 30 30 31 22 3z m1083 -134 c88 -36 92 -38 77 -56 -26 -28 -79 -49 -125
-49 -50 0 -130 19 -130 31 0 5 4 9 9 9 14 0 51 65 51 90 0 14 5 20 13 17 6 -3
54 -22 105 -42z"/>
<path d="M7814 3727 c-17 -12 -29 -26 -28 -32 2 -5 -1 -17 -6 -25 -7 -12 -12
-12 -22 -2 -17 17 -33 15 -19 -2 9 -10 8 -15 -3 -19 -8 -3 -17 -3 -19 1 -2 4
-2 1 0 -6 2 -9 -3 -11 -15 -8 -11 3 -32 -8 -57 -31 -29 -26 -32 -31 -12 -19
29 18 44 16 32 -3 -3 -6 -13 -11 -21 -11 -8 0 -14 -5 -14 -11 0 -6 -9 -9 -20
-6 -11 3 -25 -2 -32 -11 -11 -13 -11 -14 1 -7 8 4 30 9 50 11 25 2 31 1 21 -6
-17 -11 -13 -15 20 -23 19 -5 29 -1 38 13 14 22 6 50 -14 50 -13 0 -16 4 -18
32 -1 14 72 20 80 6 3 -4 9 -6 14 -3 5 3 18 1 29 -5 14 -7 22 -7 26 0 4 6 1 9
-7 8 -7 -2 -14 7 -16 20 -3 20 0 23 20 20 15 -2 23 -9 22 -21 -2 -24 10 -21
32 8 10 14 24 25 31 25 7 0 10 7 7 15 -4 8 -10 15 -15 15 -5 0 -9 -7 -9 -15 0
-8 -4 -15 -10 -15 -5 0 -10 7 -10 16 0 10 -6 14 -15 10 -8 -3 -15 -1 -15 4 0
5 -8 6 -17 3 -16 -6 -16 -5 -4 10 10 12 18 14 31 7 10 -6 25 -10 32 -9 7 0 0
5 -16 11 -21 8 -25 13 -15 19 8 5 10 9 4 8 -5 0 -24 -10 -41 -22z"/>
<path d="M6158 2339 c-12 -6 -18 -22 -18 -45 0 -50 71 -126 113 -122 64 6 61
58 -7 131 -46 49 -59 54 -88 36z"/>
<path d="M5552 2093 c-1 -6 -9 -19 -18 -27 -9 -9 -11 -16 -4 -16 6 0 8 -5 5
-10 -4 -6 -10 -8 -15 -5 -4 3 -7 -2 -6 -11 1 -8 8 -19 15 -23 7 -5 12 -11 12
-15 -6 -44 14 -66 21 -23 3 19 6 17 21 -17 20 -45 22 -61 3 -27 -10 18 -15 20
-21 10 -5 -8 -4 -14 3 -17 7 -2 10 -7 7 -12 -3 -5 3 -7 12 -6 9 2 19 8 21 14
2 8 11 7 28 -4 31 -21 31 -38 -1 -30 -14 4 -25 2 -25 -4 0 -5 7 -10 16 -10 8
0 12 -5 9 -10 -7 -12 20 -42 29 -33 3 4 6 2 6 -3 0 -6 18 -11 40 -12 38 -3 53
9 30 23 -5 3 -10 1 -10 -4 0 -6 -8 -11 -17 -10 -10 0 -13 3 -6 5 7 3 10 11 7
19 -3 7 2 15 13 17 13 3 5 13 -34 38 -29 18 -53 38 -53 44 0 6 -7 23 -14 38
-14 26 -13 30 17 62 30 31 31 35 15 45 -9 6 -24 8 -33 5 -8 -3 -15 -1 -15 5 0
6 -7 11 -15 11 -17 0 -20 -27 -5 -50 7 -12 12 -12 29 4 11 10 26 16 33 13 8
-3 2 -9 -15 -18 -18 -8 -30 -23 -34 -41 -5 -25 -7 -26 -18 -11 -7 9 -10 25 -7
36 3 13 1 18 -6 13 -7 -4 -12 6 -15 26 -2 18 -5 28 -5 21z"/>
<path d="M6349 1567 c-79 -53 -102 -138 -53 -197 97 -115 254 -54 254 100 0
52 -39 97 -95 110 -58 14 -68 12 -106 -13z m146 -39 c36 -42 40 -70 17 -121
-38 -87 -107 -99 -178 -32 -34 32 -36 38 -31 80 2 25 13 55 23 67 47 52 128
55 169 6z"/>
<path d="M6374 1496 c-35 -35 -42 -63 -24 -97 8 -15 21 -19 60 -19 41 0 52 4
69 26 26 33 27 85 3 107 -30 27 -70 21 -108 -17z"/>
<path d="M1547 2212 c-10 -10 -17 -24 -17 -30 0 -7 -16 -12 -40 -12 -59 0
-161 -37 -216 -79 -28 -21 -71 -70 -101 -115 -77 -114 -71 -151 27 -187 33
-12 59 -23 57 -25 -1 -2 -44 -12 -95 -23 -64 -14 -118 -34 -175 -65 l-83 -46
-37 38 c-20 21 -37 42 -37 47 0 5 12 19 27 31 l27 21 -22 35 c-20 32 -40 48
-61 48 -11 0 -205 -150 -214 -165 -4 -9 5 -27 28 -50 l35 -37 35 21 c20 11 40
21 44 21 5 0 21 -16 36 -35 l26 -36 -46 -52 c-59 -65 -101 -125 -136 -196 -26
-52 -28 -54 -28 -26 -2 69 -61 102 -166 90 -113 -12 -237 -93 -277 -180 -9
-21 -18 -25 -54 -25 -57 0 -74 -8 -74 -35 0 -28 22 -53 54 -61 20 -5 24 -13
29 -65 6 -71 34 -122 111 -202 77 -80 177 -121 239 -98 32 12 71 88 82 159 9
55 18 45 39 -40 9 -37 36 -109 61 -161 40 -84 55 -105 138 -183 95 -91 215
-167 283 -180 19 -3 36 -9 39 -13 2 -4 5 -54 6 -111 1 -58 6 -117 11 -132 10
-28 47 -46 67 -34 23 15 91 131 111 190 l21 65 47 6 c194 27 423 136 538 257
40 41 131 171 166 236 15 28 22 32 57 32 77 0 191 22 216 42 56 44 19 84 -112
118 -48 13 -89 24 -91 25 -2 2 -5 15 -7 31 -30 192 -114 389 -204 482 -66 68
-150 136 -196 160 l-40 20 65 0 c56 0 67 3 85 24 19 22 21 33 15 89 -12 112
-89 244 -181 312 -27 20 -39 36 -39 54 0 57 -40 82 -73 45z m4 -82 c24 -11 41
-20 36 -20 -4 0 4 -18 18 -40 14 -22 25 -44 25 -50 0 -5 5 -10 11 -10 5 0 7 5
4 10 -3 6 -1 10 5 10 7 0 9 -16 4 -49 -4 -31 -2 -51 5 -55 7 -5 9 2 5 21 -4
23 -1 30 18 38 13 6 22 17 20 25 -3 11 0 11 13 0 8 -7 13 -15 10 -18 -3 -3 4
-12 15 -19 11 -8 18 -19 15 -24 -4 -5 -1 -9 4 -9 6 0 10 -8 9 -17 -3 -38 2
-64 12 -58 6 3 10 3 10 -2 0 -9 -80 -36 -87 -30 -2 2 10 10 27 17 34 14 40 30
10 30 -22 0 -27 16 -8 22 9 3 8 9 -5 22 -21 22 -22 30 -1 22 9 -4 14 -1 12 6
-2 6 -13 13 -24 14 -17 3 -19 -3 -18 -45 0 -26 4 -53 8 -59 4 -7 5 -12 2 -12
-2 0 -11 -3 -20 -6 -9 -3 -16 -1 -16 6 0 6 4 9 8 6 5 -3 6 9 3 27 l-5 32 -5
-29 c-8 -42 -28 -45 -24 -4 3 33 3 33 -8 6 -14 -36 -23 -38 -110 -23 -41 7
-143 15 -226 17 l-151 3 23 45 c60 119 194 216 301 219 18 1 51 -8 75 -19z
m207 -349 c50 -26 59 -39 39 -59 -21 -21 -118 -18 -209 5 -62 16 -68 20 -68
43 0 34 10 47 40 52 38 6 153 -18 198 -41z m-328 -56 c204 -42 393 -202 506
-430 66 -133 86 -239 64 -347 -34 -177 -199 -389 -395 -507 -146 -88 -329
-132 -473 -113 -128 17 -249 80 -355 186 -70 69 -90 97 -134 186 -72 147 -86
207 -81 355 4 106 8 129 37 200 78 194 172 288 416 414 138 71 260 87 415 56z
m-937 -362 c4 -3 1 -13 -7 -22 -19 -21 -77 -344 -79 -442 -1 -55 -6 -79 -14
-79 -9 0 -13 16 -13 49 l0 49 -39 7 c-23 4 -48 2 -60 -4 -30 -16 -50 -12 -21
4 24 14 24 14 3 15 -12 0 -25 -4 -28 -10 -4 -6 -15 -4 -30 6 -20 13 -22 20
-15 39 9 24 -9 53 -23 38 -12 -11 -8 -25 5 -17 7 4 8 3 4 -4 -4 -6 -14 -9 -24
-6 -15 5 -15 4 1 -9 15 -13 15 -15 2 -20 -8 -4 -14 -3 -13 1 1 4 -3 17 -10 29
-6 12 -9 36 -7 55 3 18 8 50 10 70 9 75 64 156 138 203 51 32 203 66 220 48z"/>
<path d="M1167 1579 c-54 -13 -134 -48 -193 -85 -70 -44 -168 -154 -204 -228
-88 -180 -36 -451 118 -617 120 -131 244 -183 432 -184 127 0 163 11 283 88
63 40 189 180 229 253 53 99 55 269 3 381 -33 73 -120 197 -176 252 -54 53
-167 117 -242 137 -58 15 -191 17 -250 3z m190 -19 c134 -22 275 -103 344
-197 61 -84 119 -187 134 -237 20 -67 19 -158 -4 -244 -15 -58 -30 -86 -84
-155 -37 -47 -86 -102 -109 -122 -59 -50 -170 -103 -246 -117 -95 -18 -224 2
-326 51 -255 120 -395 481 -280 718 50 104 195 235 295 268 42 14 166 41 204
44 6 0 38 -4 72 -9z"/>
<path d="M1160 1531 c-154 -35 -278 -135 -350 -282 l-41 -84 4 -115 c4 -128
24 -199 84 -302 44 -76 126 -159 183 -185 120 -55 174 -66 290 -60 103 5 115
8 192 47 63 31 98 57 146 108 78 82 103 124 138 227 23 69 26 91 21 160 -7
105 -23 148 -93 245 -98 137 -222 222 -357 246 -93 17 -126 16 -217 -5z m333
-54 c109 -51 219 -163 279 -283 38 -78 42 -91 41 -162 -1 -177 -109 -356 -273
-452 -184 -109 -448 -66 -600 96 -126 135 -177 323 -135 489 29 112 145 249
255 303 81 39 149 52 265 48 80 -3 100 -7 168 -39z"/>
<path d="M1020 1391 c0 -16 11 -42 24 -58 27 -32 216 -320 216 -329 0 -3 -34
-68 -75 -144 -76 -140 -87 -170 -61 -170 21 0 71 68 125 170 41 78 50 89 61
75 17 -21 50 -19 50 3 -1 9 -7 28 -14 42 -12 21 -12 29 1 53 11 22 12 32 2 43
-10 13 -15 13 -34 0 -22 -14 -24 -13 -61 42 -20 31 -63 91 -94 132 -31 41 -69
96 -85 122 -34 55 -55 62 -55 19z"/>
</g>
</svg>
