<?xml version="1.0" encoding="utf-8"?>
<!-- Generator: Adobe Illustrator 16.0.0, SVG Export Plug-In . SVG Version: 6.00 Build 0)  -->
<!DOCTYPE svg PUBLIC "-//W3C//DTD SVG 1.1//EN" "http://www.w3.org/Graphics/SVG/1.1/DTD/svg11.dtd">
<svg version="1.1" id="Layer_1" xmlns="http://www.w3.org/2000/svg" xmlns:xlink="http://www.w3.org/1999/xlink" x="0px" y="0px"
	 width="41px" height="34px" viewBox="0 0 279.84 232" enable-background="new 0 0 279.84 232" xml:space="preserve">
<path fill="#FFFFFF" d="M115.75,231.5c-38.214,0-72.168-18.621-93.257-47.258c-0.337-0.363-0.634-0.771-0.88-1.211
	C8.017,164.058,0,140.819,0,115.75c0-25.071,8.017-48.313,21.613-67.285c0.246-0.442,0.543-0.844,0.88-1.207
	C43.582,18.617,77.536,0,115.75,0c46.29,0,88.036,27.472,106.352,69.992c1.398,3.246-0.098,7.012-3.344,8.41
	c-3.25,1.399-7.012-0.098-8.41-3.344c-2.418-5.613-5.293-10.925-8.574-15.914c-12.652,3.953-26.035,7.012-39.832,9.129
	c2.414,12.817,3.832,26.703,4.16,41.074h9.27c3.535,0,6.402,2.868,6.402,6.403s-2.867,6.398-6.402,6.398h-9.27
	c-0.625,27.616-5.29,53.445-13.285,73.313C143.461,218.699,130.296,231.5,115.75,231.5 M85.108,174.125
	c7.352,27.707,19.404,44.574,30.641,44.574c11.243,0,23.293-16.871,30.645-44.59C126.227,172.015,105.263,172.019,85.108,174.125
	 M38.046,183.215c13.321,15.316,31.086,26.679,51.265,32.043c-3.91-5.359-7.483-11.989-10.627-19.797
	c-2.438-6.055-4.567-12.664-6.365-19.707C60.503,177.527,49.003,180.027,38.046,183.215 M12.997,122.148
	c1.136,18.457,7.159,35.613,16.785,50.188c12.64-3.946,25.999-6.996,39.778-9.11c-2.415-12.815-3.833-26.707-4.162-41.077H12.997z
	 M78.2,122.148c0.336,14.383,1.788,27.629,4.054,39.409c22.027-2.414,44.973-2.418,66.997-0.015
	c2.262-11.778,3.715-25.016,4.051-39.391H78.2V122.148z M78.2,109.347h75.097c-0.332-14.378-1.789-27.628-4.051-39.41
	c-22.04,2.418-44.954,2.418-66.993,0C79.993,81.719,78.536,94.969,78.2,109.347 M12.997,109.347h52.401
	c0.329-14.371,1.747-28.257,4.158-41.074c-13.775-2.113-27.134-5.168-39.774-9.113C20.156,73.738,14.133,90.894,12.997,109.347
	 M85.108,57.375c20.164,2.105,41.118,2.105,61.282,0c-7.352-27.715-19.403-44.574-30.641-44.574
	C104.513,12.801,92.46,29.664,85.108,57.375 M142.188,16.238c3.909,5.359,7.483,11.988,10.628,19.797
	c2.438,6.059,4.566,12.668,6.363,19.711c11.848-1.777,23.371-4.285,34.352-7.484C180.043,32.719,162.152,21.531,142.188,16.238
	 M38.046,48.285c10.957,3.187,22.457,5.684,34.273,7.461c1.798-7.043,3.927-13.652,6.365-19.711
	c3.144-7.805,6.717-14.434,10.625-19.797C69.133,21.605,51.368,32.965,38.046,48.285 M167.301,231.054
	c-0.523,0-1.047-0.062-1.57-0.194c-0.52-0.134-1.016-0.328-1.477-0.578c-1.004-0.543-1.813-1.324-2.383-2.242
	c-0.438-0.695-0.742-1.485-0.883-2.324c-0.121-0.719-0.121-1.469,0.016-2.215c0.09-0.488,0.234-0.957,0.426-1.403l12.207-30.082
	c5.625-13.858,15.742-32.28,38.582-32.28h16.27c22.836,0,32.957,18.422,38.578,32.277l12.27,30.234
	c1.329,3.277-0.25,7.008-3.523,8.336c-0.031,0.015-0.066,0.027-0.098,0.039c-0.004,0-0.004,0.004-0.008,0.004
	c0,0-0.004,0.004-0.008,0.004s-0.008,0.004-0.016,0.004l-0.004,0.004c-0.004,0-0.012,0.003-0.015,0.003
	c-0.021,0.009-0.036,0.017-0.056,0.021v0.004c-0.004,0-0.012,0-0.016,0.004h-0.004c-0.004,0.004-0.008,0.004-0.012,0.004
	c-0.004,0.004-0.008,0.004-0.012,0.004l-0.004,0.003c-0.766,0.274-1.559,0.388-2.332,0.375H167.477H167.301z M176.805,218.254
	h87.098l-8.695-21.426c-6.91-17.027-14.898-24.293-26.715-24.293h-16.273c-11.816,0-19.809,7.266-26.719,24.293L176.805,218.254z
	 M220.352,149.527c-15.441,0-28.004-12.563-28.004-28.004s12.563-28.004,28.004-28.004s28.004,12.563,28.004,28.004
	S235.793,149.527,220.352,149.527 M220.352,106.32c-8.383,0-15.203,6.82-15.203,15.204c0,8.383,6.82,15.202,15.203,15.202
	s15.203-6.819,15.203-15.202C235.555,113.14,228.734,106.32,220.352,106.32"/>
</svg>
