<?xml version="1.0" encoding="utf-8"?>
<!-- Generator: Adobe Illustrator 16.0.0, SVG Export Plug-In . SVG Version: 6.00 Build 0)  -->
<!DOCTYPE svg PUBLIC "-//W3C//DTD SVG 1.1//EN" "http://www.w3.org/Graphics/SVG/1.1/DTD/svg11.dtd">
<svg version="1.1" id="Layer_1" xmlns="http://www.w3.org/2000/svg" xmlns:xlink="http://www.w3.org/1999/xlink" x="0px" y="0px"
	 width="47px" height="29px" viewBox="0 0 383.96 239.882" enable-background="new 0 0 383.96 239.882"
	 xml:space="preserve">
<path fill="#FFFFFF" d="M85.269,209.882h-7.32c-9.922,0-18,8.075-18,18v6c0,3.317,2.683,6,6,6h119.965c3.32,0,6-2.683,6-6v-6
	c0-9.925-8.075-18-18-18h-7.321l-2.992-11.976h70.266c9.922,0,18-8.078,18-18V18c0-9.922-8.078-18-18-18H18C8.074,0,0,8.078,0,18
	v161.906c0,9.922,8.074,18,18,18h70.265L85.269,209.882z M77.949,221.882h95.965c3.312,0,6,2.688,6,6H71.949
	C71.949,224.57,74.636,221.882,77.949,221.882 M154.234,209.882H97.628l2.997-11.976h50.617L154.234,209.882z M18,12h215.871
	c3.312,0,6,2.687,6,6v143.906H12V18C12,14.687,14.687,12,18,12 M12,179.906v-6h114.05c-3.308,0-5.961,2.68-5.961,6
	c0,3.314,2.711,6,6.028,6c3.312,0,6-2.686,6-6c0-3.32-2.688-6-6-6h113.754v6c0,3.312-2.688,6-6,6H18
	C14.687,185.906,12,183.218,12,179.906"/>
<path fill="#FFFFFF" d="M365.96,0h-84.003c-9.926,0-18,8.078-18,18v203.882c0,9.922,8.074,18,18,18h84.003c9.926,0,18-8.078,18-18
	V18C383.96,8.07,375.886,0,365.96,0 M275.957,35.976h96.003v5.988h-96.003V35.976z M281.957,12h84.003c3.313,0,6,2.687,6,6v5.976
	h-96.003V18C275.957,14.687,278.644,12,281.957,12 M365.96,227.882h-84.003c-3.313,0-6-2.688-6-6V53.964h96.003v167.918
	C371.96,225.194,369.273,227.882,365.96,227.882"/>
<path fill="#FFFFFF" d="M323.96,125.964c9.926,0,18-8.074,18-18c0-9.921-8.074-18-18-18c-9.921,0-18,8.079-18,18
	C305.96,117.89,314.039,125.964,323.96,125.964 M323.96,101.964c3.313,0,6,2.688,6,6c0,3.313-2.687,6-6,6c-3.308,0-6-2.687-6-6
	C317.96,104.652,320.652,101.964,323.96,101.964"/>
<path fill="#FFFFFF" d="M347.96,161.976h-48c-3.316,0-6,2.685-6,6c0,3.32,2.684,6,6,6h48c3.321,0,6-2.68,6-6
	C353.96,164.66,351.281,161.976,347.96,161.976"/>
<path fill="#FFFFFF" d="M347.96,179.976h-48c-3.316,0-6,2.685-6,6c0,3.32,2.684,6,6,6h48c3.321,0,6-2.68,6-6
	C353.96,182.66,351.281,179.976,347.96,179.976"/>
<path fill="#FFFFFF" d="M347.96,197.976h-48c-3.316,0-6,2.685-6,6c0,3.32,2.684,6,6,6h48c3.321,0,6-2.68,6-6
	C353.96,200.66,351.281,197.976,347.96,197.976"/>
</svg>
