<?xml version="1.0" encoding="utf-8"?>
<!-- Generator: Adobe Illustrator 16.0.0, SVG Export Plug-In . SVG Version: 6.00 Build 0)  -->
<!DOCTYPE svg PUBLIC "-//W3C//DTD SVG 1.1//EN" "http://www.w3.org/Graphics/SVG/1.1/DTD/svg11.dtd">
<svg version="1.1" id="Layer_1" xmlns="http://www.w3.org/2000/svg" xmlns:xlink="http://www.w3.org/1999/xlink" x="0px" y="0px"
	 width="42px" height="46px" viewBox="0 0 38.88 43" enable-background="new 0 0 38.88 43" xml:space="preserve">
<path fill="#FFFFFF" d="M8.152,14.688c-0.593-0.024-1.351,0.031-2.281,0.172c-0.926,0.144-1.82,0.464-2.683,0.968
	c-0.864,0.504-1.61,1.25-2.243,2.243C0.316,19.059,0,20.406,0,22.106c0,1.312,0.195,2.413,0.578,3.304
	c0.387,0.887,0.914,1.598,1.586,2.125c0.668,0.528,1.441,0.887,2.316,1.082c0.879,0.191,1.805,0.25,2.786,0.172
	c0.824-0.078,1.593-0.246,2.316-0.504c0.723-0.254,1.441-0.668,2.164-1.234c0.258,0.539,0.566,0.98,0.926,1.313
	c0.363,0.336,0.801,0.504,1.316,0.504c0.254,0,0.532-0.078,0.828-0.23c0.297-0.155,0.575-0.362,0.832-0.621
	c0.258-0.258,0.457-0.53,0.598-0.832c0.145-0.293,0.199-0.582,0.176-0.866l-0.039-0.079c-0.207-0.925-0.348-1.719-0.426-2.375
	c-0.078-0.656-0.117-1.371-0.117-2.144v-1.582c0-0.594,0.015-1.149,0.039-1.664c0.027-0.336,0.039-0.656,0.039-0.965v-1.234
	c0-0.387-0.008-0.871-0.02-1.453c-0.011-0.579-0.097-1.176-0.25-1.793c-0.156-0.622-0.394-1.223-0.714-1.817
	c-0.325-0.594-0.782-1.121-1.372-1.586c-0.593-0.461-1.347-0.832-2.261-1.101c-0.914-0.27-2.028-0.368-3.34-0.289
	C7.059,8.285,6.207,8.422,5.41,8.641C4.609,8.86,3.891,9.156,3.246,9.528c-0.644,0.375-1.187,0.812-1.625,1.316
	c-0.437,0.5-0.719,1.062-0.848,1.68c0.024,0.359,0.063,0.566,0.118,0.617c0.129,0.285,0.281,0.594,0.461,0.93
	c0.179,0.332,0.425,0.5,0.734,0.5h0.039c0.156,0.027,0.375,0.031,0.656,0.019c0.285-0.012,0.516-0.07,0.696-0.176
	c0.101-0.051,0.207-0.121,0.308-0.211c0.106-0.09,0.207-0.175,0.313-0.25c0.308-0.257,0.726-0.543,1.254-0.851
	c0.527-0.309,1.371-0.5,2.531-0.578c0.719-0.028,1.305,0.035,1.758,0.191c0.449,0.156,0.797,0.367,1.043,0.637
	c0.246,0.269,0.41,0.574,0.504,0.91c0.085,0.332,0.132,0.656,0.132,0.965c-0.359-0.129-0.793-0.239-1.293-0.328
	C9.523,14.809,8.898,14.738,8.152,14.688 M11.281,19.75c0.051,0.129,0.09,0.289,0.117,0.485c0.028,0.191,0.04,0.402,0.04,0.636
	c0,0.41-0.051,0.856-0.157,1.332c-0.101,0.477-0.32,0.934-0.656,1.371c-0.437,0.336-0.934,0.618-1.488,0.852
	c-0.555,0.23-1.192,0.349-1.91,0.349c-0.93,0-1.657-0.255-2.184-0.755c-0.527-0.504-0.793-1.18-0.793-2.027
	c0-0.879,0.398-1.644,1.199-2.3c0.797-0.657,1.84-0.985,3.129-0.985c0.543,0,1.035,0.102,1.488,0.309
	C10.516,19.223,10.922,19.465,11.281,19.75"/>
<path fill="#FFFFFF" d="M18.242,19.383c0.153,0.105,0.301,0.176,0.438,0.215c0.116,0.14,0.261,0.234,0.441,0.281
	c0.18,0.047,0.362,0.059,0.56,0.031c0.187-0.023,0.374-0.086,0.562-0.179c0.188-0.094,0.336-0.219,0.449-0.368
	c0.281,0.571,0.668,1.043,1.16,1.407c0.492,0.366,1.113,0.715,1.855,1.051c0.945,0.421,1.91,0.632,2.895,0.628
	c0.984-0.003,1.922-0.191,2.813-0.562c0.891-0.372,1.703-0.914,2.438-1.633c0.734-0.719,1.324-1.57,1.766-2.555l0.324-0.722
	c0.449-1.004,0.684-1.992,0.707-2.961c0.023-0.973-0.129-1.875-0.453-2.715c-0.328-0.836-0.815-1.574-1.469-2.215
	c-0.648-0.637-1.418-1.109-2.305-1.418c-0.621-0.211-1.234-0.312-1.836-0.305c-0.609,0.008-1.117,0.051-1.535,0.133
	c0.082-0.23,0.172-0.457,0.273-0.683c0.098-0.223,0.203-0.453,0.313-0.696l0.848-1.894c0.152-0.332,0.336-0.703,0.551-1.11
	c0.215-0.402,0.398-0.726,0.551-0.968c0.086-0.141,0.188-0.297,0.309-0.465c0.031-0.168-0.004-0.348-0.102-0.551
	c-0.102-0.199-0.207-0.348-0.32-0.445c-0.172-0.164-0.406-0.313-0.703-0.446c-0.297-0.132-0.617-0.214-0.965-0.234
	c-0.348-0.019-0.695,0.047-1.043,0.199c-0.352,0.157-0.645,0.45-0.879,0.879c-0.148,0.227-0.371,0.637-0.672,1.239
	c-0.305,0.597-0.645,1.3-1.023,2.097c-0.383,0.801-0.789,1.664-1.211,2.586c-0.43,0.926-0.84,1.832-1.238,2.723
	c-0.168,0.375-0.379,0.816-0.637,1.34c-0.254,0.519-0.531,1.062-0.824,1.621c-0.333,0.633-0.652,1.261-0.968,1.89
	c-0.313,0.629-0.579,1.184-0.797,1.668c-0.098,0.223-0.18,0.414-0.242,0.575c-0.059,0.164-0.114,0.324-0.165,0.48
	c-0.204,0.398-0.312,0.734-0.332,1.004c-0.019,0.269,0.012,0.492,0.102,0.668C17.964,19.145,18.086,19.281,18.242,19.383
	 M24.191,13.574l0.078-0.168c0.191-0.425,0.398-0.812,0.617-1.16c0.223-0.347,0.465-0.683,0.723-1.015
	c0.625-0.297,1.234-0.5,1.828-0.602c0.594-0.101,1.156-0.031,1.695,0.207c0.598,0.266,1.07,0.684,1.434,1.246
	c0.363,0.563,0.43,1.262,0.211,2.102c0.031,0.082,0.034,0.207,0.016,0.375c-0.02,0.168-0.059,0.359-0.117,0.566
	c-0.063,0.207-0.141,0.422-0.242,0.645c-0.098,0.222-0.191,0.429-0.273,0.613c-0.527,1.078-1.25,1.832-2.168,2.254
	c-0.914,0.43-1.844,0.43-2.793,0.004c-0.484-0.219-0.855-0.543-1.113-0.985c-0.262-0.441-0.5-0.89-0.719-1.343l-0.016-0.039
	C23.488,15.422,23.77,14.52,24.191,13.574"/>
<path fill="#FFFFFF" d="M30.969,28.949c-0.848,0.23-1.657,0.609-2.418,1.137c-0.762,0.524-1.422,1.188-1.973,1.981
	s-0.938,1.612-1.156,2.461c-0.223,0.847-0.277,1.679-0.16,2.496c0.109,0.812,0.391,1.582,0.836,2.3
	c0.445,0.723,1.066,1.34,1.867,1.852c0.5,0.32,1.043,0.56,1.637,0.715c0.594,0.16,1.164,0.227,1.727,0.211
	c0.555-0.02,1.055-0.133,1.492-0.348c0.438-0.211,0.754-0.527,0.945-0.945c0.109-0.23,0.145-0.487,0.105-0.77
	c-0.043-0.281-0.18-0.515-0.422-0.699c-0.125-0.102-0.254-0.16-0.383-0.184c-0.133-0.023-0.327-0.023-0.594-0.003
	c-0.457,0.03-0.934,0.015-1.43-0.043c-0.496-0.06-0.906-0.192-1.223-0.396c-0.406-0.293-0.715-0.637-0.93-1.031
	s-0.336-0.816-0.363-1.273c-0.035-0.453,0.031-0.925,0.195-1.406c0.164-0.488,0.426-0.961,0.789-1.426
	c0.309-0.395,0.672-0.75,1.094-1.07c0.418-0.319,0.844-0.559,1.273-0.719c0.433-0.164,0.852-0.242,1.262-0.242
	c0.406,0,0.767,0.121,1.074,0.363c0.281,0.219,0.465,0.5,0.555,0.84c0.086,0.34,0.133,0.707,0.145,1.102
	c-0.113,0.23-0.105,0.462,0.027,0.699c0.133,0.238,0.281,0.426,0.453,0.56c0.055,0.043,0.18,0.086,0.375,0.125
	c0.199,0.039,0.414,0.054,0.656,0.05s0.48-0.039,0.715-0.105s0.426-0.188,0.586-0.358c0.27-0.286,0.426-0.657,0.465-1.118
	c0.039-0.457-0.027-0.933-0.207-1.434c-0.176-0.5-0.445-0.988-0.813-1.469c-0.363-0.477-0.805-0.887-1.332-1.229
	c-0.707-0.461-1.484-0.735-2.328-0.829C32.668,28.649,31.82,28.715,30.969,28.949"/>
</svg>
