<?xml version="1.0" encoding="utf-8"?>
<!-- Generator: Adobe Illustrator 16.0.0, SVG Export Plug-In . SVG Version: 6.00 Build 0)  -->
<!DOCTYPE svg PUBLIC "-//W3C//DTD SVG 1.1//EN" "http://www.w3.org/Graphics/SVG/1.1/DTD/svg11.dtd">
<svg version="1.1" id="Layer_1" xmlns="http://www.w3.org/2000/svg" xmlns:xlink="http://www.w3.org/1999/xlink" x="0px" y="0px"
	 width="44px" height="44px" viewBox="0 0 262.969 268.614" enable-background="new 0 0 262.969 268.614"
	 xml:space="preserve">
<polygon fill="#FFFFFF" points="29.838,0 29.838,29.844 0,29.844 0,52.414 29.838,52.414 29.838,82.258 52.415,82.258 
	52.415,52.414 82.258,52.414 82.258,29.844 52.415,29.844 52.415,0 "/>
<polygon fill="#FFFFFF" points="20.023,255.774 41.125,234.669 62.23,255.774 78.187,239.813 57.086,218.711 78.187,197.606 
	62.23,181.649 41.125,202.751 20.023,181.649 4.066,197.606 25.168,218.711 4.066,239.813 "/>
<rect x="180.711" y="29.844" fill="#FFFFFF" width="82.258" height="22.57"/>
<rect x="180.711" y="207.422" fill="#FFFFFF" width="82.258" height="22.574"/>
</svg>
