<?xml version="1.0" encoding="utf-8"?>
<!-- Generator: Adobe Illustrator 16.0.0, SVG Export Plug-In . SVG Version: 6.00 Build 0)  -->
<!DOCTYPE svg PUBLIC "-//W3C//DTD SVG 1.1//EN" "http://www.w3.org/Graphics/SVG/1.1/DTD/svg11.dtd">
<svg version="1.1" id="Layer_1" xmlns="http://www.w3.org/2000/svg" xmlns:xlink="http://www.w3.org/1999/xlink" x="0px" y="0px"
	 width="43px" height="43px" viewBox="0 0 360 360" enable-background="new 0 0 360 360" xml:space="preserve">
<rect x="174" y="60" fill="#FFFFFF" width="30" height="12"/>
<path fill="#FFFFFF" d="M300,168v60H180v-18.602c-0.008-16.57-9.762-31.589-24.898-38.339L126,158.102v-8.582
	c11.105-6.469,19.18-17.09,22.441-29.52H150c9.941,0,18-8.059,18-18s-8.059-18-18-18v-1.078c7.242-2.527,12.07-9.391,12-17.059
	c-0.066-7.672-5.016-14.445-12.301-16.843c-1.097-9.34-5.328-18.032-12-24.661c-4.898-4.964-10.996-8.582-17.699-10.5V12
	c-0.02-6.621-5.379-11.98-12-12H96c-6.621,0.02-11.98,5.379-12,12v1.801C67.934,18.523,56.242,32.387,54.301,49.02
	C47.016,51.418,42.066,58.191,42,65.863c-0.07,7.668,4.758,14.532,12,17.059V84c-9.941,0-18,8.059-18,18s8.059,18,18,18h1.559
	C58.82,132.43,66.895,143.051,78,149.52v8.582l-29.102,12.957c-15.136,6.75-24.89,21.769-24.898,38.339V228H12V90
	c0.031-9.93,8.07-17.969,18-18V60C13.43,60,0,73.43,0,90v168c0,16.57,13.43,30,30,30h77.219l-4.5,36H96c-9.941,0-18,8.059-18,18
	s8.059,18,18,18h120c9.941,0,18-8.059,18-18s-8.059-18-18-18h-6.719l-4.5-36H282c16.57,0,30-13.43,30-30v-90H300z M54,108
	c-3.312,0-6-2.688-6-6s2.688-6,6-6V108z M132,192c1.004,0.004,1.996-0.242,2.879-0.719c1.469-0.82,2.531-2.211,2.941-3.84
	l2.461-9.839l9.899,4.378c10.836,4.813,17.82,15.563,17.82,27.418V228h-43.199l-9.121-41.102l14.398,4.801
	C130.703,191.887,131.348,191.988,132,192 M129.18,172.621l-1.442,5.641l-9.476-3.184l-2.223-4.379l4.141-2.039L129.18,172.621z
	 M156,102c0,3.312-2.688,6-6,6V96C153.312,96,156,98.688,156,102 M120,26.578c3.438,1.5,6.566,3.613,9.238,6.242
	c4.172,4.133,7.016,9.418,8.16,15.18H120V26.578z M96,12h12v36H96V12z M84,26.578V48H66.602C68.539,38.441,75.039,30.438,84,26.578
	 M54,66c0-3.312,2.688-6,6-6h84c3.312,0,6,2.688,6,6s-2.688,6-6,6H60C56.688,72,54,69.312,54,66 M66,108V84h72v24
	c0,19.883-16.117,36-36,36S66,127.883,66,108 M98.461,196.68c2.031,1.762,5.047,1.762,7.078,0L112.5,228h-21L98.461,196.68z
	 M97.32,178.801L99.719,174h4.563l2.399,4.801l-4.68,4.738L97.32,178.801z M106.559,162h-9.118L90,158.281v-3.84
	c7.863,2.079,16.137,2.079,24,0v3.84L106.559,162z M83.82,168.66l4.141,2.039l-2.223,4.379l-9.476,3.184l-1.442-5.641L83.82,168.66z
	 M36,209.398c0-11.855,6.984-22.605,17.82-27.418l9.899-4.378l2.461,9.839c0.41,1.629,1.472,3.02,2.941,3.84
	c0.883,0.477,1.875,0.723,2.879,0.719c0.652-0.012,1.297-0.113,1.922-0.301l14.398-4.801L79.199,228H36V209.398z M216,336
	c3.312,0,6,2.688,6,6c0,3.313-2.688,6-6,6H96c-3.312,0-6-2.687-6-6c0-3.312,2.688-6,6-6H216z M114.781,324l4.5-36h73.438l4.5,36
	H114.781z M300,258c-0.031,9.93-8.07,17.969-18,18H30c-9.93-0.031-17.969-8.07-18-18v-18h288V258z"/>
<rect x="264" y="252" fill="#FFFFFF" width="12" height="12"/>
<rect x="78" y="96" fill="#FFFFFF" width="12" height="12"/>
<rect x="114" y="96" fill="#FFFFFF" width="12" height="12"/>
<path fill="#FFFFFF" d="M354.852,78.059l-16.09-2.297c-1.09-3.383-2.453-6.672-4.075-9.832l9.75-12.996
	c1.79-2.391,1.552-5.735-0.558-7.844L326.91,28.121c-2.109-2.105-5.449-2.344-7.836-0.559l-13.004,9.747
	c-3.16-1.621-6.449-2.981-9.832-4.071l-2.297-16.09C293.516,14.195,290.984,12,288,12h-24c-2.984,0-5.516,2.195-5.941,5.148
	l-2.297,16.09c-3.383,1.086-6.672,2.45-9.832,4.071l-13.004-9.747c-2.387-1.785-5.727-1.546-7.836,0.559L208.121,45.09
	c-2.109,2.109-2.348,5.453-0.56,7.844l9.75,12.996c-1.62,3.16-2.983,6.449-4.073,9.832l-16.09,2.297
	C194.195,78.484,192,81.016,192,84v24c0,2.984,2.195,5.516,5.148,5.941l16.09,2.297c1.09,3.383,2.453,6.672,4.073,9.832
	l-9.75,12.996c-1.788,2.391-1.55,5.735,0.56,7.844l16.969,16.969c2.109,2.105,5.449,2.344,7.836,0.559l13.004-9.747
	c3.16,1.621,6.449,2.985,9.832,4.071l2.297,16.09c0.426,2.953,2.957,5.148,5.941,5.148h24c2.984,0,5.516-2.195,5.941-5.148
	l2.297-16.09c3.383-1.09,6.672-2.45,9.832-4.071l13.004,9.747c2.387,1.785,5.727,1.546,7.836-0.559l16.969-16.969
	c2.109-2.109,2.348-5.453,0.558-7.844l-9.75-12.996c1.622-3.16,2.985-6.449,4.075-9.832l16.09-2.297
	c2.953-0.425,5.148-2.957,5.148-5.941V84C360,81.016,357.805,78.484,354.852,78.059 M348,102.797l-14.777,2.113
	c-2.402,0.344-4.359,2.102-4.961,4.453c-1.27,4.969-3.242,9.731-5.863,14.141c-1.238,2.09-1.094,4.723,0.367,6.668l8.949,11.937
	l-9.598,9.602l-11.945-8.953c-1.945-1.457-4.574-1.598-6.66-0.36c-4.406,2.622-9.168,4.59-14.137,5.848
	c-2.359,0.602-4.121,2.563-4.465,4.969L282.797,168h-13.594l-2.105-14.777c-0.344-2.411-2.109-4.371-4.465-4.969
	c-4.969-1.258-9.73-3.227-14.137-5.852c-2.09-1.238-4.719-1.093-6.66,0.364l-11.945,8.949l-9.602-9.598l8.953-11.941
	c1.461-1.942,1.605-4.574,0.367-6.664c-2.621-4.41-4.598-9.172-5.863-14.145c-0.602-2.351-2.56-4.105-4.961-4.453L204,102.797
	V89.203l14.777-2.113c2.402-0.344,4.359-2.102,4.961-4.453c1.27-4.969,3.242-9.731,5.863-14.141c1.238-2.09,1.094-4.723-0.367-6.668
	l-8.949-11.937l9.598-9.602l11.945,8.953c1.945,1.457,4.574,1.598,6.66,0.36c4.406-2.622,9.168-4.59,14.137-5.848
	c2.359-0.602,4.121-2.563,4.465-4.969L269.203,24h13.594l2.105,14.777c0.344,2.411,2.109,4.371,4.465,4.969
	c4.969,1.258,9.73,3.227,14.137,5.852c2.09,1.238,4.719,1.093,6.66-0.364l11.945-8.949l9.602,9.598l-8.953,11.941
	c-1.461,1.942-1.605,4.574-0.367,6.664c2.621,4.41,4.598,9.172,5.863,14.145c0.602,2.351,2.558,4.105,4.961,4.453L348,89.203
	V102.797z"/>
<path fill="#FFFFFF" d="M276,60c-14.563,0-27.688,8.77-33.258,22.223c-5.574,13.453-2.492,28.937,7.801,39.234
	c10.297,10.293,25.781,13.375,39.234,7.801C303.23,123.688,312,110.562,312,96C311.98,76.125,295.875,60.02,276,60 M276,120
	c-9.707,0-18.457-5.848-22.172-14.816c-3.715-8.969-1.664-19.289,5.203-26.153c6.863-6.867,17.184-8.918,26.152-5.203
	C294.152,77.543,300,86.293,300,96C300,109.254,289.254,120,276,120"/>
<rect x="204" y="180" fill="#FFFFFF" width="48" height="12"/>
<rect x="204" y="204" fill="#FFFFFF" width="48" height="12"/>
</svg>
