<?xml version="1.0" encoding="utf-8"?>
<!-- Generator: Adobe Illustrator 16.0.0, SVG Export Plug-In . SVG Version: 6.00 Build 0)  -->
<!DOCTYPE svg PUBLIC "-//W3C//DTD SVG 1.1//EN" "http://www.w3.org/Graphics/SVG/1.1/DTD/svg11.dtd">
<svg version="1.1" id="Layer_1" xmlns="http://www.w3.org/2000/svg" xmlns:xlink="http://www.w3.org/1999/xlink" x="0px" y="0px"
	 width="37px" height="37px" viewBox="0 0 384 384" enable-background="new 0 0 384 384" xml:space="preserve">
<path fill="#FFFFFF" d="M169.516,91.473c6.214,0,11.25-5.035,11.25-11.25c0-6.211-5.036-11.25-11.25-11.25h-34.118V57.234
	c0-6.214-5.039-11.25-11.25-11.25c-6.214,0-11.25,5.036-11.25,11.25v11.739H78.777c-6.211,0-11.25,5.039-11.25,11.25
	c0,6.215,5.039,11.25,11.25,11.25h34.121v12.25c-3.195,5.531-11.421,19.304-20.195,30.187
	c-9.547,11.844-20.465,19.922-20.558,19.992c-5.02,3.664-6.118,10.703-2.45,15.719c3.664,5.02,10.7,6.117,15.719,2.453
	c7.84-5.73,18.66-15.91,27.484-27.461v18.375c0,6.211,5.036,11.25,11.25,11.25c6.211,0,11.25-5.039,11.25-11.25v-18.375
	c8.711,11.407,19.489,21.617,27.485,27.461c5.015,3.664,12.055,2.567,15.719-2.449c3.664-5.02,2.566-12.059-2.45-15.723
	c-0.109-0.078-10.922-8.031-20.562-19.992c-8.746-10.851-16.992-24.648-20.192-30.187v-12.25H169.516z"/>
<path fill="#FFFFFF" d="M272.813,227.309c-1.742-4.094-5.73-6.777-10.18-6.848c-4.453-0.098-8.52,2.487-10.387,6.527
	c-31.753,68.648-23.253,50.273-39.816,86.09c-2.609,5.641-0.152,12.324,5.488,14.934s12.325,0.148,14.93-5.488l7.926-17.137h40.766
	l7.148,16.813c2.434,5.723,9.039,8.383,14.754,5.953c5.719-2.43,8.383-9.035,5.953-14.754
	C298.824,288.535,308.422,311.121,272.813,227.309 M251.18,282.887l10.84-23.438l9.957,23.438H251.18z"/>
<path fill="#FFFFFF" d="M349.98,195.539l-6.535-50.32c-0.945-7.266-8.48-11.699-15.285-9.016l-74.293,29.309
	c-7.676,0-12.746-0.137-20.695,0.863c9.602-16.25,15.117-35.18,15.117-55.379v-1.766C248.289,49.004,199.293,0,139.066,0h-29.839
	C49,0,0,49.004,0,109.23v1.766c0,23.692,7.797,46.914,22.02,65.774l6.578,62.789c0.371,3.574,2.429,6.75,5.531,8.555
	c1.742,1.012,3.695,1.523,5.656,1.523c1.535,0,3.07-0.313,4.516-0.945l64.98-28.473h29.785c4.653,0,9.239-0.293,13.739-0.859
	c-9.602,16.25-15.125,35.191-15.125,55.395c0,29.176,11.363,56.609,31.996,77.254C190.316,372.637,217.75,384,246.922,384h27.836
	C334.996,384,384,334.992,384,274.758C384,244.629,371.848,216.273,349.98,195.539 M102.461,198.645l-53.09,23.262l-5.309-50.679
	c-0.226-2.153-1.066-4.196-2.425-5.879C29.117,149.789,22.5,130.996,22.5,110.996v-1.766c0-47.82,38.906-86.73,86.727-86.73h29.839
	c47.821,0,86.723,38.906,86.723,86.73v1.766c0,47.82-38.902,86.723-86.723,86.723C104.066,197.719,105.398,197.355,102.461,198.645
	 M274.758,361.5h-27.836c-23.164,0-44.949-9.023-61.336-25.402c-16.383-16.391-25.406-38.176-25.406-61.344
	c0-47.828,38.914-86.742,86.742-86.742c9.645,0,10.668,0.218,13.215-0.785l62.855-24.797l5.207,40.089
	c0.672,5.184,3.695,6.719,7.895,10.898c16.383,16.383,25.406,38.164,25.406,61.34C361.5,322.586,322.586,361.5,274.758,361.5"/>
</svg>
