<?xml version="1.0" encoding="utf-8"?>
<!-- Generator: Adobe Illustrator 16.0.0, SVG Export Plug-In . SVG Version: 6.00 Build 0)  -->
<!DOCTYPE svg PUBLIC "-//W3C//DTD SVG 1.1//EN" "http://www.w3.org/Graphics/SVG/1.1/DTD/svg11.dtd">
<svg version="1.1" id="Layer_1" xmlns="http://www.w3.org/2000/svg" xmlns:xlink="http://www.w3.org/1999/xlink" x="0px" y="0px"
	 width="40px" height="33px" viewBox="0 0 384 318.75" enable-background="new 0 0 384 318.75" xml:space="preserve">
<path fill="#FFFFFF" d="M263.625,52.125v-31.5C263.625,9.254,254.371,0,243,0H130.5c-11.371,0-20.625,9.254-20.625,20.625v31.5H0
	V156.48l10.875,2.188v131.957c0,15.508,12.617,28.125,28.125,28.125h306c15.508,0,28.125-12.617,28.125-28.125V158.668L384,156.48
	V52.125H263.625z M121.125,20.625c0-5.168,4.207-9.375,9.375-9.375H243c5.168,0,9.375,4.207,9.375,9.375v5.625h-131.25V20.625z
	 M121.125,37.5h131.25v14.625h-131.25V37.5z M361.875,255.75H277.5V267h84.375v12H300v11.25h61.875v0.375
	c0,9.305-7.57,16.875-16.875,16.875H39c-9.305,0-16.875-7.57-16.875-16.875v-0.375H84.75V279H22.125v-12h85.125v-11.25H22.125
	v-94.816l82.449,16.586c-0.461,3.637-0.699,7.344-0.699,11.105c0,48.59,39.531,88.125,88.125,88.125s88.125-39.535,88.125-88.125
	c0-3.762-0.238-7.469-0.699-11.105l82.449-16.586V255.75z M186.375,153v30h-38.289c0.445-10.598,2.137-20.754,4.965-30H186.375z
	 M157.242,141.75c1.352-3.004,2.836-5.867,4.457-8.559c6.918-11.496,15.524-18.691,24.676-20.793v29.352H157.242z M153.051,224.25
	c-2.828-9.246-4.52-19.402-4.965-30h38.289v30H153.051z M186.375,235.5v29.352c-9.152-2.102-17.758-9.297-24.676-20.793
	c-1.621-2.691-3.105-5.555-4.457-8.559H186.375z M156.918,257.016c-10.106-5.204-18.91-12.586-25.805-21.516h13.949
	c2.004,5.117,4.333,9.937,6.997,14.363C153.602,252.422,155.223,254.805,156.918,257.016 M152.059,127.387
	c-2.664,4.426-4.993,9.246-6.997,14.363h-13.949c6.895-8.93,15.699-16.313,25.805-21.516
	C155.223,122.445,153.602,124.828,152.059,127.387 M141.348,153c-2.575,9.402-4.114,19.527-4.52,30h-21.496
	c0.781-10.762,3.789-20.914,8.563-30H141.348z M136.828,194.25c0.406,10.473,1.945,20.598,4.524,30h-17.457
	c-4.774-9.086-7.782-19.238-8.563-30H136.828z M230.949,153c2.828,9.246,4.52,19.402,4.965,30h-38.289v-30H230.949z M197.625,141.75
	v-29.352c9.152,2.102,17.758,9.297,24.676,20.793c1.621,2.692,3.105,5.555,4.457,8.559H197.625z M242.648,224.25
	c2.574-9.402,4.113-19.527,4.523-30h21.496c-0.781,10.762-3.789,20.914-8.563,30H242.648z M252.887,235.5
	c-6.895,8.93-15.698,16.312-25.805,21.516c1.695-2.211,3.316-4.594,4.859-7.152c2.664-4.427,4.992-9.246,6.997-14.363H252.887z
	 M247.172,183c-0.406-10.473-1.945-20.598-4.523-30h17.457c4.773,9.086,7.781,19.238,8.563,30H247.172z M238.938,141.75
	c-2.005-5.117-4.333-9.937-6.997-14.363c-1.543-2.559-3.164-4.942-4.859-7.153c10.106,5.203,18.91,12.586,25.805,21.516H238.938z
	 M235.914,194.25c-0.445,10.598-2.137,20.754-4.965,30h-33.324v-30H235.914z M226.758,235.5c-1.352,3.004-2.836,5.867-4.457,8.559
	c-6.918,11.496-15.523,18.691-24.676,20.793V235.5H226.758z M372.75,147.27l-95.445,19.203C267.453,128.566,232.945,100.5,192,100.5
	c-40.941,0-75.453,28.066-85.305,65.973L11.25,147.27V63.375h361.5V147.27z"/>
</svg>
