<?xml version="1.0" encoding="utf-8"?>
<!-- Generator: Adobe Illustrator 16.0.0, SVG Export Plug-In . SVG Version: 6.00 Build 0)  -->
<!DOCTYPE svg PUBLIC "-//W3C//DTD SVG 1.1//EN" "http://www.w3.org/Graphics/SVG/1.1/DTD/svg11.dtd">
<svg version="1.1" id="Layer_1" xmlns="http://www.w3.org/2000/svg" xmlns:xlink="http://www.w3.org/1999/xlink" x="0px" y="0px"
	 width="33px" height="37px" viewBox="0 0 343.344 384" enable-background="new 0 0 343.344 384" xml:space="preserve">
<path fill="#FFFFFF" d="M103.5,0h-96C3.36,0,0,3.359,0,7.5v96c0,4.141,3.36,7.5,7.5,7.5h6v231c0,23.16,18.844,42,42,42
	c23.16,0,42-18.84,42-42v-34c0-4.141-3.355-7.5-7.5-7.5c-4.14,0-7.5,3.359-7.5,7.5v34c0,14.887-12.109,27-27,27
	c-14.887,0-27-12.113-27-27V199.594h54V320.5c0,4.141,3.36,7.5,7.5,7.5c4.145,0,7.5-3.359,7.5-7.5V111h6c4.145,0,7.5-3.359,7.5-7.5
	v-96C111,3.359,107.645,0,103.5,0 M96,96H79V15h17V96z M47,15h17v81H47V15z M15,15h17v81H15V15z M82.5,184.594h-54V111h54V184.594z"
	/>
<path fill="#FFFFFF" d="M297.121,278.316l17.867-17.863c18.286-18.285,28.355-42.598,28.355-68.457
	c0-25.859-10.069-50.168-28.355-68.453l-17.867-17.863l13.227-13.227C328.633,74.168,338.703,49.859,338.703,24
	c0-13.234-10.765-24-24-24c-13.234,0-24,10.766-24,24c0,3.312-0.332,6.574-0.972,9.75h-53.099c-0.641-3.176-0.973-6.438-0.973-9.75
	c0-13.234-10.766-24-24-24c-6.41,0-12.438,2.496-16.972,7.031C190.156,11.562,187.66,17.59,187.66,24
	c0,25.859,10.071,50.168,28.354,68.453l13.228,13.227l-17.867,17.863c-37.746,37.746-37.746,99.164,0,136.91l17.863,17.863
	l-13.224,13.227C197.731,309.828,187.66,334.141,187.66,360c0,13.234,10.766,24,24,24s24-10.766,24-24
	c0-3.316,0.332-6.578,0.973-9.754h53.099c0.64,3.176,0.972,6.438,0.972,9.754c0,13.23,10.766,24,24,24c13.235,0,24-10.77,24-24
	c0-25.859-10.07-50.172-28.355-68.457L297.121,278.316z M314.703,15c4.965,0,9,4.039,9,9c0,21.852-8.511,42.395-23.961,57.848
	L286.516,95.07l-12.727-12.726l13.223-13.223C299.067,57.066,305.703,41.043,305.703,24C305.703,19.039,309.742,15,314.703,15
	 M283.977,48.75c-2.074,3.516-4.605,6.797-7.57,9.762L263.18,71.738l-13.223-13.226c-2.965-2.965-5.492-6.246-7.57-9.762H283.977z
	 M202.66,24c0-2.402,0.938-4.664,2.637-6.363c1.699-1.699,3.961-2.637,6.363-2.637c4.961,0,9,4.039,9,9
	c0,17.043,6.637,33.066,18.688,45.121l65.031,65.027c15.453,15.454,23.961,36,23.961,57.852c0,21.852-8.508,42.395-23.961,57.848
	l-17.863,17.863l-12.727-12.727l17.863-17.863c12.051-12.055,18.688-28.078,18.688-45.121s-6.637-33.07-18.688-45.121
	l-65.031-65.031C211.172,66.395,202.66,45.852,202.66,24 M245.317,226.512c-2.747-2.746-5.083-5.746-7.036-8.918h49.82
	c-1.977,3.199-4.332,6.195-7.055,8.918l-17.867,17.867L245.317,226.512z M281.047,157.484c2.777,2.782,5.176,5.84,7.176,9.11H238.16
	c1.977-3.242,4.354-6.309,7.157-9.11l17.865-17.863L281.047,157.484z M232.172,181.594h62.051c0.73,3.383,1.121,6.863,1.121,10.406
	c0,3.609-0.401,7.152-1.164,10.594h-61.969C230.688,195.684,230.672,188.512,232.172,181.594 M211.66,369c-4.961,0-9-4.039-9-9
	c0-21.852,8.508-42.398,23.961-57.852l13.227-13.223l12.727,12.727l-13.227,13.227C227.297,326.93,220.66,342.953,220.66,360
	C220.66,364.961,216.625,369,211.66,369 M242.387,335.246c2.078-3.516,4.605-6.797,7.57-9.762l13.223-13.227l13.227,13.227
	c2.965,2.965,5.493,6.246,7.57,9.762H242.387z M314.703,369c-4.965,0-9-4.039-9-9c0-17.047-6.636-33.07-18.691-45.121
	l-65.027-65.031c-31.898-31.898-31.898-83.801,0-115.7l17.863-17.863l12.727,12.727l-17.863,17.867
	c-24.879,24.879-24.879,65.359,0,90.238l65.031,65.031c15.453,15.453,23.961,35.996,23.961,57.852
	C323.703,364.961,319.664,369,314.703,369"/>
<path fill="#FFFFFF" d="M90.004,266.754c-1.98,0-3.906,0.793-5.309,2.195c-1.394,1.395-2.191,3.324-2.191,5.305
	c0,1.973,0.797,3.906,2.191,5.301c1.395,1.395,3.329,2.199,5.309,2.199c1.973,0,3.906-0.805,5.305-2.199
	c1.394-1.395,2.195-3.328,2.195-5.301c0-1.98-0.801-3.91-2.195-5.305C93.906,267.547,91.977,266.754,90.004,266.754"/>
</svg>
