<?xml version="1.0" encoding="utf-8"?>
<!-- Generator: Adobe Illustrator 16.0.0, SVG Export Plug-In . SVG Version: 6.00 Build 0)  -->
<!DOCTYPE svg PUBLIC "-//W3C//DTD SVG 1.1//EN" "http://www.w3.org/Graphics/SVG/1.1/DTD/svg11.dtd">
<svg version="1.1" id="Layer_1" xmlns="http://www.w3.org/2000/svg" xmlns:xlink="http://www.w3.org/1999/xlink" x="0px" y="0px"
	 width="15px" height="20px" viewBox="0 0 213 280" enable-background="new 0 0 213 280" xml:space="preserve">
<path fill="#1575BC" d="M106.484,136.938c31.129,0,56.372-30.653,56.372-68.469C162.856,30.656,154.567,0,106.484,0
	C58.398,0,50.113,30.656,50.113,68.469C50.113,106.285,75.352,136.938,106.484,136.938"/>
<path d="M0.012,241.48C0,239.176-0.008,240.832,0.012,241.48"/>
<rect fill="none" width="213" height="280"/>
<path fill="#1575BC" d="M212.832,238.719c-1.043-65.875-9.647-84.646-75.479-96.527c0,0-9.271,11.809-30.868,11.809
	c-21.601,0-30.871-11.809-30.871-11.809C10.5,153.945,1.371,172.438,0.172,236.578c-0.098,5.238-0.145,5.512-0.16,4.902
	c0.004,1.141,0.008,3.25,0.008,6.922c0,0,15.671,31.598,106.464,31.598c90.789,0,106.461-31.598,106.461-31.598
	c0-2.359,0.004-4,0.004-5.117C212.935,243.66,212.898,242.93,212.832,238.719"/>
<rect fill="none" width="213" height="280"/>
</svg>
