<?xml version="1.0" encoding="utf-8"?>
<!-- Generator: Adobe Illustrator 16.0.0, SVG Export Plug-In . SVG Version: 6.00 Build 0)  -->
<!DOCTYPE svg PUBLIC "-//W3C//DTD SVG 1.1//EN" "http://www.w3.org/Graphics/SVG/1.1/DTD/svg11.dtd">
<svg version="1.1" id="Layer_1" xmlns="http://www.w3.org/2000/svg" xmlns:xlink="http://www.w3.org/1999/xlink" x="0px" y="0px"
	 width="21px" height="14px" viewBox="0 0 511.999 326.33" enable-background="new 0 0 511.999 326.33"
	 xml:space="preserve">
<g>
	<defs>
		<rect id="SVGID_1_" width="511.999" height="326.33"/>
	</defs>
	<clipPath id="SVGID_2_">
		<use xlink:href="#SVGID_1_"  overflow="visible"/>
	</clipPath>
	<path clip-path="url(#SVGID_2_)" fill="#323232" d="M255.997,326.33c-139.19,0-248.179-146.95-252.748-153.206
		c-4.332-5.937-4.332-13.987,0-19.923C7.818,146.95,116.807,0,255.997,0s248.175,146.95,252.748,153.207
		c4.339,5.93,4.339,13.987,0,19.922C504.172,179.38,395.188,326.33,255.997,326.33 M38.38,163.154
		c26.286,31.884,115.087,129.417,217.617,129.417c102.749,0,191.364-97.482,217.617-129.396
		C447.316,131.275,358.521,33.758,255.997,33.758C153.249,33.758,64.632,131.241,38.38,163.154"/>
	<path clip-path="url(#SVGID_2_)" fill="#323232" d="M255.997,264.439c-55.842,0-101.275-45.433-101.275-101.274
		c0-55.842,45.433-101.275,101.275-101.275s101.274,45.433,101.274,101.275C357.271,219.007,311.839,264.439,255.997,264.439
		 M255.997,95.648c-37.229,0-67.517,30.287-67.517,67.517c0,37.229,30.288,67.516,67.517,67.516
		c37.229,0,67.518-30.287,67.518-67.516C323.515,125.936,293.227,95.648,255.997,95.648"/>
</g>
</svg>
