<?xml version="1.0" encoding="utf-8"?>
<!-- Generator: Adobe Illustrator 16.0.0, SVG Export Plug-In . SVG Version: 6.00 Build 0)  -->
<!DOCTYPE svg PUBLIC "-//W3C//DTD SVG 1.1//EN" "http://www.w3.org/Graphics/SVG/1.1/DTD/svg11.dtd">
<svg version="1.1" id="Layer_1" xmlns="http://www.w3.org/2000/svg" xmlns:xlink="http://www.w3.org/1999/xlink" x="0px" y="0px"
	 width="39px" height="38px" viewBox="0 0 511.508 512" enable-background="new 0 0 511.508 512" xml:space="preserve">
<path fill="#ACD25B" d="M435.922,74.352C387.824,26.434,323.84,0.027,255.742,0C187.797,0,123.711,26.383,75.297,74.289
	C26.797,122.277,0.062,186.051,0,253.629v0.125c0.008,40.902,10.754,82.164,31.152,119.828L0.699,512l140.012-31.848
	c35.461,17.871,75.027,27.293,114.934,27.309h0.101c67.934,0,132.02-26.387,180.441-74.297
	c48.543-48.027,75.289-111.719,75.32-179.34C511.527,186.68,484.688,122.941,435.922,74.352 M255.741,481h-0.096
	c-38.094-0.017-75.841-9.581-109.151-27.666l-7.039-3.821l-98.981,22.514l21.499-97.712l-4.144-7.146
	c-20.607-35.536-31.496-74.766-31.496-113.458c0.079-125.241,102.98-227.249,229.4-227.249
	c61.073,0.024,118.458,23.701,161.583,66.659c43.776,43.622,67.874,100.692,67.854,160.697C485.121,379.087,382.199,481,255.741,481
	"/>
<path fill="#ACD25B" d="M186.152,141.863h-11.211c-3.902,0-10.238,1.461-15.597,7.293c-5.364,5.836-20.477,19.942-20.477,48.629
	c0,28.688,20.965,56.406,23.887,60.301c2.926,3.891,40.469,64.641,99.93,88.012c49.418,19.422,59.477,15.559,70.199,14.586
	c10.728-0.969,34.613-14.102,39.488-27.715s4.875-25.285,3.414-27.723c-1.465-2.43-5.367-3.887-11.215-6.801
	c-5.852-2.918-34.523-17.262-39.887-19.211c-5.363-1.941-9.262-2.914-13.164,2.926c-3.902,5.828-15.391,19.313-18.805,23.203
	c-3.41,3.895-6.824,4.383-12.676,1.465c-5.852-2.926-24.5-9.191-46.848-29.051c-17.394-15.457-29.464-35.168-32.879-41.004
	c-3.41-5.832-0.363-8.988,2.571-11.898c2.629-2.609,6.179-6.18,9.105-9.582c2.922-3.406,3.754-5.836,5.707-9.727
	c1.95-3.89,0.973-7.296-0.488-10.211c-1.465-2.917-12.691-31.75-17.895-43.281h0.004
	C194.934,142.363,190.32,142.035,186.152,141.863"/>
</svg>
